Fraternidad-Thin.ufo
<glyph name="percent" format="2">
  <advance width="1804"/>
  <unicode hex="0025"/>
  <outline>
    <contour>
      <point x="240" y="0" type="line"/>
      <point x="180" y="60" type="line"/>
      <point x="1564" y="1440" type="line"/>
      <point x="1624" y="1382" type="line"/>
    </contour>
    <contour>
      <point x="1324" y="-30" type="qcurve" smooth="yes"/>
      <point x="1225" y="-30"/>
      <point x="1062" y="67"/>
      <point x="964" y="230"/>
      <point x="964" y="330" type="qcurve" smooth="yes"/>
      <point x="964" y="428"/>
      <point x="1064" y="592"/>
      <point x="1228" y="690"/>
      <point x="1324" y="690" type="qcurve" smooth="yes"/>
      <point x="1423" y="690"/>
      <point x="1587" y="593"/>
      <point x="1684" y="430"/>
      <point x="1684" y="330" type="qcurve" smooth="yes"/>
      <point x="1684" y="230"/>
      <point x="1587" y="67"/>
      <point x="1423" y="-30"/>
    </contour>
    <contour>
      <point x="1324" y="54" type="qcurve" smooth="yes"/>
      <point x="1399" y="54"/>
      <point x="1525" y="129"/>
      <point x="1600" y="255"/>
      <point x="1600" y="330" type="qcurve" smooth="yes"/>
      <point x="1600" y="405"/>
      <point x="1525" y="531"/>
      <point x="1399" y="606"/>
      <point x="1324" y="606" type="qcurve" smooth="yes"/>
      <point x="1249" y="606"/>
      <point x="1124" y="531"/>
      <point x="1048" y="405"/>
      <point x="1048" y="330" type="qcurve" smooth="yes"/>
      <point x="1048" y="255"/>
      <point x="1124" y="129"/>
      <point x="1249" y="54"/>
    </contour>
    <contour>
      <point x="480" y="750" type="qcurve" smooth="yes"/>
      <point x="381" y="750"/>
      <point x="217" y="847"/>
      <point x="120" y="1010"/>
      <point x="120" y="1110" type="qcurve" smooth="yes"/>
      <point x="120" y="1208"/>
      <point x="220" y="1372"/>
      <point x="384" y="1470"/>
      <point x="480" y="1470" type="qcurve" smooth="yes"/>
      <point x="579" y="1470"/>
      <point x="742" y="1373"/>
      <point x="840" y="1210"/>
      <point x="840" y="1110" type="qcurve" smooth="yes"/>
      <point x="840" y="1010"/>
      <point x="742" y="847"/>
      <point x="579" y="750"/>
    </contour>
    <contour>
      <point x="480" y="834" type="qcurve" smooth="yes"/>
      <point x="555" y="834"/>
      <point x="681" y="909"/>
      <point x="756" y="1035"/>
      <point x="756" y="1110" type="qcurve" smooth="yes"/>
      <point x="756" y="1185"/>
      <point x="681" y="1311"/>
      <point x="555" y="1386"/>
      <point x="480" y="1386" type="qcurve" smooth="yes"/>
      <point x="405" y="1386"/>
      <point x="280" y="1311"/>
      <point x="204" y="1185"/>
      <point x="204" y="1110" type="qcurve" smooth="yes"/>
      <point x="204" y="1035"/>
      <point x="280" y="909"/>
      <point x="405" y="834"/>
    </contour>
  </outline>
</glyph>
<glyph name="ampersand" format="2">
  <advance width="1280"/>
  <unicode hex="0026"/>
  <outline>
    <contour>
      <point x="594" y="-30" type="qcurve" smooth="yes"/>
      <point x="473" y="-30"/>
      <point x="274" y="38"/>
      <point x="206" y="110" type="qcurve" smooth="yes"/>
      <point x="155" y="164"/>
      <point x="103" y="304"/>
      <point x="100" y="380" type="qcurve"/>
      <point x="99" y="451"/>
      <point x="142" y="597"/>
      <point x="190" y="654" type="qcurve"/>
      <point x="225" y="698"/>
      <point x="316" y="754"/>
      <point x="364" y="772" type="qcurve"/>
      <point x="279" y="858"/>
      <point x="188" y="997"/>
      <point x="188" y="1102" type="qcurve" smooth="yes"/>
      <point x="188" y="1204"/>
      <point x="286" y="1377"/>
      <point x="374" y="1422" type="qcurve" smooth="yes"/>
      <point x="425" y="1448"/>
      <point x="534" y="1470"/>
      <point x="588" y="1470" type="qcurve" smooth="yes"/>
      <point x="660" y="1470"/>
      <point x="804" y="1434"/>
      <point x="856" y="1396" type="qcurve"/>
      <point x="892" y="1372"/>
      <point x="950" y="1303"/>
      <point x="968" y="1264" type="qcurve"/>
      <point x="890" y="1228" type="line"/>
      <point x="864" y="1288"/>
      <point x="806" y="1328" type="qcurve" smooth="yes"/>
      <point x="763" y="1358"/>
      <point x="653" y="1386"/>
      <point x="596" y="1386" type="qcurve" smooth="yes"/>
      <point x="497" y="1386"/>
      <point x="414" y="1346" type="qcurve"/>
      <point x="347" y="1312"/>
      <point x="278" y="1187"/>
      <point x="278" y="1106" type="qcurve" smooth="yes"/>
      <point x="278" y="1037"/>
      <point x="320" y="946"/>
      <point x="366" y="890" type="qcurve"/>
      <point x="390" y="863"/>
      <point x="446" y="814"/>
      <point x="474" y="788" type="qcurve" smooth="yes"/>
      <point x="992" y="306" type="line"/>
      <point x="998" y="339"/>
      <point x="1002" y="396"/>
      <point x="1002" y="426" type="qcurve" smooth="yes"/>
      <point x="1000" y="660" type="line"/>
      <point x="1090" y="660" type="line"/>
      <point x="1090" y="466" type="line" smooth="yes"/>
      <point x="1090" y="370"/>
      <point x="1075" y="270"/>
      <point x="1064" y="238" type="qcurve"/>
      <point x="1254" y="62" type="line"/>
      <point x="1196" y="0" type="line"/>
      <point x="1024" y="162" type="line"/>
      <point x="1002" y="122"/>
      <point x="916" y="49"/>
      <point x="874" y="26" type="qcurve" smooth="yes"/>
      <point x="813" y="-7"/>
      <point x="668" y="-30"/>
    </contour>
    <contour>
      <point x="590" y="54" type="qcurve" smooth="yes"/>
      <point x="664" y="54"/>
      <point x="782" y="73"/>
      <point x="834" y="104" type="qcurve" smooth="yes"/>
      <point x="897" y="143"/>
      <point x="949" y="205"/>
      <point x="962" y="226" type="qcurve"/>
      <point x="436" y="706" type="line"/>
      <point x="384" y="691"/>
      <point x="291" y="637"/>
      <point x="258" y="598" type="qcurve" smooth="yes"/>
      <point x="222" y="555"/>
      <point x="189" y="442"/>
      <point x="190" y="382" type="qcurve" smooth="yes"/>
      <point x="192" y="322"/>
      <point x="229" y="213"/>
      <point x="268" y="172" type="qcurve"/>
      <point x="322" y="111"/>
      <point x="497" y="54"/>
    </contour>
  </outline>
</glyph>
<glyph name="asterisk" format="2">
  <advance width="836"/>
  <unicode hex="002A"/>
  <outline>
    <contour>
      <point x="226" y="814" type="line"/>
      <point x="158" y="864" type="line"/>
      <point x="320" y="1086" type="line"/>
      <point x="60" y="1170" type="line"/>
      <point x="86" y="1250" type="line"/>
      <point x="346" y="1166" type="line"/>
      <point x="346" y="1440" type="line"/>
      <point x="430" y="1440" type="line"/>
      <point x="430" y="1166" type="line"/>
      <point x="690" y="1250" type="line"/>
      <point x="716" y="1170" type="line"/>
      <point x="456" y="1086" type="line"/>
      <point x="616" y="864" type="line"/>
      <point x="548" y="814" type="line"/>
      <point x="388" y="1036" type="line"/>
    </contour>
  </outline>
</glyph>
<glyph name="plus" format="2">
  <advance width="1160"/>
  <unicode hex="002B"/>
  <outline>
    <contour>
      <point x="538" y="260" type="line"/>
      <point x="538" y="678" type="line"/>
      <point x="120" y="678" type="line"/>
      <point x="120" y="762" type="line"/>
      <point x="538" y="762" type="line"/>
      <point x="538" y="1180" type="line"/>
      <point x="622" y="1180" type="line"/>
      <point x="622" y="762" type="line"/>
      <point x="1040" y="762" type="line"/>
      <point x="1040" y="678" type="line"/>
      <point x="622" y="678" type="line"/>
      <point x="622" y="260" type="line"/>
    </contour>
  </outline>
</glyph>
<glyph name="comma" format="2">
  <advance width="480"/>
  <unicode hex="002C"/>
  <outline>
    <contour>
      <point x="180" y="180" type="line"/>
      <point x="273" y="180" type="line"/>
      <point x="150" y="-240" type="line"/>
      <point x="84" y="-240" type="line"/>
    </contour>
  </outline>
</glyph>
<glyph name="period" format="2">
  <advance width="440"/>
  <unicode hex="002E"/>
  <outline>
    <contour>
      <point x="220" y="-6" type="qcurve" smooth="yes"/>
      <point x="189" y="-6"/>
      <point x="146" y="37"/>
      <point x="146" y="67" type="qcurve" smooth="yes"/>
      <point x="146" y="99"/>
      <point x="189" y="141"/>
      <point x="220" y="141" type="qcurve" smooth="yes"/>
      <point x="251" y="141"/>
      <point x="294" y="99"/>
      <point x="294" y="67" type="qcurve" smooth="yes"/>
      <point x="294" y="36"/>
      <point x="251" y="-6"/>
    </contour>
  </outline>
</glyph>
<glyph name="two" format="2">
  <advance width="1106"/>
  <unicode hex="0032"/>
  <outline>
    <contour>
      <point x="100" y="0" type="line"/>
      <point x="102" y="84" type="line"/>
      <point x="776" y="698" type="line" smooth="yes"/>
      <point x="868" y="781"/>
      <point x="922" y="934"/>
      <point x="922" y="1024" type="qcurve" smooth="yes"/>
      <point x="922" y="1124"/>
      <point x="824" y="1288"/>
      <point x="660" y="1386"/>
      <point x="560" y="1386" type="qcurve" smooth="yes"/>
      <point x="438" y="1386"/>
      <point x="274" y="1286"/>
      <point x="227" y="1204" type="qcurve" smooth="yes"/>
      <point x="195" y="1149"/>
      <point x="184" y="1088" type="qcurve"/>
      <point x="102" y="1103" type="line"/>
      <point x="115" y="1180"/>
      <point x="156" y="1249" type="qcurve" smooth="yes"/>
      <point x="216" y="1350"/>
      <point x="418" y="1470"/>
      <point x="560" y="1470" type="qcurve" smooth="yes"/>
      <point x="686" y="1470"/>
      <point x="888" y="1347"/>
      <point x="1006" y="1144"/>
      <point x="1006" y="1024" type="qcurve" smooth="yes"/>
      <point x="1006" y="942"/>
      <point x="971" y="808"/>
      <point x="894" y="692"/>
      <point x="832" y="636" type="qcurve" smooth="yes"/>
      <point x="160" y="24" type="line"/>
      <point x="136" y="84" type="line"/>
      <point x="1006" y="84" type="line"/>
      <point x="1006" y="0" type="line"/>
    </contour>
  </outline>
</glyph>
<glyph name="six" format="2">
  <advance width="1240"/>
  <unicode hex="0036"/>
  <outline>
    <contour>
      <point x="620" y="-30" type="qcurve" smooth="yes"/>
      <point x="488" y="-30"/>
      <point x="270" y="100"/>
      <point x="140" y="318"/>
      <point x="140" y="450" type="qcurve" smooth="yes"/>
      <point x="140" y="552"/>
      <point x="182" y="670"/>
      <point x="230" y="760" type="curve"/>
      <point x="670" y="1440" type="line"/>
      <point x="767" y="1440" type="line"/>
      <point x="230" y="626" type="line"/>
      <point x="192" y="664" type="line"/>
      <point x="255" y="781"/>
      <point x="481" y="930"/>
      <point x="620" y="930" type="qcurve" smooth="yes"/>
      <point x="752" y="930"/>
      <point x="970" y="800"/>
      <point x="1100" y="582"/>
      <point x="1100" y="450" type="qcurve" smooth="yes"/>
      <point x="1100" y="318"/>
      <point x="970" y="100"/>
      <point x="752" y="-30"/>
    </contour>
    <contour>
      <point x="620" y="54" type="qcurve" smooth="yes"/>
      <point x="730" y="54"/>
      <point x="910" y="160"/>
      <point x="1016" y="340"/>
      <point x="1016" y="450" type="qcurve" smooth="yes"/>
      <point x="1016" y="560"/>
      <point x="910" y="740"/>
      <point x="730" y="846"/>
      <point x="620" y="846" type="qcurve" smooth="yes"/>
      <point x="510" y="846"/>
      <point x="330" y="740"/>
      <point x="224" y="560"/>
      <point x="224" y="450" type="qcurve" smooth="yes"/>
      <point x="224" y="340"/>
      <point x="330" y="160"/>
      <point x="510" y="54"/>
    </contour>
  </outline>
</glyph>
<glyph name="nine" format="2">
  <advance width="1240"/>
  <unicode hex="0039"/>
  <outline>
    <contour>
      <point x="620" y="1470" type="qcurve" smooth="yes"/>
      <point x="752" y="1470"/>
      <point x="970" y="1340"/>
      <point x="1100" y="1122"/>
      <point x="1100" y="990" type="qcurve" smooth="yes"/>
      <point x="1100" y="952"/>
      <point x="1085" y="871"/>
      <point x="1061" y="790"/>
      <point x="1028" y="714"/>
      <point x="1010" y="680" type="qcurve"/>
      <point x="570" y="0" type="line"/>
      <point x="473" y="0" type="line"/>
      <point x="1010" y="814" type="line"/>
      <point x="1048" y="776" type="line"/>
      <point x="985" y="659"/>
      <point x="759" y="510"/>
      <point x="620" y="510" type="qcurve" smooth="yes"/>
      <point x="488" y="510"/>
      <point x="270" y="640"/>
      <point x="140" y="858"/>
      <point x="140" y="990" type="qcurve" smooth="yes"/>
      <point x="140" y="1122"/>
      <point x="270" y="1340"/>
      <point x="488" y="1470"/>
    </contour>
    <contour>
      <point x="620" y="1386" type="qcurve" smooth="yes"/>
      <point x="510" y="1386"/>
      <point x="330" y="1280"/>
      <point x="224" y="1100"/>
      <point x="224" y="990" type="qcurve" smooth="yes"/>
      <point x="224" y="880"/>
      <point x="330" y="700"/>
      <point x="510" y="594"/>
      <point x="620" y="594" type="qcurve" smooth="yes"/>
      <point x="730" y="594"/>
      <point x="910" y="700"/>
      <point x="1016" y="880"/>
      <point x="1016" y="990" type="qcurve" smooth="yes"/>
      <point x="1016" y="1100"/>
      <point x="910" y="1280"/>
      <point x="730" y="1386"/>
    </contour>
  </outline>
</glyph>
<glyph name="question" format="2">
  <advance width="1164"/>
  <unicode hex="003F"/>
  <outline>
    <contour>
      <point x="1105" y="1021" type="qcurve" smooth="yes"/>
      <point x="1105" y="919"/>
      <point x="1040" y="763"/>
      <point x="915" y="658"/>
      <point x="735" y="605"/>
      <point x="620" y="605" type="qcurve" smooth="yes"/>
      <point x="578" y="605" type="line"/>
      <point x="578" y="689" type="line"/>
      <point x="620" y="689" type="line" smooth="yes"/>
      <point x="820" y="689"/>
      <point x="1020" y="857"/>
      <point x="1020" y="1022" type="qcurve" smooth="yes"/>
      <point x="1020" y="1101"/>
      <point x="963" y="1235"/>
      <point x="858" y="1332"/>
      <point x="710" y="1386"/>
      <point x="620" y="1386" type="qcurve" smooth="yes"/>
      <point x="528" y="1386"/>
      <point x="387" y="1349"/>
      <point x="281" y="1271"/>
      <point x="206" y="1150"/>
      <point x="180" y="1066" type="qcurve"/>
      <point x="100" y="1082" type="line"/>
      <point x="124" y="1177"/>
      <point x="212" y="1321"/>
      <point x="340" y="1420"/>
      <point x="512" y="1470"/>
      <point x="620" y="1470" type="qcurve" smooth="yes"/>
      <point x="728" y="1470"/>
      <point x="907" y="1403"/>
      <point x="1034" y="1283"/>
      <point x="1105" y="1118"/>
    </contour>
    <contour>
      <point x="578" y="360" type="line"/>
      <point x="578" y="689" type="line"/>
      <point x="662" y="689" type="line"/>
      <point x="662" y="360" type="line"/>
    </contour>
    <contour>
      <point x="621" y="-6" type="qcurve" smooth="yes"/>
      <point x="590" y="-6"/>
      <point x="547" y="36"/>
      <point x="547" y="67" type="qcurve" smooth="yes"/>
      <point x="547" y="99"/>
      <point x="590" y="141"/>
      <point x="621" y="141" type="qcurve" smooth="yes"/>
      <point x="652" y="141"/>
      <point x="695" y="99"/>
      <point x="695" y="67" type="qcurve" smooth="yes"/>
      <point x="695" y="36"/>
      <point x="652" y="-6"/>
    </contour>
  </outline>
</glyph>
<glyph name="at" format="2">
  <advance width="1794"/>
  <unicode hex="0040"/>
  <outline>
    <contour>
      <point x="904" y="-210" type="qcurve" smooth="yes"/>
      <point x="749" y="-210"/>
      <point x="479" y="-97"/>
      <point x="275" y="106"/>
      <point x="160" y="380"/>
      <point x="160" y="540" type="qcurve" smooth="yes"/>
      <point x="160" y="692"/>
      <point x="265" y="963"/>
      <point x="462" y="1171"/>
      <point x="743" y="1290"/>
      <point x="918" y="1290" type="qcurve" smooth="yes"/>
      <point x="1106" y="1290"/>
      <point x="1385" y="1165"/>
      <point x="1564" y="955"/>
      <point x="1643" y="696"/>
      <point x="1632" y="562" type="qcurve" smooth="yes"/>
      <point x="1617" y="378"/>
      <point x="1451" y="202"/>
      <point x="1328" y="202" type="qcurve" smooth="yes"/>
      <point x="1229" y="202"/>
      <point x="1100" y="294"/>
      <point x="1080" y="376" type="qcurve"/>
      <point x="1118" y="368" type="line"/>
      <point x="1088" y="302"/>
      <point x="952" y="238"/>
      <point x="878" y="238" type="qcurve" smooth="yes"/>
      <point x="797" y="238"/>
      <point x="677" y="307"/>
      <point x="610" y="430"/>
      <point x="610" y="510" type="qcurve" smooth="yes"/>
      <point x="610" y="594"/>
      <point x="679" y="717"/>
      <point x="801" y="784"/>
      <point x="880" y="784" type="qcurve" smooth="yes"/>
      <point x="945" y="784"/>
      <point x="1082" y="729"/>
      <point x="1118" y="658" type="qcurve"/>
      <point x="1080" y="620" type="line"/>
      <point x="1080" y="756" type="line"/>
      <point x="1158" y="756" type="line"/>
      <point x="1158" y="466" type="line" smooth="yes"/>
      <point x="1158" y="393"/>
      <point x="1238" y="286"/>
      <point x="1338" y="286" type="qcurve" smooth="yes"/>
      <point x="1393" y="286"/>
      <point x="1483" y="348"/>
      <point x="1539" y="464"/>
      <point x="1544" y="546" type="qcurve" smooth="yes"/>
      <point x="1553" y="695"/>
      <point x="1472" y="937"/>
      <point x="1305" y="1112"/>
      <point x="1067" y="1206"/>
      <point x="918" y="1206" type="qcurve" smooth="yes"/>
      <point x="758" y="1206"/>
      <point x="510" y="1094"/>
      <point x="339" y="904"/>
      <point x="250" y="665"/>
      <point x="250" y="538" type="qcurve" smooth="yes"/>
      <point x="250" y="401"/>
      <point x="353" y="160"/>
      <point x="534" y="-23"/>
      <point x="774" y="-126"/>
      <point x="910" y="-126" type="qcurve" smooth="yes"/>
      <point x="1011" y="-126"/>
      <point x="1214" y="-69"/>
      <point x="1290" y="-18" type="qcurve"/>
      <point x="1326" y="-86" type="line"/>
      <point x="1229" y="-149"/>
      <point x="1014" y="-210"/>
    </contour>
    <contour>
      <point x="882" y="324" type="qcurve" smooth="yes"/>
      <point x="966" y="324"/>
      <point x="1068" y="422"/>
      <point x="1068" y="512" type="qcurve" smooth="yes"/>
      <point x="1068" y="607"/>
      <point x="963" y="702"/>
      <point x="882" y="702" type="qcurve" smooth="yes"/>
      <point x="792" y="702"/>
      <point x="694" y="604"/>
      <point x="694" y="512" type="qcurve" smooth="yes"/>
      <point x="694" y="418"/>
      <point x="797" y="324"/>
    </contour>
  </outline>
</glyph>
<glyph name="D" format="2">
  <advance width="1304"/>
  <unicode hex="0044"/>
  <outline>
    <contour>
      <point x="140" y="0" type="line"/>
      <point x="140" y="1440" type="line"/>
      <point x="562" y="1440" type="line" smooth="yes"/>
      <point x="588" y="1440"/>
      <point x="702" y="1438"/>
      <point x="754" y="1430" type="qcurve" smooth="yes"/>
      <point x="913" y="1407"/>
      <point x="1122" y="1209"/>
      <point x="1224" y="904"/>
      <point x="1224" y="720" type="qcurve" smooth="yes"/>
      <point x="1224" y="535"/>
      <point x="1122" y="230"/>
      <point x="913" y="33"/>
      <point x="754" y="10" type="qcurve" smooth="yes"/>
      <point x="703" y="3"/>
      <point x="586" y="0"/>
      <point x="562" y="0" type="qcurve" smooth="yes"/>
    </contour>
    <contour>
      <point x="230" y="84" type="line"/>
      <point x="562" y="84" type="line" smooth="yes"/>
      <point x="610" y="84"/>
      <point x="707" y="90"/>
      <point x="740" y="96" type="qcurve" smooth="yes"/>
      <point x="882" y="120"/>
      <point x="1055" y="291"/>
      <point x="1134" y="556"/>
      <point x="1134" y="720" type="qcurve" smooth="yes"/>
      <point x="1134" y="884"/>
      <point x="1055" y="1149"/>
      <point x="882" y="1320"/>
      <point x="740" y="1344" type="qcurve" smooth="yes"/>
      <point x="707" y="1350"/>
      <point x="607" y="1356"/>
      <point x="562" y="1356" type="qcurve" smooth="yes"/>
      <point x="230" y="1356" type="line"/>
    </contour>
  </outline>
</glyph>
<glyph name="F" format="2">
  <advance width="980"/>
  <unicode hex="0046"/>
  <outline>
    <contour>
      <point x="140" y="0" type="line"/>
      <point x="140" y="1440" type="line"/>
      <point x="940" y="1440" type="line"/>
      <point x="940" y="1356" type="line"/>
      <point x="224" y="1356" type="line"/>
      <point x="224" y="762" type="line"/>
      <point x="820" y="762" type="line"/>
      <point x="820" y="678" type="line"/>
      <point x="224" y="678" type="line"/>
      <point x="224" y="0" type="line"/>
    </contour>
  </outline>
</glyph>
<glyph name="H" format="2">
  <advance width="1320"/>
  <unicode hex="0048"/>
  <outline>
    <contour>
      <point x="140" y="0" type="line"/>
      <point x="140" y="1440" type="line"/>
      <point x="224" y="1440" type="line"/>
      <point x="224" y="762" type="line"/>
      <point x="1096" y="762" type="line"/>
      <point x="1096" y="1440" type="line"/>
      <point x="1180" y="1440" type="line"/>
      <point x="1180" y="0" type="line"/>
      <point x="1096" y="0" type="line"/>
      <point x="1096" y="678" type="line"/>
      <point x="224" y="678" type="line"/>
      <point x="224" y="0" type="line"/>
    </contour>
  </outline>
</glyph>
<glyph name="J" format="2">
  <advance width="878"/>
  <unicode hex="004A"/>
  <outline>
    <contour>
      <point x="358" y="-28" type="qcurve" smooth="yes"/>
      <point x="228" y="-28"/>
      <point x="30" y="124"/>
      <point x="0" y="250" type="qcurve"/>
      <point x="86" y="270" type="line"/>
      <point x="109" y="179"/>
      <point x="257" y="56"/>
      <point x="362" y="56" type="qcurve" smooth="yes"/>
      <point x="427" y="56"/>
      <point x="557" y="116"/>
      <point x="596" y="186" type="qcurve" smooth="yes"/>
      <point x="623" y="236"/>
      <point x="632" y="346"/>
      <point x="632" y="424" type="qcurve" smooth="yes"/>
      <point x="632" y="1440" type="line"/>
      <point x="716" y="1440" type="line"/>
      <point x="716" y="424" type="line" smooth="yes"/>
      <point x="716" y="369"/>
      <point x="714" y="274"/>
      <point x="695" y="186"/>
      <point x="670" y="142" type="qcurve" smooth="yes"/>
      <point x="622" y="58"/>
      <point x="457" y="-28"/>
    </contour>
  </outline>
</glyph>
<glyph name="K" format="2">
  <advance width="1116"/>
  <unicode hex="004B"/>
  <outline>
    <contour>
      <point x="937" y="1440" type="line"/>
      <point x="1052" y="1440" type="line"/>
      <point x="180" y="518" type="line"/>
      <point x="180" y="639" type="line"/>
    </contour>
    <contour>
      <point x="1001" y="0" type="line"/>
      <point x="386" y="782" type="line"/>
      <point x="460" y="828" type="line"/>
      <point x="1116" y="0" type="line"/>
    </contour>
    <contour>
      <point x="140" y="0" type="line"/>
      <point x="140" y="1440" type="line"/>
      <point x="224" y="1440" type="line"/>
      <point x="224" y="0" type="line"/>
    </contour>
  </outline>
</glyph>
<glyph name="L" format="2">
  <advance width="990"/>
  <unicode hex="004C"/>
  <outline>
    <contour>
      <point x="160" y="0" type="line"/>
      <point x="160" y="1440" type="line"/>
      <point x="244" y="1440" type="line"/>
      <point x="244" y="84" type="line"/>
      <point x="960" y="84" type="line"/>
      <point x="960" y="0" type="line"/>
    </contour>
  </outline>
</glyph>
<glyph name="N" format="2">
  <advance width="1324"/>
  <unicode hex="004E"/>
  <outline>
    <contour>
      <point x="140" y="0" type="line"/>
      <point x="140" y="1440" type="line"/>
      <point x="224" y="1440" type="line"/>
      <point x="1100" y="150" type="line"/>
      <point x="1100" y="1440" type="line"/>
      <point x="1184" y="1440" type="line"/>
      <point x="1184" y="0" type="line"/>
      <point x="1100" y="0" type="line"/>
      <point x="224" y="1292" type="line"/>
      <point x="224" y="0" type="line"/>
    </contour>
  </outline>
</glyph>
<glyph name="P" format="2">
  <advance width="1162"/>
  <unicode hex="0050"/>
  <outline>
    <contour>
      <point x="140" y="0" type="line"/>
      <point x="140" y="1440" type="line"/>
      <point x="670" y="1440" type="line" smooth="yes"/>
      <point x="691" y="1440"/>
      <point x="735" y="1437"/>
      <point x="762" y="1432" type="qcurve"/>
      <point x="866" y="1416"/>
      <point x="1019" y="1297"/>
      <point x="1102" y="1116"/>
      <point x="1102" y="1008" type="qcurve" smooth="yes"/>
      <point x="1102" y="900"/>
      <point x="1019" y="719"/>
      <point x="866" y="600"/>
      <point x="762" y="584" type="qcurve" smooth="yes"/>
      <point x="735" y="580"/>
      <point x="691" y="576"/>
      <point x="670" y="576" type="qcurve" smooth="yes"/>
      <point x="224" y="576" type="line"/>
      <point x="224" y="0" type="line"/>
    </contour>
    <contour>
      <point x="224" y="660" type="line"/>
      <point x="670" y="660" type="line" smooth="yes"/>
      <point x="687" y="660"/>
      <point x="734" y="664"/>
      <point x="758" y="668" type="qcurve" smooth="yes"/>
      <point x="841" y="684"/>
      <point x="954" y="784"/>
      <point x="1012" y="927"/>
      <point x="1012" y="1008" type="qcurve" smooth="yes"/>
      <point x="1012" y="1089"/>
      <point x="954" y="1232"/>
      <point x="841" y="1332"/>
      <point x="758" y="1348" type="qcurve" smooth="yes"/>
      <point x="734" y="1353"/>
      <point x="687" y="1356"/>
      <point x="670" y="1356" type="qcurve" smooth="yes"/>
      <point x="224" y="1356" type="line"/>
    </contour>
  </outline>
</glyph>
<glyph name="Q" format="2">
  <advance width="1412"/>
  <unicode hex="0051"/>
  <outline>
    <contour>
      <point x="1139" y="160" type="line"/>
      <point x="1151" y="140" type="line" smooth="yes"/>
      <point x="1188" y="76"/>
      <point x="1307" y="5"/>
      <point x="1392" y="-2" type="qcurve"/>
      <point x="1377" y="-90" type="line"/>
      <point x="1340" y="-85"/>
      <point x="1273" y="-69"/>
      <point x="1244" y="-56" type="qcurve" smooth="yes"/>
      <point x="1199" y="-37"/>
      <point x="1128" y="19"/>
      <point x="1101" y="57" type="qcurve"/>
      <point x="1096" y="63"/>
      <point x="1088" y="76"/>
      <point x="1084" y="83" type="qcurve" smooth="yes"/>
      <point x="1062" y="120" type="line"/>
    </contour>
    <contour>
      <point x="706" y="-30" type="qcurve" smooth="yes"/>
      <point x="625" y="-30"/>
      <point x="485" y="-3"/>
      <point x="424" y="26" type="qcurve" smooth="yes"/>
      <point x="363" y="54"/>
      <point x="263" y="130"/>
      <point x="222" y="180" type="qcurve" smooth="yes"/>
      <point x="181" y="230"/>
      <point x="121" y="348"/>
      <point x="101" y="417" type="qcurve" smooth="yes"/>
      <point x="81" y="486"/>
      <point x="60" y="637"/>
      <point x="60" y="720" type="qcurve" smooth="yes"/>
      <point x="60" y="803"/>
      <point x="81" y="954"/>
      <point x="101" y="1023" type="qcurve" smooth="yes"/>
      <point x="121" y="1092"/>
      <point x="181" y="1210"/>
      <point x="222" y="1260" type="qcurve" smooth="yes"/>
      <point x="263" y="1310"/>
      <point x="363" y="1387"/>
      <point x="424" y="1415" type="qcurve" smooth="yes"/>
      <point x="485" y="1443"/>
      <point x="625" y="1470"/>
      <point x="706" y="1470" type="qcurve" smooth="yes"/>
      <point x="787" y="1470"/>
      <point x="927" y="1443"/>
      <point x="988" y="1415" type="qcurve" smooth="yes"/>
      <point x="1049" y="1387"/>
      <point x="1149" y="1310"/>
      <point x="1190" y="1260" type="qcurve" smooth="yes"/>
      <point x="1231" y="1210"/>
      <point x="1292" y="1092"/>
      <point x="1312" y="1023" type="qcurve" smooth="yes"/>
      <point x="1332" y="954"/>
      <point x="1352" y="803"/>
      <point x="1352" y="720" type="qcurve" smooth="yes"/>
      <point x="1352" y="637"/>
      <point x="1332" y="486"/>
      <point x="1312" y="417" type="qcurve" smooth="yes"/>
      <point x="1292" y="348"/>
      <point x="1231" y="230"/>
      <point x="1190" y="180" type="qcurve" smooth="yes"/>
      <point x="1149" y="130"/>
      <point x="1049" y="54"/>
      <point x="988" y="26" type="qcurve" smooth="yes"/>
      <point x="927" y="-3"/>
      <point x="787" y="-30"/>
    </contour>
    <contour>
      <point x="706" y="54" type="qcurve" smooth="yes"/>
      <point x="776" y="54"/>
      <point x="897" y="78"/>
      <point x="949" y="103" type="qcurve" smooth="yes"/>
      <point x="1001" y="128"/>
      <point x="1088" y="196"/>
      <point x="1123" y="241" type="qcurve" smooth="yes"/>
      <point x="1158" y="286"/>
      <point x="1210" y="390"/>
      <point x="1227" y="452" type="qcurve" smooth="yes"/>
      <point x="1244" y="513"/>
      <point x="1262" y="647"/>
      <point x="1262" y="720" type="qcurve" smooth="yes"/>
      <point x="1262" y="793"/>
      <point x="1244" y="927"/>
      <point x="1227" y="989" type="qcurve" smooth="yes"/>
      <point x="1210" y="1050"/>
      <point x="1158" y="1155"/>
      <point x="1123" y="1200" type="qcurve" smooth="yes"/>
      <point x="1088" y="1245"/>
      <point x="1001" y="1312"/>
      <point x="949" y="1337" type="qcurve" smooth="yes"/>
      <point x="897" y="1362"/>
      <point x="776" y="1386"/>
      <point x="706" y="1386" type="qcurve" smooth="yes"/>
      <point x="636" y="1386"/>
      <point x="516" y="1362"/>
      <point x="464" y="1337" type="qcurve" smooth="yes"/>
      <point x="412" y="1312"/>
      <point x="326" y="1245"/>
      <point x="291" y="1200" type="qcurve" smooth="yes"/>
      <point x="256" y="1155"/>
      <point x="204" y="1050"/>
      <point x="187" y="989" type="qcurve" smooth="yes"/>
      <point x="170" y="927"/>
      <point x="151" y="793"/>
      <point x="150" y="720" type="qcurve"/>
      <point x="150" y="712" type="line" smooth="yes"/>
      <point x="150" y="641"/>
      <point x="167" y="511"/>
      <point x="184" y="450" type="qcurve" smooth="yes"/>
      <point x="201" y="389"/>
      <point x="253" y="286"/>
      <point x="288" y="241" type="qcurve" smooth="yes"/>
      <point x="323" y="196"/>
      <point x="410" y="128"/>
      <point x="463" y="103" type="qcurve" smooth="yes"/>
      <point x="515" y="78"/>
      <point x="636" y="54"/>
    </contour>
  </outline>
</glyph>
<glyph name="V" format="2">
  <advance width="1158"/>
  <unicode hex="0056"/>
  <outline>
    <contour>
      <point x="534" y="0" type="line"/>
      <point x="10" y="1440" type="line"/>
      <point x="100" y="1440" type="line"/>
      <point x="578" y="122" type="line"/>
      <point x="1058" y="1440" type="line"/>
      <point x="1148" y="1440" type="line"/>
      <point x="624" y="0" type="line"/>
    </contour>
  </outline>
</glyph>
<glyph name="Y" format="2">
  <advance width="1038"/>
  <unicode hex="0059"/>
  <outline>
    <contour>
      <point x="478" y="0" type="line"/>
      <point x="478" y="612" type="line"/>
      <point x="0" y="1440" type="line"/>
      <point x="96" y="1440" type="line"/>
      <point x="520" y="708" type="line"/>
      <point x="942" y="1440" type="line"/>
      <point x="1038" y="1440" type="line"/>
      <point x="562" y="612" type="line"/>
      <point x="562" y="0" type="line"/>
    </contour>
  </outline>
</glyph>
<glyph name="c" format="2">
  <advance width="1078"/>
  <unicode hex="0063"/>
  <outline>
    <contour>
      <point x="574" y="-30" type="qcurve" smooth="yes"/>
      <point x="413" y="-30"/>
      <point x="195" y="114"/>
      <point x="83" y="371"/>
      <point x="80" y="540" type="qcurve"/>
      <point x="83" y="713"/>
      <point x="196" y="969"/>
      <point x="414" y="1110"/>
      <point x="574" y="1110" type="qcurve" smooth="yes"/>
      <point x="724" y="1110"/>
      <point x="959" y="967"/>
      <point x="1008" y="842" type="qcurve"/>
      <point x="928" y="808" type="line"/>
      <point x="883" y="912"/>
      <point x="696" y="1026"/>
      <point x="574" y="1026" type="qcurve" smooth="yes"/>
      <point x="438" y="1026"/>
      <point x="260" y="903"/>
      <point x="172" y="684"/>
      <point x="170" y="540" type="qcurve"/>
      <point x="173" y="320"/>
      <point x="375" y="54"/>
      <point x="574" y="54" type="qcurve" smooth="yes"/>
      <point x="693" y="54"/>
      <point x="877" y="164"/>
      <point x="926" y="270" type="qcurve"/>
      <point x="1008" y="234" type="line"/>
      <point x="941" y="104"/>
      <point x="721" y="-30"/>
    </contour>
  </outline>
</glyph>
<glyph name="f" format="2">
  <advance width="678"/>
  <unicode hex="0066"/>
  <outline>
    <contour>
      <point x="256" y="0" type="line"/>
      <point x="256" y="1202" type="line" smooth="yes"/>
      <point x="256" y="1244"/>
      <point x="267" y="1315"/>
      <point x="295" y="1375"/>
      <point x="320" y="1402" type="qcurve" smooth="yes"/>
      <point x="344" y="1427"/>
      <point x="403" y="1457"/>
      <point x="475" y="1470"/>
      <point x="518" y="1470" type="qcurve" smooth="yes"/>
      <point x="658" y="1470" type="line"/>
      <point x="658" y="1394" type="line"/>
      <point x="528" y="1394" type="line" smooth="yes"/>
      <point x="434" y="1394"/>
      <point x="340" y="1304"/>
      <point x="340" y="1194" type="qcurve" smooth="yes"/>
      <point x="340" y="0" type="line"/>
    </contour>
    <contour>
      <point x="60" y="996" type="line"/>
      <point x="60" y="1080" type="line"/>
      <point x="658" y="1080" type="line"/>
      <point x="658" y="996" type="line"/>
    </contour>
  </outline>
</glyph>
<glyph name="k" format="2">
  <advance width="936"/>
  <unicode hex="006B"/>
  <outline>
    <contour>
      <point x="140" y="0" type="line"/>
      <point x="140" y="1440" type="line"/>
      <point x="224" y="1440" type="line"/>
      <point x="224" y="0" type="line"/>
    </contour>
    <contour>
      <point x="774" y="1080" type="line"/>
      <point x="890" y="1080" type="line"/>
      <point x="176" y="421" type="line"/>
      <point x="176" y="528" type="line"/>
    </contour>
    <contour>
      <point x="295" y="591" type="line"/>
      <point x="366" y="646" type="line"/>
      <point x="912" y="0" type="line"/>
      <point x="795" y="0" type="line"/>
    </contour>
  </outline>
</glyph>
<glyph name="l" format="2">
  <advance width="504"/>
  <unicode hex="006C"/>
  <outline>
    <contour>
      <point x="454" y="84" type="curve"/>
      <point x="454" y="0" type="line"/>
      <point x="401" y="0" type="line" smooth="yes"/>
      <point x="253" y="0"/>
      <point x="160" y="93"/>
      <point x="160" y="241" type="curve" smooth="yes"/>
      <point x="160" y="270"/>
      <point x="160" y="298"/>
      <point x="160" y="327" type="curve" smooth="yes"/>
      <point x="160" y="1440" type="line"/>
      <point x="244" y="1440" type="line"/>
      <point x="244" y="455" type="line" smooth="yes"/>
      <point x="244" y="395"/>
      <point x="244" y="336"/>
      <point x="244" y="276" type="curve" smooth="yes"/>
      <point x="244" y="155"/>
      <point x="277" y="108"/>
      <point x="357" y="91" type="curve"/>
      <point x="384" y="86"/>
      <point x="416" y="84"/>
    </contour>
  </outline>
</glyph>
<glyph name="m" format="2">
  <advance width="1628"/>
  <unicode hex="006D"/>
  <outline>
    <contour>
      <point x="1422" y="0" type="line"/>
      <point x="1424" y="744" type="line" smooth="yes"/>
      <point x="1424" y="879"/>
      <point x="1266" y="1034"/>
      <point x="1150" y="1034" type="qcurve" smooth="yes"/>
      <point x="1086" y="1034"/>
      <point x="955" y="976"/>
      <point x="866" y="838"/>
      <point x="866" y="718" type="qcurve"/>
      <point x="792" y="718" type="line"/>
      <point x="787" y="837"/>
      <point x="880" y="1013"/>
      <point x="1048" y="1110"/>
      <point x="1156" y="1110" type="qcurve" smooth="yes"/>
      <point x="1309" y="1110"/>
      <point x="1508" y="918"/>
      <point x="1508" y="750" type="qcurve" smooth="yes"/>
      <point x="1506" y="0" type="line"/>
    </contour>
    <contour>
      <point x="140" y="0" type="line"/>
      <point x="140" y="1080" type="line"/>
      <point x="218" y="1080" type="line"/>
      <point x="218" y="860" type="line"/>
      <point x="224" y="860" type="line"/>
      <point x="224" y="0" type="line"/>
    </contour>
    <contour>
      <point x="782" y="0" type="line"/>
      <point x="784" y="730" type="line" smooth="yes"/>
      <point x="784" y="870"/>
      <point x="629" y="1034"/>
      <point x="506" y="1034" type="qcurve" smooth="yes"/>
      <point x="380" y="1034"/>
      <point x="224" y="862"/>
      <point x="224" y="718" type="qcurve"/>
      <point x="150" y="750" type="line"/>
      <point x="150" y="854"/>
      <point x="244" y="1017"/>
      <point x="409" y="1110"/>
      <point x="516" y="1110" type="qcurve" smooth="yes"/>
      <point x="607" y="1110"/>
      <point x="767" y="1033"/>
      <point x="866" y="871"/>
      <point x="866" y="744" type="qcurve" smooth="yes"/>
      <point x="864" y="0" type="line"/>
    </contour>
  </outline>
</glyph>
<glyph name="y" format="2">
  <advance width="1074"/>
  <unicode hex="0079"/>
  <outline>
    <contour>
      <point x="578" y="80" type="line"/>
      <point x="132" y="1080" type="line"/>
      <point x="40" y="1080" type="line"/>
      <point x="520" y="0" type="line"/>
      <point x="546" y="0" type="line"/>
      <point x="456" y="-236"/>
      <point x="422" y="-326"/>
      <point x="374" y="-364" type="curve" smooth="yes"/>
      <point x="332" y="-396"/>
      <point x="296" y="-396"/>
      <point x="220" y="-392" type="curve"/>
      <point x="220" y="-478" type="line"/>
      <point x="320" y="-480"/>
      <point x="358" y="-478"/>
      <point x="408" y="-444" type="curve" smooth="yes"/>
      <point x="460" y="-410"/>
      <point x="500" y="-352"/>
      <point x="540" y="-246" type="curve"/>
      <point x="1054" y="1078" type="line"/>
      <point x="964" y="1078" type="line"/>
    </contour>
  </outline>
</glyph>
<glyph name="braceleft" format="2">
  <advance width="799"/>
  <unicode hex="007B"/>
  <outline>
    <contour>
      <point x="601" y="-444" type="line" smooth="yes"/>
      <point x="514" y="-444"/>
      <point x="391" y="-321"/>
      <point x="391" y="-236" type="qcurve" smooth="yes"/>
      <point x="391" y="450" type="line" smooth="yes"/>
      <point x="391" y="487"/>
      <point x="369" y="522" type="qcurve"/>
      <point x="287" y="636" type="line"/>
      <point x="280" y="647"/>
      <point x="280" y="674"/>
      <point x="287" y="684" type="qcurve" smooth="yes"/>
      <point x="369" y="798" type="line"/>
      <point x="391" y="833"/>
      <point x="391" y="870" type="qcurve" smooth="yes"/>
      <point x="391" y="1554" type="line" smooth="yes"/>
      <point x="391" y="1641"/>
      <point x="514" y="1764"/>
      <point x="601" y="1764" type="qcurve" smooth="yes"/>
      <point x="709" y="1764" type="line"/>
      <point x="709" y="1680" type="line"/>
      <point x="601" y="1680" type="line" smooth="yes"/>
      <point x="549" y="1680"/>
      <point x="475" y="1607"/>
      <point x="475" y="1554" type="qcurve" smooth="yes"/>
      <point x="475" y="870" type="line" smooth="yes"/>
      <point x="475" y="803"/>
      <point x="437" y="750" type="qcurve" smooth="yes"/>
      <point x="373" y="660" type="line"/>
      <point x="437" y="570" type="line" smooth="yes"/>
      <point x="475" y="517"/>
      <point x="475" y="450" type="qcurve" smooth="yes"/>
      <point x="475" y="-236" type="line" smooth="yes"/>
      <point x="475" y="-287"/>
      <point x="549" y="-360"/>
      <point x="601" y="-360" type="qcurve" smooth="yes"/>
      <point x="709" y="-360" type="line"/>
      <point x="709" y="-444" type="line"/>
    </contour>
  </outline>
</glyph>
<glyph name="asciitilde" format="2">
  <advance width="1252"/>
  <unicode hex="007E"/>
  <outline>
    <contour>
      <point x="822" y="504" type="qcurve" smooth="yes"/>
      <point x="767" y="504"/>
      <point x="661" y="545"/>
      <point x="560" y="598"/>
      <point x="467" y="639"/>
      <point x="424" y="639" type="qcurve" smooth="yes"/>
      <point x="363" y="639"/>
      <point x="333" y="556"/>
      <point x="348" y="518" type="qcurve"/>
      <point x="247" y="518" type="line"/>
      <point x="230" y="583"/>
      <point x="269" y="689"/>
      <point x="362" y="752"/>
      <point x="427" y="752" type="qcurve" smooth="yes"/>
      <point x="483" y="752"/>
      <point x="591" y="711"/>
      <point x="692" y="657"/>
      <point x="785" y="616"/>
      <point x="828" y="616" type="qcurve" smooth="yes"/>
      <point x="880" y="616"/>
      <point x="921" y="695"/>
      <point x="904" y="743" type="qcurve"/>
      <point x="1005" y="743" type="line"/>
      <point x="1022" y="680"/>
      <point x="984" y="571"/>
      <point x="890" y="504"/>
    </contour>
  </outline>
</glyph>
<glyph name="cent" format="2">
  <advance width="1078"/>
  <unicode hex="00A2"/>
  <outline>
    <contour>
      <point x="534" y="-60" type="line"/>
      <point x="534" y="122" type="line"/>
      <point x="386" y="131"/>
      <point x="186" y="279"/>
      <point x="83" y="528"/>
      <point x="80" y="690" type="qcurve"/>
      <point x="83" y="856"/>
      <point x="187" y="1105"/>
      <point x="387" y="1249"/>
      <point x="534" y="1258" type="qcurve"/>
      <point x="534" y="1440" type="line"/>
      <point x="618" y="1440" type="line"/>
      <point x="618" y="1258" type="line"/>
      <point x="753" y="1248"/>
      <point x="962" y="1108"/>
      <point x="1008" y="992" type="qcurve"/>
      <point x="928" y="958" type="line"/>
      <point x="883" y="1062"/>
      <point x="696" y="1176"/>
      <point x="574" y="1176" type="qcurve" smooth="yes"/>
      <point x="438" y="1176"/>
      <point x="260" y="1053"/>
      <point x="172" y="834"/>
      <point x="170" y="690" type="qcurve"/>
      <point x="173" y="470"/>
      <point x="375" y="204"/>
      <point x="574" y="204" type="qcurve" smooth="yes"/>
      <point x="693" y="204"/>
      <point x="877" y="314"/>
      <point x="926" y="420" type="qcurve"/>
      <point x="1008" y="384" type="line"/>
      <point x="945" y="264"/>
      <point x="749" y="131"/>
      <point x="618" y="122" type="qcurve"/>
      <point x="618" y="-60" type="line"/>
    </contour>
  </outline>
</glyph>
<glyph name="sterling" format="2">
  <advance width="1142"/>
  <unicode hex="00A3"/>
  <outline>
    <contour>
      <point x="60" y="0" type="line"/>
      <point x="60" y="84" type="line"/>
      <point x="212" y="84" type="line" smooth="yes"/>
      <point x="269" y="84"/>
      <point x="350" y="165"/>
      <point x="350" y="222" type="qcurve" smooth="yes"/>
      <point x="350" y="1100" type="line" smooth="yes"/>
      <point x="350" y="1210"/>
      <point x="443" y="1377"/>
      <point x="605" y="1470"/>
      <point x="708" y="1470" type="qcurve" smooth="yes"/>
      <point x="795" y="1470"/>
      <point x="935" y="1394"/>
      <point x="1043" y="1239"/>
      <point x="1082" y="1122" type="qcurve"/>
      <point x="1002" y="1096" type="line"/>
      <point x="953" y="1246"/>
      <point x="810" y="1386"/>
      <point x="706" y="1386" type="qcurve" smooth="yes"/>
      <point x="583" y="1386"/>
      <point x="434" y="1231"/>
      <point x="434" y="1100" type="qcurve" smooth="yes"/>
      <point x="434" y="84" type="line"/>
      <point x="1056" y="84" type="line"/>
      <point x="1056" y="0" type="line"/>
    </contour>
    <contour>
      <point x="60" y="694" type="line"/>
      <point x="60" y="778" type="line"/>
      <point x="838" y="778" type="line"/>
      <point x="838" y="694" type="line"/>
    </contour>
  </outline>
</glyph>
<glyph name="brokenbar" format="2">
  <advance width="444"/>
  <unicode hex="00A6"/>
  <outline>
    <contour>
      <point x="180" y="752" type="line"/>
      <point x="180" y="1440" type="line"/>
      <point x="264" y="1440" type="line"/>
      <point x="264" y="752" type="line"/>
    </contour>
    <contour>
      <point x="180" y="-248" type="line"/>
      <point x="180" y="440" type="line"/>
      <point x="264" y="440" type="line"/>
      <point x="264" y="-248" type="line"/>
    </contour>
  </outline>
</glyph>
<glyph name="section" format="2">
  <advance width="1028"/>
  <unicode hex="00A7"/>
  <outline>
    <contour>
      <point x="542" y="-328" type="qcurve" smooth="yes"/>
      <point x="452" y="-328"/>
      <point x="275" y="-271"/>
      <point x="143" y="-144"/>
      <point x="120" y="-40" type="qcurve"/>
      <point x="206" y="-24" type="line"/>
      <point x="228" y="-105"/>
      <point x="341" y="-201"/>
      <point x="481" y="-244"/>
      <point x="544" y="-244" type="qcurve" smooth="yes"/>
      <point x="621" y="-244"/>
      <point x="754" y="-190"/>
      <point x="836" y="-86"/>
      <point x="836" y="-10" type="qcurve" smooth="yes"/>
      <point x="836" y="62"/>
      <point x="755" y="142"/>
      <point x="599" y="195"/>
      <point x="486" y="226" type="qcurve" smooth="yes"/>
      <point x="373" y="257"/>
      <point x="195" y="322"/>
      <point x="92" y="427"/>
      <point x="92" y="518" type="qcurve" smooth="yes"/>
      <point x="92" y="615"/>
      <point x="204" y="743"/>
      <point x="378" y="796"/>
      <point x="472" y="782" type="qcurve"/>
      <point x="466" y="766" type="line"/>
      <point x="346" y="738"/>
      <point x="180" y="614"/>
      <point x="180" y="522" type="qcurve" smooth="yes"/>
      <point x="180" y="456"/>
      <point x="269" y="378"/>
      <point x="419" y="329"/>
      <point x="510" y="306" type="qcurve" smooth="yes"/>
      <point x="628" y="276"/>
      <point x="816" y="209"/>
      <point x="926" y="92"/>
      <point x="926" y="-14" type="qcurve" smooth="yes"/>
      <point x="926" y="-117"/>
      <point x="822" y="-257"/>
      <point x="648" y="-328"/>
    </contour>
    <contour>
      <point x="614" y="232" type="qcurve"/>
      <point x="616" y="256" type="line"/>
      <point x="678" y="256"/>
      <point x="798" y="310"/>
      <point x="876" y="414"/>
      <point x="876" y="490" type="qcurve" smooth="yes"/>
      <point x="876" y="562"/>
      <point x="795" y="642"/>
      <point x="639" y="695"/>
      <point x="526" y="726" type="qcurve" smooth="yes"/>
      <point x="413" y="757"/>
      <point x="235" y="822"/>
      <point x="132" y="927"/>
      <point x="132" y="1018" type="qcurve" smooth="yes"/>
      <point x="132" y="1115"/>
      <point x="244" y="1245"/>
      <point x="416" y="1310"/>
      <point x="506" y="1310" type="qcurve" smooth="yes"/>
      <point x="611" y="1310"/>
      <point x="786" y="1230"/>
      <point x="898" y="1089"/>
      <point x="908" y="998" type="qcurve"/>
      <point x="822" y="982" type="line"/>
      <point x="805" y="1075"/>
      <point x="696" y="1181"/>
      <point x="557" y="1226"/>
      <point x="496" y="1226" type="qcurve" smooth="yes"/>
      <point x="422" y="1226"/>
      <point x="296" y="1175"/>
      <point x="220" y="1083"/>
      <point x="220" y="1022" type="qcurve" smooth="yes"/>
      <point x="220" y="956"/>
      <point x="309" y="878"/>
      <point x="459" y="829"/>
      <point x="550" y="806" type="qcurve" smooth="yes"/>
      <point x="668" y="776"/>
      <point x="856" y="709"/>
      <point x="966" y="592"/>
      <point x="966" y="486" type="qcurve" smooth="yes"/>
      <point x="966" y="383"/>
      <point x="866" y="248"/>
      <point x="705" y="202"/>
    </contour>
  </outline>
</glyph>
<glyph name="logicalnot" format="2">
  <advance width="1200"/>
  <unicode hex="00AC"/>
  <outline>
    <contour>
      <point x="996" y="402" type="line"/>
      <point x="996" y="658" type="line"/>
      <point x="120" y="658" type="line"/>
      <point x="120" y="742" type="line"/>
      <point x="1080" y="742" type="line"/>
      <point x="1080" y="402" type="line"/>
    </contour>
  </outline>
</glyph>
<glyph name="macron" format="2">
  <advance width="960"/>
  <unicode hex="00AF"/>
  <outline>
    <contour>
      <point x="240" y="1680" type="line"/>
      <point x="240" y="1764" type="line"/>
      <point x="720" y="1764" type="line"/>
      <point x="720" y="1680" type="line"/>
    </contour>
  </outline>
</glyph>
<glyph name="plusminus" format="2">
  <advance width="1200"/>
  <unicode hex="00B1"/>
  <outline>
    <contour>
      <point x="558" y="440" type="line"/>
      <point x="558" y="718" type="line"/>
      <point x="120" y="718" type="line"/>
      <point x="120" y="802" type="line"/>
      <point x="558" y="802" type="line"/>
      <point x="558" y="1080" type="line"/>
      <point x="642" y="1080" type="line"/>
      <point x="642" y="802" type="line"/>
      <point x="1080" y="802" type="line"/>
      <point x="1080" y="718" type="line"/>
      <point x="642" y="718" type="line"/>
      <point x="642" y="440" type="line"/>
    </contour>
    <contour>
      <point x="120" y="176" type="line"/>
      <point x="120" y="260" type="line"/>
      <point x="1080" y="260" type="line"/>
      <point x="1080" y="176" type="line"/>
    </contour>
  </outline>
</glyph>
<glyph name="twosuperior" format="2">
  <advance width="784"/>
  <unicode hex="00B2"/>
  <outline>
    <contour>
      <point x="100" y="540" type="line"/>
      <point x="102" y="616" type="line"/>
      <point x="512" y="990" type="line"/>
      <point x="566" y="1038"/>
      <point x="600" y="1126"/>
      <point x="600" y="1174" type="qcurve" smooth="yes"/>
      <point x="600" y="1261"/>
      <point x="482" y="1382"/>
      <point x="396" y="1382" type="qcurve" smooth="yes"/>
      <point x="337" y="1382"/>
      <point x="236" y="1324"/>
      <point x="209" y="1277" type="qcurve" smooth="yes"/>
      <point x="191" y="1245"/>
      <point x="185" y="1210" type="qcurve"/>
      <point x="102" y="1222" type="line"/>
      <point x="110" y="1276"/>
      <point x="138" y="1322" type="qcurve" smooth="yes"/>
      <point x="176" y="1386"/>
      <point x="314" y="1460"/>
      <point x="396" y="1460" type="qcurve" smooth="yes"/>
      <point x="478" y="1460"/>
      <point x="608" y="1383"/>
      <point x="684" y="1253"/>
      <point x="684" y="1174" type="qcurve" smooth="yes"/>
      <point x="684" y="1119"/>
      <point x="657" y="1035"/>
      <point x="602" y="962"/>
      <point x="560" y="924" type="qcurve" smooth="yes"/>
      <point x="160" y="560" type="line"/>
      <point x="136" y="620" type="line"/>
      <point x="684" y="620" type="line"/>
      <point x="684" y="540" type="line"/>
    </contour>
  </outline>
</glyph>
<glyph name="acute" format="2">
  <advance width="914"/>
  <unicode hex="00B4"/>
  <outline>
    <contour>
      <point x="463" y="1890" type="line"/>
      <point x="397" y="1620" type="line"/>
      <point x="463" y="1620" type="line"/>
      <point x="559" y="1890" type="line"/>
    </contour>
  </outline>
</glyph>
<glyph name="ordmasculine" format="2">
  <advance width="700"/>
  <unicode hex="00BA"/>
  <outline>
    <contour>
      <point x="350" y="786" type="qcurve" smooth="yes"/>
      <point x="254" y="786"/>
      <point x="119" y="874"/>
      <point x="48" y="1028"/>
      <point x="48" y="1129" type="qcurve" smooth="yes"/>
      <point x="48" y="1231"/>
      <point x="120" y="1385"/>
      <point x="256" y="1470"/>
      <point x="350" y="1470" type="qcurve" smooth="yes"/>
      <point x="446" y="1470"/>
      <point x="581" y="1383"/>
      <point x="652" y="1229"/>
      <point x="652" y="1129" type="qcurve" smooth="yes"/>
      <point x="652" y="1027"/>
      <point x="581" y="872"/>
      <point x="446" y="786"/>
    </contour>
    <contour>
      <point x="350" y="854" type="qcurve" smooth="yes"/>
      <point x="464" y="854"/>
      <point x="577" y="1007"/>
      <point x="577" y="1129" type="qcurve" smooth="yes"/>
      <point x="577" y="1253"/>
      <point x="464" y="1402"/>
      <point x="350" y="1402" type="qcurve" smooth="yes"/>
      <point x="273" y="1402"/>
      <point x="172" y="1332"/>
      <point x="123" y="1209"/>
      <point x="123" y="1129" type="qcurve" smooth="yes"/>
      <point x="123" y="1005"/>
      <point x="238" y="854"/>
    </contour>
    <contour>
      <point x="50" y="650" type="line"/>
      <point x="50" y="726" type="line"/>
      <point x="652" y="726" type="line"/>
      <point x="652" y="650" type="line"/>
    </contour>
  </outline>
</glyph>
<glyph name="onequarter" format="2">
  <advance width="1864"/>
  <unicode hex="00BC"/>
  <outline>
    <contour>
      <point x="290" y="540" type="line"/>
      <point x="290" y="1348" type="line"/>
      <point x="120" y="1246" type="line"/>
      <point x="120" y="1338" type="line"/>
      <point x="290" y="1440" type="line"/>
      <point x="372" y="1440" type="line"/>
      <point x="372" y="540" type="line"/>
    </contour>
    <contour>
      <point x="1442" y="0" type="line"/>
      <point x="1442" y="178" type="line"/>
      <point x="1016" y="178" type="line"/>
      <point x="1016" y="258" type="line"/>
      <point x="1320" y="900" type="line"/>
      <point x="1412" y="900" type="line"/>
      <point x="1108" y="258" type="line"/>
      <point x="1442" y="258" type="line"/>
      <point x="1442" y="526" type="line"/>
      <point x="1524" y="526" type="line"/>
      <point x="1524" y="258" type="line"/>
      <point x="1624" y="258" type="line"/>
      <point x="1624" y="178" type="line"/>
      <point x="1524" y="178" type="line"/>
      <point x="1524" y="0" type="line"/>
    </contour>
    <contour>
      <point x="286" y="0" type="line"/>
      <point x="212" y="60" type="line"/>
      <point x="1306" y="1440" type="line"/>
      <point x="1378" y="1382" type="line"/>
    </contour>
  </outline>
</glyph>
<glyph name="onehalf" format="2">
  <advance width="1762"/>
  <unicode hex="00BD"/>
  <outline>
    <contour>
      <point x="290" y="540" type="line"/>
      <point x="290" y="1348" type="line"/>
      <point x="120" y="1246" type="line"/>
      <point x="120" y="1338" type="line"/>
      <point x="290" y="1440" type="line"/>
      <point x="372" y="1440" type="line"/>
      <point x="372" y="540" type="line"/>
    </contour>
    <contour>
      <point x="1078" y="0" type="line"/>
      <point x="1080" y="76" type="line"/>
      <point x="1490" y="450" type="line" smooth="yes"/>
      <point x="1544" y="498"/>
      <point x="1578" y="586"/>
      <point x="1578" y="634" type="qcurve" smooth="yes"/>
      <point x="1578" y="721"/>
      <point x="1460" y="842"/>
      <point x="1374" y="842" type="qcurve" smooth="yes"/>
      <point x="1315" y="842"/>
      <point x="1214" y="784"/>
      <point x="1187" y="737" type="qcurve" smooth="yes"/>
      <point x="1169" y="705"/>
      <point x="1163" y="671" type="qcurve"/>
      <point x="1080" y="676" type="line"/>
      <point x="1087" y="733"/>
      <point x="1116" y="782" type="qcurve" smooth="yes"/>
      <point x="1154" y="846"/>
      <point x="1292" y="920"/>
      <point x="1374" y="920" type="qcurve" smooth="yes"/>
      <point x="1456" y="920"/>
      <point x="1586" y="843"/>
      <point x="1662" y="713"/>
      <point x="1662" y="634" type="qcurve" smooth="yes"/>
      <point x="1662" y="579"/>
      <point x="1635" y="495"/>
      <point x="1580" y="422"/>
      <point x="1538" y="384" type="qcurve" smooth="yes"/>
      <point x="1138" y="20" type="line"/>
      <point x="1114" y="80" type="line"/>
      <point x="1662" y="80" type="line"/>
      <point x="1662" y="0" type="line"/>
    </contour>
    <contour>
      <point x="286" y="0" type="line"/>
      <point x="212" y="60" type="line"/>
      <point x="1306" y="1440" type="line"/>
      <point x="1378" y="1382" type="line"/>
    </contour>
  </outline>
</glyph>
<glyph name="Aring" format="2">
  <advance width="1218"/>
  <unicode hex="00C5"/>
  <outline>
    <contour>
      <point x="610" y="1560" type="qcurve" smooth="yes"/>
      <point x="557" y="1560"/>
      <point x="469" y="1612"/>
      <point x="416" y="1700"/>
      <point x="416" y="1754" type="qcurve" smooth="yes"/>
      <point x="416" y="1807"/>
      <point x="469" y="1895"/>
      <point x="557" y="1948"/>
      <point x="610" y="1948" type="qcurve" smooth="yes"/>
      <point x="664" y="1948"/>
      <point x="752" y="1895"/>
      <point x="804" y="1807"/>
      <point x="804" y="1754" type="qcurve" smooth="yes"/>
      <point x="804" y="1700"/>
      <point x="752" y="1612"/>
      <point x="664" y="1560"/>
    </contour>
    <contour>
      <point x="610" y="1644" type="qcurve" smooth="yes"/>
      <point x="657" y="1644"/>
      <point x="720" y="1709"/>
      <point x="720" y="1754" type="qcurve" smooth="yes"/>
      <point x="720" y="1800"/>
      <point x="657" y="1864"/>
      <point x="610" y="1864" type="qcurve" smooth="yes"/>
      <point x="565" y="1864"/>
      <point x="500" y="1800"/>
      <point x="500" y="1754" type="qcurve" smooth="yes"/>
      <point x="500" y="1709"/>
      <point x="565" y="1644"/>
    </contour>
    <contour>
      <point x="40" y="0" type="line"/>
      <point x="564" y="1440" type="line"/>
      <point x="654" y="1440" type="line"/>
      <point x="1178" y="0" type="line"/>
      <point x="1088" y="0" type="line"/>
      <point x="578" y="1402" type="line"/>
      <point x="638" y="1402" type="line"/>
      <point x="130" y="0" type="line"/>
    </contour>
    <contour>
      <point x="240" y="374" type="line"/>
      <point x="240" y="454" type="line"/>
      <point x="976" y="454" type="line"/>
      <point x="976" y="374" type="line"/>
    </contour>
  </outline>
</glyph>
<glyph name="Egrave" format="2">
  <advance width="1120"/>
  <unicode hex="00C8"/>
  <outline>
    <contour>
      <point x="574" y="1890" type="line"/>
      <point x="478" y="1890" type="line"/>
      <point x="574" y="1620" type="line"/>
      <point x="640" y="1620" type="line"/>
    </contour>
    <contour>
      <point x="140" y="0" type="line"/>
      <point x="140" y="1440" type="line"/>
      <point x="1020" y="1440" type="line"/>
      <point x="1020" y="1356" type="line"/>
      <point x="224" y="1356" type="line"/>
      <point x="224" y="762" type="line"/>
      <point x="900" y="762" type="line"/>
      <point x="900" y="678" type="line"/>
      <point x="224" y="678" type="line"/>
      <point x="224" y="84" type="line"/>
      <point x="1020" y="84" type="line"/>
      <point x="1020" y="0" type="line"/>
    </contour>
  </outline>
</glyph>
<glyph name="Ecircumflex" format="2">
  <advance width="1120"/>
  <unicode hex="00CA"/>
  <outline>
    <contour>
      <point x="324" y="1620" type="line"/>
      <point x="524" y="1860" type="line"/>
      <point x="616" y="1860" type="line"/>
      <point x="816" y="1620" type="line"/>
      <point x="716" y="1620" type="line"/>
      <point x="570" y="1790" type="line"/>
      <point x="424" y="1620" type="line"/>
    </contour>
    <contour>
      <point x="140" y="0" type="line"/>
      <point x="140" y="1440" type="line"/>
      <point x="1020" y="1440" type="line"/>
      <point x="1020" y="1356" type="line"/>
      <point x="224" y="1356" type="line"/>
      <point x="224" y="762" type="line"/>
      <point x="900" y="762" type="line"/>
      <point x="900" y="678" type="line"/>
      <point x="224" y="678" type="line"/>
      <point x="224" y="84" type="line"/>
      <point x="1020" y="84" type="line"/>
      <point x="1020" y="0" type="line"/>
    </contour>
  </outline>
</glyph>
<glyph name="Icircumflex" format="2">
  <advance width="404"/>
  <unicode hex="00CE"/>
  <outline>
    <contour>
      <point x="-44" y="1620" type="line"/>
      <point x="156" y="1860" type="line"/>
      <point x="248" y="1860" type="line"/>
      <point x="448" y="1620" type="line"/>
      <point x="348" y="1620" type="line"/>
      <point x="202" y="1790" type="line"/>
      <point x="56" y="1620" type="line"/>
    </contour>
    <contour>
      <point x="160" y="0" type="line"/>
      <point x="160" y="1440" type="line"/>
      <point x="244" y="1440" type="line"/>
      <point x="244" y="0" type="line"/>
    </contour>
  </outline>
</glyph>
<glyph name="Eth" format="2">
  <advance width="1282"/>
  <unicode hex="00D0"/>
  <outline>
    <contour>
      <point x="20" y="678" type="line"/>
      <point x="20" y="762" type="line"/>
      <point x="620" y="762" type="line"/>
      <point x="620" y="678" type="line"/>
    </contour>
    <contour>
      <point x="118" y="0" type="line"/>
      <point x="118" y="1440" type="line"/>
      <point x="540" y="1440" type="line" smooth="yes"/>
      <point x="566" y="1440"/>
      <point x="680" y="1438"/>
      <point x="732" y="1430" type="qcurve" smooth="yes"/>
      <point x="891" y="1407"/>
      <point x="1100" y="1209"/>
      <point x="1202" y="904"/>
      <point x="1202" y="720" type="qcurve" smooth="yes"/>
      <point x="1202" y="535"/>
      <point x="1100" y="230"/>
      <point x="891" y="33"/>
      <point x="732" y="10" type="qcurve" smooth="yes"/>
      <point x="681" y="3"/>
      <point x="564" y="0"/>
      <point x="540" y="0" type="qcurve" smooth="yes"/>
    </contour>
    <contour>
      <point x="208" y="84" type="line"/>
      <point x="540" y="84" type="line" smooth="yes"/>
      <point x="588" y="84"/>
      <point x="685" y="90"/>
      <point x="718" y="96" type="qcurve" smooth="yes"/>
      <point x="860" y="120"/>
      <point x="1033" y="291"/>
      <point x="1112" y="556"/>
      <point x="1112" y="720" type="qcurve" smooth="yes"/>
      <point x="1112" y="884"/>
      <point x="1033" y="1149"/>
      <point x="860" y="1320"/>
      <point x="718" y="1344" type="qcurve" smooth="yes"/>
      <point x="685" y="1350"/>
      <point x="585" y="1356"/>
      <point x="540" y="1356" type="qcurve" smooth="yes"/>
      <point x="208" y="1356" type="line"/>
    </contour>
  </outline>
</glyph>
<glyph name="Ugrave" format="2">
  <advance width="1380"/>
  <unicode hex="00D9"/>
  <outline>
    <contour>
      <point x="669" y="1890" type="line"/>
      <point x="573" y="1890" type="line"/>
      <point x="669" y="1620" type="line"/>
      <point x="735" y="1620" type="line"/>
    </contour>
    <contour>
      <point x="690" y="-30" type="qcurve" smooth="yes"/>
      <point x="530" y="-30"/>
      <point x="282" y="104"/>
      <point x="140" y="347"/>
      <point x="140" y="510" type="qcurve" smooth="yes"/>
      <point x="140" y="1440" type="line"/>
      <point x="224" y="1440" type="line"/>
      <point x="224" y="538" type="line" smooth="yes"/>
      <point x="224" y="405"/>
      <point x="314" y="218"/>
      <point x="456" y="103"/>
      <point x="618" y="50"/>
      <point x="690" y="50" type="qcurve" smooth="yes"/>
      <point x="762" y="50"/>
      <point x="924" y="103"/>
      <point x="1066" y="218"/>
      <point x="1156" y="405"/>
      <point x="1156" y="538" type="qcurve" smooth="yes"/>
      <point x="1156" y="1440" type="line"/>
      <point x="1240" y="1440" type="line"/>
      <point x="1240" y="510" type="line" smooth="yes"/>
      <point x="1240" y="348"/>
      <point x="1098" y="105"/>
      <point x="850" y="-30"/>
    </contour>
  </outline>
</glyph>
<glyph name="Ucircumflex" format="2">
  <advance width="1380"/>
  <unicode hex="00DB"/>
  <outline>
    <contour>
      <point x="444" y="1620" type="line"/>
      <point x="644" y="1860" type="line"/>
      <point x="736" y="1860" type="line"/>
      <point x="936" y="1620" type="line"/>
      <point x="836" y="1620" type="line"/>
      <point x="690" y="1790" type="line"/>
      <point x="544" y="1620" type="line"/>
    </contour>
    <contour>
      <point x="690" y="-30" type="qcurve" smooth="yes"/>
      <point x="530" y="-30"/>
      <point x="282" y="104"/>
      <point x="140" y="347"/>
      <point x="140" y="510" type="qcurve" smooth="yes"/>
      <point x="140" y="1440" type="line"/>
      <point x="224" y="1440" type="line"/>
      <point x="224" y="538" type="line" smooth="yes"/>
      <point x="224" y="405"/>
      <point x="314" y="218"/>
      <point x="456" y="103"/>
      <point x="618" y="50"/>
      <point x="690" y="50" type="qcurve" smooth="yes"/>
      <point x="762" y="50"/>
      <point x="924" y="103"/>
      <point x="1066" y="218"/>
      <point x="1156" y="405"/>
      <point x="1156" y="538" type="qcurve" smooth="yes"/>
      <point x="1156" y="1440" type="line"/>
      <point x="1240" y="1440" type="line"/>
      <point x="1240" y="510" type="line" smooth="yes"/>
      <point x="1240" y="348"/>
      <point x="1098" y="105"/>
      <point x="850" y="-30"/>
    </contour>
  </outline>
</glyph>
<glyph name="Udieresis" format="2">
  <advance width="1380"/>
  <unicode hex="00DC"/>
  <outline>
    <contour>
      <point x="510" y="1667" type="qcurve" smooth="yes"/>
      <point x="479" y="1667"/>
      <point x="436" y="1709"/>
      <point x="436" y="1740" type="qcurve" smooth="yes"/>
      <point x="436" y="1772"/>
      <point x="479" y="1814"/>
      <point x="510" y="1814" type="qcurve" smooth="yes"/>
      <point x="541" y="1814"/>
      <point x="584" y="1772"/>
      <point x="584" y="1740" type="qcurve" smooth="yes"/>
      <point x="584" y="1709"/>
      <point x="541" y="1667"/>
    </contour>
    <contour>
      <point x="870" y="1667" type="qcurve" smooth="yes"/>
      <point x="839" y="1667"/>
      <point x="796" y="1709"/>
      <point x="796" y="1740" type="qcurve" smooth="yes"/>
      <point x="796" y="1772"/>
      <point x="839" y="1814"/>
      <point x="870" y="1814" type="qcurve" smooth="yes"/>
      <point x="901" y="1814"/>
      <point x="944" y="1772"/>
      <point x="944" y="1740" type="qcurve" smooth="yes"/>
      <point x="944" y="1709"/>
      <point x="901" y="1667"/>
    </contour>
    <contour>
      <point x="690" y="-30" type="qcurve" smooth="yes"/>
      <point x="530" y="-30"/>
      <point x="282" y="104"/>
      <point x="140" y="347"/>
      <point x="140" y="510" type="qcurve" smooth="yes"/>
      <point x="140" y="1440" type="line"/>
      <point x="224" y="1440" type="line"/>
      <point x="224" y="538" type="line" smooth="yes"/>
      <point x="224" y="405"/>
      <point x="314" y="218"/>
      <point x="456" y="103"/>
      <point x="618" y="50"/>
      <point x="690" y="50" type="qcurve" smooth="yes"/>
      <point x="762" y="50"/>
      <point x="924" y="103"/>
      <point x="1066" y="218"/>
      <point x="1156" y="405"/>
      <point x="1156" y="538" type="qcurve" smooth="yes"/>
      <point x="1156" y="1440" type="line"/>
      <point x="1240" y="1440" type="line"/>
      <point x="1240" y="510" type="line" smooth="yes"/>
      <point x="1240" y="348"/>
      <point x="1098" y="105"/>
      <point x="850" y="-30"/>
    </contour>
  </outline>
</glyph>
<glyph name="Thorn" format="2">
  <advance width="1142"/>
  <unicode hex="00DE"/>
  <outline>
    <contour>
      <point x="140" y="0" type="line"/>
      <point x="140" y="1440" type="line"/>
      <point x="224" y="1440" type="line"/>
      <point x="224" y="1152" type="line"/>
      <point x="650" y="1152" type="line" smooth="yes"/>
      <point x="729" y="1152"/>
      <point x="804" y="1122" type="qcurve" smooth="yes"/>
      <point x="843" y="1107"/>
      <point x="916" y="1061"/>
      <point x="946" y="1032" type="qcurve" smooth="yes"/>
      <point x="1011" y="972"/>
      <point x="1082" y="807"/>
      <point x="1082" y="720" type="qcurve" smooth="yes"/>
      <point x="1082" y="639"/>
      <point x="1021" y="489"/>
      <point x="968" y="430" type="qcurve" smooth="yes"/>
      <point x="910" y="364"/>
      <point x="739" y="288"/>
      <point x="650" y="288" type="qcurve" smooth="yes"/>
      <point x="224" y="288" type="line"/>
      <point x="224" y="0" type="line"/>
    </contour>
    <contour>
      <point x="224" y="372" type="line"/>
      <point x="650" y="372" type="line" smooth="yes"/>
      <point x="724" y="372"/>
      <point x="862" y="439"/>
      <point x="910" y="496" type="qcurve" smooth="yes"/>
      <point x="949" y="543"/>
      <point x="994" y="659"/>
      <point x="992" y="720" type="qcurve"/>
      <point x="991" y="791"/>
      <point x="936" y="921"/>
      <point x="886" y="970" type="qcurve" smooth="yes"/>
      <point x="841" y="1015"/>
      <point x="715" y="1068"/>
      <point x="650" y="1068" type="qcurve" smooth="yes"/>
      <point x="224" y="1068" type="line"/>
    </contour>
  </outline>
</glyph>
<glyph name="ae" format="2">
  <advance width="1892"/>
  <unicode hex="00E6"/>
  <outline>
    <contour>
      <point x="1348" y="-30" type="qcurve" smooth="yes"/>
      <point x="1196" y="-30"/>
      <point x="987" y="117"/>
      <point x="880" y="375"/>
      <point x="880" y="542" type="qcurve" smooth="yes"/>
      <point x="880" y="711"/>
      <point x="989" y="967"/>
      <point x="1200" y="1110"/>
      <point x="1352" y="1110" type="qcurve" smooth="yes"/>
      <point x="1506" y="1110"/>
      <point x="1710" y="961"/>
      <point x="1812" y="694"/>
      <point x="1812" y="516" type="qcurve"/>
      <point x="1726" y="516" type="line"/>
      <point x="1726" y="544" type="line"/>
      <point x="1720" y="766"/>
      <point x="1536" y="1026"/>
      <point x="1348" y="1026" type="qcurve" smooth="yes"/>
      <point x="1220" y="1026"/>
      <point x="1049" y="903"/>
      <point x="964" y="684"/>
      <point x="964" y="540" type="qcurve" smooth="yes"/>
      <point x="964" y="321"/>
      <point x="1158" y="54"/>
      <point x="1348" y="54" type="qcurve" smooth="yes"/>
      <point x="1470" y="54"/>
      <point x="1663" y="174"/>
      <point x="1720" y="298" type="qcurve"/>
      <point x="1786" y="258" type="line"/>
      <point x="1745" y="164"/>
      <point x="1615" y="36"/>
      <point x="1447" y="-30"/>
    </contour>
    <contour>
      <point x="450" y="54" type="qcurve" smooth="yes"/>
      <point x="582" y="54"/>
      <point x="787" y="171"/>
      <point x="832" y="268" type="qcurve" smooth="yes"/>
      <point x="859" y="325"/>
      <point x="879" y="456"/>
      <point x="880" y="553"/>
      <point x="880" y="560" type="qcurve"/>
      <point x="884" y="520" type="line"/>
      <point x="534" y="520" type="line" smooth="yes"/>
      <point x="487" y="520"/>
      <point x="362" y="512"/>
      <point x="245" y="471"/>
      <point x="168" y="376"/>
      <point x="168" y="290" type="qcurve" smooth="yes"/>
      <point x="168" y="175"/>
      <point x="320" y="54"/>
    </contour>
    <contour>
      <point x="462" y="-30" type="qcurve" smooth="yes"/>
      <point x="284" y="-30"/>
      <point x="80" y="141"/>
      <point x="80" y="292" type="qcurve" smooth="yes"/>
      <point x="80" y="384"/>
      <point x="149" y="501"/>
      <point x="259" y="566"/>
      <point x="384" y="594"/>
      <point x="497" y="600"/>
      <point x="534" y="600" type="qcurve" smooth="yes"/>
      <point x="882" y="600" type="line"/>
      <point x="880" y="588" type="line"/>
      <point x="886" y="729"/>
      <point x="826" y="925"/>
      <point x="679" y="1026"/>
      <point x="554" y="1026" type="qcurve" smooth="yes"/>
      <point x="431" y="1026"/>
      <point x="242" y="922"/>
      <point x="210" y="794" type="qcurve"/>
      <point x="122" y="822" type="line"/>
      <point x="143" y="921"/>
      <point x="269" y="1048"/>
      <point x="449" y="1110"/>
      <point x="552" y="1110" type="qcurve" smooth="yes"/>
      <point x="716" y="1110"/>
      <point x="912" y="965"/>
      <point x="946" y="834" type="qcurve"/>
      <point x="957" y="795"/>
      <point x="964" y="718"/>
      <point x="964" y="676" type="qcurve"/>
      <point x="938" y="300" type="line"/>
      <point x="899" y="172"/>
      <point x="746" y="28"/>
      <point x="556" y="-30"/>
    </contour>
    <contour>
      <point x="930" y="516" type="line"/>
      <point x="930" y="600" type="line"/>
      <point x="1762" y="600" type="line"/>
      <point x="1762" y="516" type="line"/>
    </contour>
  </outline>
</glyph>
<glyph name="iacute" format="2">
  <advance width="404"/>
  <unicode hex="00ED"/>
  <outline>
    <contour>
      <point x="248" y="1530" type="line"/>
      <point x="344" y="1530" type="line"/>
      <point x="248" y="1260" type="line"/>
      <point x="182" y="1260" type="line"/>
    </contour>
    <contour>
      <point x="160" y="0" type="line"/>
      <point x="160" y="1080" type="line"/>
      <point x="244" y="1080" type="line"/>
      <point x="244" y="0" type="line"/>
    </contour>
  </outline>
</glyph>
<glyph name="icircumflex" format="2">
  <advance width="404"/>
  <unicode hex="00EE"/>
  <outline>
    <contour>
      <point x="-44" y="1260" type="line"/>
      <point x="156" y="1500" type="line"/>
      <point x="248" y="1500" type="line"/>
      <point x="448" y="1260" type="line"/>
      <point x="348" y="1260" type="line"/>
      <point x="202" y="1430" type="line"/>
      <point x="56" y="1260" type="line"/>
    </contour>
    <contour>
      <point x="160" y="0" type="line"/>
      <point x="160" y="1080" type="line"/>
      <point x="244" y="1080" type="line"/>
      <point x="244" y="0" type="line"/>
    </contour>
  </outline>
</glyph>
<glyph name="eth" format="2">
  <advance width="1146"/>
  <unicode hex="00F0"/>
  <outline>
    <contour>
      <point x="574" y="-30" type="qcurve"/>
      <point x="418" y="-32"/>
      <point x="199" y="100"/>
      <point x="82" y="342"/>
      <point x="80" y="504" type="qcurve"/>
      <point x="82" y="668"/>
      <point x="200" y="909"/>
      <point x="420" y="1040"/>
      <point x="574" y="1038" type="qcurve"/>
      <point x="691" y="1040"/>
      <point x="907" y="945"/>
      <point x="970" y="850" type="qcurve"/>
      <point x="952" y="1010"/>
      <point x="826" y="1241"/>
      <point x="611" y="1373"/>
      <point x="460" y="1384" type="qcurve"/>
      <point x="470" y="1466" type="line"/>
      <point x="646" y="1456"/>
      <point x="904" y="1291"/>
      <point x="976" y="1144" type="qcurve"/>
      <point x="1015" y="1069"/>
      <point x="1054" y="903"/>
      <point x="1066" y="674"/>
      <point x="1066" y="506" type="qcurve" smooth="yes"/>
      <point x="1066" y="343"/>
      <point x="947" y="100"/>
      <point x="726" y="-32"/>
    </contour>
    <contour>
      <point x="574" y="54" type="qcurve" smooth="yes"/>
      <point x="772" y="54"/>
      <point x="976" y="299"/>
      <point x="976" y="506" type="qcurve" smooth="yes"/>
      <point x="976" y="715"/>
      <point x="765" y="957"/>
      <point x="574" y="954" type="qcurve"/>
      <point x="378" y="957"/>
      <point x="170" y="710"/>
      <point x="170" y="504" type="qcurve" smooth="yes"/>
      <point x="170" y="293"/>
      <point x="379" y="54"/>
    </contour>
    <contour>
      <point x="606" y="1158" type="line"/>
      <point x="540" y="1210" type="line"/>
      <point x="818" y="1564" type="line"/>
      <point x="884" y="1512" type="line"/>
    </contour>
  </outline>
</glyph>
<glyph name="ntilde" format="2">
  <advance width="1146"/>
  <unicode hex="00F1"/>
  <outline>
    <contour>
      <point x="712" y="1260" type="qcurve" smooth="yes"/>
      <point x="673" y="1260"/>
      <point x="598" y="1289"/>
      <point x="526" y="1327"/>
      <point x="460" y="1356"/>
      <point x="430" y="1356" type="qcurve" smooth="yes"/>
      <point x="387" y="1356"/>
      <point x="366" y="1297"/>
      <point x="376" y="1270" type="qcurve"/>
      <point x="304" y="1270" type="line"/>
      <point x="286" y="1339"/>
      <point x="363" y="1436"/>
      <point x="432" y="1436" type="qcurve" smooth="yes"/>
      <point x="472" y="1436"/>
      <point x="548" y="1407"/>
      <point x="620" y="1369"/>
      <point x="686" y="1340"/>
      <point x="716" y="1340" type="qcurve" smooth="yes"/>
      <point x="754" y="1340"/>
      <point x="782" y="1396"/>
      <point x="770" y="1430" type="qcurve"/>
      <point x="842" y="1430" type="line"/>
      <point x="860" y="1363"/>
      <point x="784" y="1260"/>
    </contour>
    <contour>
      <point x="942" y="0" type="line"/>
      <point x="942" y="572" type="line" smooth="yes"/>
      <point x="942" y="688"/>
      <point x="895" y="857"/>
      <point x="803" y="968"/>
      <point x="672" y="1022"/>
      <point x="588" y="1022" type="qcurve" smooth="yes"/>
      <point x="489" y="1022"/>
      <point x="350" y="953"/>
      <point x="264" y="833"/>
      <point x="224" y="677"/>
      <point x="224" y="590" type="qcurve"/>
      <point x="146" y="588" type="line"/>
      <point x="146" y="773"/>
      <point x="268" y="1000"/>
      <point x="469" y="1104"/>
      <point x="588" y="1104" type="qcurve" smooth="yes"/>
      <point x="670" y="1104"/>
      <point x="807" y="1058"/>
      <point x="914" y="971"/>
      <point x="988" y="845"/>
      <point x="1026" y="684"/>
      <point x="1026" y="588" type="qcurve" smooth="yes"/>
      <point x="1026" y="0" type="line"/>
    </contour>
    <contour>
      <point x="140" y="0" type="line"/>
      <point x="140" y="1080" type="line"/>
      <point x="218" y="1080" type="line"/>
      <point x="218" y="860" type="line"/>
      <point x="224" y="860" type="line"/>
      <point x="224" y="0" type="line"/>
    </contour>
  </outline>
</glyph>
<glyph name="otilde" format="2">
  <advance width="1148"/>
  <unicode hex="00F5"/>
  <outline>
    <contour>
      <point x="714" y="1260" type="qcurve" smooth="yes"/>
      <point x="675" y="1260"/>
      <point x="600" y="1289"/>
      <point x="528" y="1327"/>
      <point x="462" y="1356"/>
      <point x="432" y="1356" type="qcurve" smooth="yes"/>
      <point x="389" y="1356"/>
      <point x="368" y="1297"/>
      <point x="378" y="1270" type="qcurve"/>
      <point x="306" y="1270" type="line"/>
      <point x="288" y="1339"/>
      <point x="365" y="1436"/>
      <point x="434" y="1436" type="qcurve" smooth="yes"/>
      <point x="474" y="1436"/>
      <point x="550" y="1407"/>
      <point x="622" y="1369"/>
      <point x="688" y="1340"/>
      <point x="718" y="1340" type="qcurve" smooth="yes"/>
      <point x="756" y="1340"/>
      <point x="784" y="1396"/>
      <point x="772" y="1430" type="qcurve"/>
      <point x="844" y="1430" type="line"/>
      <point x="862" y="1363"/>
      <point x="786" y="1260"/>
    </contour>
    <contour>
      <point x="574" y="-30" type="qcurve" smooth="yes"/>
      <point x="414" y="-30"/>
      <point x="194" y="116"/>
      <point x="80" y="374"/>
      <point x="80" y="542" type="qcurve" smooth="yes"/>
      <point x="80" y="712"/>
      <point x="196" y="968"/>
      <point x="417" y="1110"/>
      <point x="574" y="1110" type="qcurve" smooth="yes"/>
      <point x="735" y="1110"/>
      <point x="955" y="965"/>
      <point x="1068" y="709"/>
      <point x="1068" y="542" type="qcurve" smooth="yes"/>
      <point x="1068" y="371"/>
      <point x="954" y="114"/>
      <point x="733" y="-30"/>
    </contour>
    <contour>
      <point x="574" y="54" type="qcurve" smooth="yes"/>
      <point x="778" y="54"/>
      <point x="978" y="325"/>
      <point x="978" y="542" type="qcurve" smooth="yes"/>
      <point x="978" y="763"/>
      <point x="777" y="1026"/>
      <point x="574" y="1026" type="qcurve" smooth="yes"/>
      <point x="437" y="1026"/>
      <point x="258" y="902"/>
      <point x="170" y="684"/>
      <point x="170" y="542" type="qcurve" smooth="yes"/>
      <point x="170" y="322"/>
      <point x="375" y="54"/>
    </contour>
  </outline>
</glyph>
<glyph name="yacute" format="2">
  <advance width="1146"/>
  <unicode hex="00FD"/>
  <outline>
    <component base="y"/>
    <contour>
      <point x="541" y="1530" type="line"/>
      <point x="475" y="1260" type="line"/>
      <point x="541" y="1260" type="line"/>
      <point x="637" y="1530" type="line"/>
    </contour>
  </outline>
</glyph>
<glyph name="Emacron" format="2">
  <advance width="1120"/>
  <unicode hex="0112"/>
  <outline>
    <contour>
      <point x="340" y="1680" type="line"/>
      <point x="340" y="1764" type="line"/>
      <point x="820" y="1764" type="line"/>
      <point x="820" y="1680" type="line"/>
    </contour>
    <contour>
      <point x="140" y="0" type="line"/>
      <point x="140" y="1440" type="line"/>
      <point x="1020" y="1440" type="line"/>
      <point x="1020" y="1356" type="line"/>
      <point x="224" y="1356" type="line"/>
      <point x="224" y="762" type="line"/>
      <point x="900" y="762" type="line"/>
      <point x="900" y="678" type="line"/>
      <point x="224" y="678" type="line"/>
      <point x="224" y="84" type="line"/>
      <point x="1020" y="84" type="line"/>
      <point x="1020" y="0" type="line"/>
    </contour>
  </outline>
</glyph>
<glyph name="Eogonek" format="2">
  <advance width="1120"/>
  <unicode hex="0118"/>
  <outline>
    <contour>
      <point x="878" y="-484" type="qcurve" smooth="yes"/>
      <point x="831" y="-484"/>
      <point x="751" y="-434"/>
      <point x="702" y="-352"/>
      <point x="702" y="-304" type="qcurve" smooth="yes"/>
      <point x="702" y="-244"/>
      <point x="772" y="-115"/>
      <point x="888" y="11"/>
      <point x="958" y="66" type="qcurve"/>
      <point x="1020" y="0" type="line"/>
      <point x="959" y="-40"/>
      <point x="854" y="-144"/>
      <point x="790" y="-255"/>
      <point x="790" y="-304" type="qcurve" smooth="yes"/>
      <point x="790" y="-349"/>
      <point x="844" y="-404"/>
      <point x="878" y="-404" type="qcurve" smooth="yes"/>
      <point x="905" y="-404"/>
      <point x="960" y="-371"/>
      <point x="982" y="-346" type="qcurve"/>
      <point x="1032" y="-402" type="line"/>
      <point x="999" y="-444"/>
      <point x="919" y="-484"/>
    </contour>
    <contour>
      <point x="140" y="0" type="line"/>
      <point x="140" y="1440" type="line"/>
      <point x="1020" y="1440" type="line"/>
      <point x="1020" y="1356" type="line"/>
      <point x="224" y="1356" type="line"/>
      <point x="224" y="762" type="line"/>
      <point x="900" y="762" type="line"/>
      <point x="900" y="678" type="line"/>
      <point x="224" y="678" type="line"/>
      <point x="224" y="84" type="line"/>
      <point x="1020" y="84" type="line"/>
      <point x="1020" y="0" type="line"/>
    </contour>
  </outline>
</glyph>
<glyph name="Ecaron" format="2">
  <advance width="1120"/>
  <unicode hex="011A"/>
  <outline>
    <contour>
      <point x="340" y="1860" type="line"/>
      <point x="440" y="1860" type="line"/>
      <point x="586" y="1690" type="line"/>
      <point x="732" y="1860" type="line"/>
      <point x="832" y="1860" type="line"/>
      <point x="632" y="1620" type="line"/>
      <point x="540" y="1620" type="line"/>
    </contour>
    <contour>
      <point x="140" y="0" type="line"/>
      <point x="140" y="1440" type="line"/>
      <point x="1020" y="1440" type="line"/>
      <point x="1020" y="1356" type="line"/>
      <point x="224" y="1356" type="line"/>
      <point x="224" y="762" type="line"/>
      <point x="900" y="762" type="line"/>
      <point x="900" y="678" type="line"/>
      <point x="224" y="678" type="line"/>
      <point x="224" y="84" type="line"/>
      <point x="1020" y="84" type="line"/>
      <point x="1020" y="0" type="line"/>
    </contour>
  </outline>
</glyph>
<glyph name="gdotaccent" format="2">
  <advance width="1152"/>
  <unicode hex="0121"/>
  <outline>
    <contour>
      <point x="606" y="1307" type="qcurve" smooth="yes"/>
      <point x="575" y="1307"/>
      <point x="532" y="1349"/>
      <point x="532" y="1380" type="qcurve" smooth="yes"/>
      <point x="532" y="1412"/>
      <point x="575" y="1454"/>
      <point x="606" y="1454" type="qcurve" smooth="yes"/>
      <point x="637" y="1454"/>
      <point x="680" y="1412"/>
      <point x="680" y="1380" type="qcurve" smooth="yes"/>
      <point x="680" y="1349"/>
      <point x="637" y="1307"/>
    </contour>
    <contour>
      <point x="552" y="-510" type="qcurve" smooth="yes"/>
      <point x="474" y="-510"/>
      <point x="316" y="-466"/>
      <point x="177" y="-361"/>
      <point x="128" y="-270" type="qcurve"/>
      <point x="202" y="-220" type="line"/>
      <point x="256" y="-331"/>
      <point x="452" y="-424"/>
      <point x="552" y="-424" type="qcurve" smooth="yes"/>
      <point x="697" y="-424"/>
      <point x="860" y="-315"/>
      <point x="926" y="-100"/>
      <point x="926" y="60" type="qcurve" smooth="yes"/>
      <point x="926" y="336" type="line"/>
      <point x="934" y="336" type="line"/>
      <point x="934" y="1080" type="line"/>
      <point x="1012" y="1080" type="line"/>
      <point x="1012" y="60" type="line" smooth="yes"/>
      <point x="1012" y="11"/>
      <point x="1008" y="-81"/>
      <point x="1002" y="-126" type="qcurve" smooth="yes"/>
      <point x="986" y="-257"/>
      <point x="879" y="-427"/>
      <point x="691" y="-510"/>
    </contour>
    <contour>
      <point x="550" y="-30" type="qcurve" smooth="yes"/>
      <point x="397" y="-30"/>
      <point x="188" y="121"/>
      <point x="80" y="380"/>
      <point x="80" y="542" type="qcurve" smooth="yes"/>
      <point x="80" y="701"/>
      <point x="186" y="959"/>
      <point x="389" y="1110"/>
      <point x="534" y="1110" type="qcurve" smooth="yes"/>
      <point x="685" y="1110"/>
      <point x="892" y="963"/>
      <point x="998" y="706"/>
      <point x="998" y="542" type="qcurve" smooth="yes"/>
      <point x="998" y="381"/>
      <point x="893" y="122"/>
      <point x="693" y="-30"/>
    </contour>
    <contour>
      <point x="550" y="54" type="qcurve" smooth="yes"/>
      <point x="677" y="54"/>
      <point x="848" y="182"/>
      <point x="934" y="403"/>
      <point x="934" y="542" type="qcurve" smooth="yes"/>
      <point x="934" y="683"/>
      <point x="847" y="902"/>
      <point x="676" y="1026"/>
      <point x="550" y="1026" type="qcurve" smooth="yes"/>
      <point x="421" y="1026"/>
      <point x="252" y="899"/>
      <point x="170" y="680"/>
      <point x="170" y="542" type="qcurve" smooth="yes"/>
      <point x="170" y="403"/>
      <point x="256" y="182"/>
      <point x="425" y="54"/>
    </contour>
  </outline>
</glyph>
<glyph name="Hcircumflex" format="2">
  <advance width="1320"/>
  <unicode hex="0124"/>
  <outline>
    <contour>
      <point x="414" y="1620" type="line"/>
      <point x="614" y="1860" type="line"/>
      <point x="706" y="1860" type="line"/>
      <point x="906" y="1620" type="line"/>
      <point x="806" y="1620" type="line"/>
      <point x="660" y="1790" type="line"/>
      <point x="514" y="1620" type="line"/>
    </contour>
    <contour>
      <point x="140" y="0" type="line"/>
      <point x="140" y="1440" type="line"/>
      <point x="224" y="1440" type="line"/>
      <point x="224" y="762" type="line"/>
      <point x="1096" y="762" type="line"/>
      <point x="1096" y="1440" type="line"/>
      <point x="1180" y="1440" type="line"/>
      <point x="1180" y="0" type="line"/>
      <point x="1096" y="0" type="line"/>
      <point x="1096" y="678" type="line"/>
      <point x="224" y="678" type="line"/>
      <point x="224" y="0" type="line"/>
    </contour>
  </outline>
</glyph>
<glyph name="hcircumflex" format="2">
  <advance width="1146"/>
  <unicode hex="0125"/>
  <outline>
    <contour>
      <point x="-67" y="1620" type="line"/>
      <point x="133" y="1860" type="line"/>
      <point x="225" y="1860" type="line"/>
      <point x="425" y="1620" type="line"/>
      <point x="325" y="1620" type="line"/>
      <point x="179" y="1790" type="line"/>
      <point x="33" y="1620" type="line"/>
    </contour>
    <contour>
      <point x="942" y="0" type="line"/>
      <point x="942" y="572" type="line" smooth="yes"/>
      <point x="942" y="688"/>
      <point x="895" y="857"/>
      <point x="803" y="968"/>
      <point x="672" y="1022"/>
      <point x="588" y="1022" type="qcurve" smooth="yes"/>
      <point x="489" y="1022"/>
      <point x="350" y="953"/>
      <point x="264" y="833"/>
      <point x="224" y="677"/>
      <point x="224" y="590" type="qcurve"/>
      <point x="146" y="588" type="line"/>
      <point x="146" y="773"/>
      <point x="268" y="1000"/>
      <point x="469" y="1104"/>
      <point x="588" y="1104" type="qcurve" smooth="yes"/>
      <point x="670" y="1104"/>
      <point x="807" y="1058"/>
      <point x="914" y="971"/>
      <point x="988" y="845"/>
      <point x="1026" y="684"/>
      <point x="1026" y="588" type="qcurve" smooth="yes"/>
      <point x="1026" y="0" type="line"/>
    </contour>
    <contour>
      <point x="140" y="0" type="line"/>
      <point x="140" y="1440" type="line"/>
      <point x="218" y="1440" type="line"/>
      <point x="218" y="590" type="line"/>
      <point x="224" y="590" type="line"/>
      <point x="224" y="0" type="line"/>
    </contour>
  </outline>
</glyph>
<glyph name="Itilde" format="2">
  <advance width="404"/>
  <unicode hex="0128"/>
  <outline>
    <contour>
      <point x="341" y="1620" type="qcurve" smooth="yes"/>
      <point x="302" y="1620"/>
      <point x="227" y="1649"/>
      <point x="155" y="1687"/>
      <point x="89" y="1716"/>
      <point x="59" y="1716" type="qcurve" smooth="yes"/>
      <point x="16" y="1716"/>
      <point x="-5" y="1657"/>
      <point x="5" y="1630" type="qcurve"/>
      <point x="-67" y="1630" type="line"/>
      <point x="-85" y="1699"/>
      <point x="-8" y="1796"/>
      <point x="61" y="1796" type="qcurve" smooth="yes"/>
      <point x="101" y="1796"/>
      <point x="177" y="1767"/>
      <point x="249" y="1729"/>
      <point x="315" y="1700"/>
      <point x="345" y="1700" type="qcurve" smooth="yes"/>
      <point x="383" y="1700"/>
      <point x="411" y="1756"/>
      <point x="399" y="1790" type="qcurve"/>
      <point x="471" y="1790" type="line"/>
      <point x="489" y="1723"/>
      <point x="413" y="1620"/>
    </contour>
    <contour>
      <point x="160" y="0" type="line"/>
      <point x="160" y="1440" type="line"/>
      <point x="244" y="1440" type="line"/>
      <point x="244" y="0" type="line"/>
    </contour>
  </outline>
</glyph>
<glyph name="jcircumflex" format="2">
  <advance width="450"/>
  <unicode hex="0135"/>
  <outline>
    <contour>
      <point x="-20" y="-480" type="line"/>
      <point x="-20" y="-394" type="line"/>
      <point x="48" y="-394" type="line" smooth="yes"/>
      <point x="111" y="-394"/>
      <point x="206" y="-323"/>
      <point x="206" y="-230" type="qcurve" smooth="yes"/>
      <point x="206" y="1080" type="line"/>
      <point x="290" y="1080" type="line"/>
      <point x="290" y="-220" type="line" smooth="yes"/>
      <point x="290" y="-358"/>
      <point x="177" y="-480"/>
      <point x="46" y="-480" type="qcurve" smooth="yes"/>
    </contour>
    <contour>
      <point x="2" y="1260" type="line"/>
      <point x="202" y="1500" type="line"/>
      <point x="294" y="1500" type="line"/>
      <point x="494" y="1260" type="line"/>
      <point x="394" y="1260" type="line"/>
      <point x="248" y="1430" type="line"/>
      <point x="102" y="1260" type="line"/>
    </contour>
  </outline>
</glyph>
<glyph name="uni0136" format="2">
  <advance width="1116"/>
  <unicode hex="0136"/>
  <outline>
    <contour>
      <point x="570" y="-240" type="line"/>
      <point x="504" y="-510" type="line"/>
      <point x="570" y="-510" type="line"/>
      <point x="666" y="-240" type="line"/>
    </contour>
    <contour>
      <point x="937" y="1440" type="line"/>
      <point x="1052" y="1440" type="line"/>
      <point x="180" y="518" type="line"/>
      <point x="180" y="639" type="line"/>
    </contour>
    <contour>
      <point x="1001" y="0" type="line"/>
      <point x="386" y="782" type="line"/>
      <point x="460" y="828" type="line"/>
      <point x="1116" y="0" type="line"/>
    </contour>
    <contour>
      <point x="140" y="0" type="line"/>
      <point x="140" y="1440" type="line"/>
      <point x="224" y="1440" type="line"/>
      <point x="224" y="0" type="line"/>
    </contour>
  </outline>
</glyph>
<glyph name="lacute" format="2">
  <advance width="490"/>
  <unicode hex="013A"/>
  <outline>
    <component base="l"/>
    <contour>
      <point x="248" y="1890" type="line"/>
      <point x="182" y="1620" type="line"/>
      <point x="248" y="1620" type="line"/>
      <point x="344" y="1890" type="line"/>
    </contour>
  </outline>
</glyph>
<glyph name="lcommaaccent" format="2">
  <advance width="493"/>
  <unicode hex="013C"/>
  <outline>
    <component base="l"/>
    <contour>
      <point x="188" y="-240" type="line"/>
      <point x="122" y="-510" type="line"/>
      <point x="188" y="-510" type="line"/>
      <point x="284" y="-240" type="line"/>
    </contour>
  </outline>
</glyph>
<glyph name="uni013C" format="2">
  <advance width="493"/>
  <unicode hex="013C"/>
  <outline>
    <contour>
      <point x="188" y="-240" type="line"/>
      <point x="122" y="-510" type="line"/>
      <point x="188" y="-510" type="line"/>
      <point x="284" y="-240" type="line"/>
    </contour>
    <contour>
      <point x="454" y="84" type="line"/>
      <point x="425" y="84"/>
      <point x="377" y="87"/>
      <point x="357" y="91" type="qcurve" smooth="yes"/>
      <point x="327" y="97"/>
      <point x="284" y="123"/>
      <point x="257" y="166"/>
      <point x="244" y="231"/>
      <point x="244" y="276" type="qcurve" smooth="yes"/>
      <point x="244" y="321"/>
      <point x="244" y="410"/>
      <point x="244" y="455" type="qcurve" smooth="yes"/>
      <point x="244" y="1440" type="line"/>
      <point x="160" y="1440" type="line"/>
      <point x="160" y="327" type="line" smooth="yes"/>
      <point x="160" y="305"/>
      <point x="160" y="263"/>
      <point x="160" y="241" type="qcurve" smooth="yes"/>
      <point x="160" y="186"/>
      <point x="194" y="96"/>
      <point x="256" y="34"/>
      <point x="346" y="0"/>
      <point x="401" y="0" type="qcurve" smooth="yes"/>
      <point x="454" y="0" type="line"/>
    </contour>
  </outline>
</glyph>
<glyph name="lslash" format="2">
  <advance width="722"/>
  <unicode hex="0142"/>
  <outline>
    <contour>
      <point x="98" y="534" type="line"/>
      <point x="98" y="634" type="line"/>
      <point x="624" y="936" type="line"/>
      <point x="624" y="838" type="line"/>
    </contour>
    <contour>
      <point x="404" y="186" type="qcurve" smooth="yes"/>
      <point x="409" y="167"/>
      <point x="424" y="138"/>
      <point x="435" y="127" type="qcurve"/>
      <point x="440" y="121"/>
      <point x="453" y="112"/>
      <point x="461" y="107" type="qcurve"/>
      <point x="468" y="103"/>
      <point x="484" y="96"/>
      <point x="493" y="94" type="qcurve"/>
      <point x="511" y="89"/>
      <point x="556" y="84"/>
      <point x="582" y="84" type="qcurve" smooth="yes"/>
      <point x="604" y="84" type="line"/>
      <point x="604" y="0" type="line"/>
      <point x="551" y="0" type="line" smooth="yes"/>
      <point x="523" y="0"/>
      <point x="474" y="9"/>
      <point x="451" y="17" type="qcurve" smooth="yes"/>
      <point x="428" y="25"/>
      <point x="391" y="49"/>
      <point x="375" y="65" type="qcurve" smooth="yes"/>
      <point x="359" y="81"/>
      <point x="335" y="118"/>
      <point x="327" y="141" type="qcurve" smooth="yes"/>
      <point x="319" y="164"/>
      <point x="310" y="213"/>
      <point x="310" y="241" type="qcurve" smooth="yes"/>
      <point x="310" y="1440" type="line"/>
      <point x="394" y="1440" type="line"/>
      <point x="394" y="276" type="line" smooth="yes"/>
      <point x="394" y="249"/>
      <point x="399" y="204"/>
    </contour>
  </outline>
</glyph>
<glyph name="Ncaron" format="2">
  <advance width="1324"/>
  <unicode hex="0147"/>
  <outline>
    <contour>
      <point x="444" y="1860" type="line"/>
      <point x="544" y="1860" type="line"/>
      <point x="690" y="1690" type="line"/>
      <point x="836" y="1860" type="line"/>
      <point x="936" y="1860" type="line"/>
      <point x="736" y="1620" type="line"/>
      <point x="644" y="1620" type="line"/>
    </contour>
    <contour>
      <point x="140" y="0" type="line"/>
      <point x="140" y="1440" type="line"/>
      <point x="224" y="1440" type="line"/>
      <point x="1100" y="150" type="line"/>
      <point x="1100" y="1440" type="line"/>
      <point x="1184" y="1440" type="line"/>
      <point x="1184" y="0" type="line"/>
      <point x="1100" y="0" type="line"/>
      <point x="224" y="1292" type="line"/>
      <point x="224" y="0" type="line"/>
    </contour>
  </outline>
</glyph>
<glyph name="Eng" format="2">
  <advance width="1324"/>
  <unicode hex="014A"/>
  <outline>
    <contour>
      <point x="1100" y="1440" type="line"/>
      <point x="1184" y="1440" type="line"/>
      <point x="1184" y="-190" type="line" smooth="yes"/>
      <point x="1184" y="-277"/>
      <point x="1112" y="-358"/>
      <point x="1032" y="-358" type="qcurve" smooth="yes"/>
      <point x="1013" y="-358"/>
      <point x="976" y="-354"/>
      <point x="950" y="-348" type="qcurve"/>
      <point x="950" y="-266" type="line"/>
      <point x="967" y="-269"/>
      <point x="996" y="-272"/>
      <point x="1008" y="-272" type="qcurve" smooth="yes"/>
      <point x="1062" y="-272"/>
      <point x="1100" y="-206"/>
      <point x="1100" y="-110" type="qcurve" smooth="yes"/>
      <point x="1100" y="-56"/>
      <point x="1079" y="31"/>
      <point x="1058" y="62" type="qcurve" smooth="yes"/>
      <point x="224" y="1292" type="line"/>
      <point x="224" y="0" type="line"/>
      <point x="140" y="0" type="line"/>
      <point x="140" y="1440" type="line"/>
      <point x="224" y="1440" type="line"/>
      <point x="1100" y="150" type="line"/>
    </contour>
  </outline>
</glyph>
<glyph name="Scedilla" format="2">
  <advance width="1178"/>
  <unicode hex="015E"/>
  <outline>
    <contour>
      <point x="570" y="-478" type="qcurve" smooth="yes"/>
      <point x="537" y="-478"/>
      <point x="477" y="-462"/>
      <point x="450" y="-450" type="qcurve"/>
      <point x="478" y="-376" type="line"/>
      <point x="528" y="-396"/>
      <point x="564" y="-396" type="qcurve" smooth="yes"/>
      <point x="609" y="-396"/>
      <point x="658" y="-338"/>
      <point x="658" y="-302" type="qcurve" smooth="yes"/>
      <point x="658" y="-251"/>
      <point x="574" y="-208"/>
      <point x="524" y="-192" type="qcurve"/>
      <point x="600" y="14" type="line"/>
      <point x="684" y="14" type="line"/>
      <point x="626" y="-142" type="line"/>
      <point x="677" y="-163"/>
      <point x="746" y="-241"/>
      <point x="746" y="-306" type="qcurve" smooth="yes"/>
      <point x="746" y="-378"/>
      <point x="642" y="-478"/>
    </contour>
    <contour>
      <point x="618" y="-30" type="qcurve" smooth="yes"/>
      <point x="472" y="-30"/>
      <point x="239" y="65"/>
      <point x="86" y="239"/>
      <point x="60" y="358" type="qcurve"/>
      <point x="144" y="374" type="line"/>
      <point x="183" y="226"/>
      <point x="437" y="54"/>
      <point x="618" y="54" type="qcurve" smooth="yes"/>
      <point x="744" y="54"/>
      <point x="932" y="134"/>
      <point x="1036" y="279"/>
      <point x="1036" y="376" type="qcurve" smooth="yes"/>
      <point x="1036" y="449"/>
      <point x="982" y="547"/>
      <point x="899" y="608"/>
      <point x="809" y="644"/>
      <point x="774" y="654" type="qcurve" smooth="yes"/>
      <point x="414" y="762" type="line" smooth="yes"/>
      <point x="336" y="785"/>
      <point x="223" y="851"/>
      <point x="151" y="935"/>
      <point x="116" y="1035"/>
      <point x="116" y="1092" type="qcurve" smooth="yes"/>
      <point x="116" y="1202"/>
      <point x="235" y="1373"/>
      <point x="447" y="1470"/>
      <point x="586" y="1470" type="qcurve" smooth="yes"/>
      <point x="727" y="1470"/>
      <point x="951" y="1366"/>
      <point x="1094" y="1177"/>
      <point x="1112" y="1050" type="qcurve"/>
      <point x="1028" y="1034" type="line"/>
      <point x="1014" y="1139"/>
      <point x="894" y="1298"/>
      <point x="704" y="1386"/>
      <point x="586" y="1386" type="qcurve" smooth="yes"/>
      <point x="473" y="1386"/>
      <point x="302" y="1308"/>
      <point x="206" y="1176"/>
      <point x="206" y="1094" type="qcurve" smooth="yes"/>
      <point x="206" y="1008"/>
      <point x="299" y="905"/>
      <point x="433" y="848"/>
      <point x="494" y="830" type="qcurve" smooth="yes"/>
      <point x="792" y="740" type="line" smooth="yes"/>
      <point x="830" y="729"/>
      <point x="940" y="686"/>
      <point x="1047" y="606"/>
      <point x="1118" y="475"/>
      <point x="1118" y="376" type="qcurve" smooth="yes"/>
      <point x="1118" y="283"/>
      <point x="1048" y="133"/>
      <point x="916" y="27"/>
      <point x="732" y="-30"/>
    </contour>
  </outline>
</glyph>
<glyph name="tcedilla" format="2">
  <advance width="758"/>
  <unicode hex="0163"/>
  <outline>
    <contour>
      <point x="406" y="-478" type="qcurve" smooth="yes"/>
      <point x="373" y="-478"/>
      <point x="313" y="-462"/>
      <point x="286" y="-450" type="qcurve"/>
      <point x="314" y="-376" type="line"/>
      <point x="364" y="-396"/>
      <point x="400" y="-396" type="qcurve" smooth="yes"/>
      <point x="445" y="-396"/>
      <point x="494" y="-338"/>
      <point x="494" y="-302" type="qcurve" smooth="yes"/>
      <point x="494" y="-251"/>
      <point x="410" y="-208"/>
      <point x="360" y="-192" type="qcurve"/>
      <point x="436" y="14" type="line"/>
      <point x="520" y="14" type="line"/>
      <point x="462" y="-142" type="line"/>
      <point x="513" y="-163"/>
      <point x="582" y="-241"/>
      <point x="582" y="-306" type="qcurve" smooth="yes"/>
      <point x="582" y="-378"/>
      <point x="478" y="-478"/>
    </contour>
    <contour>
      <point x="698" y="0" type="line"/>
      <point x="617" y="-18"/>
      <point x="459" y="-9"/>
      <point x="335" y="58"/>
      <point x="304" y="126" type="qcurve" smooth="yes"/>
      <point x="280" y="179"/>
      <point x="274" y="288"/>
      <point x="274" y="358" type="qcurve" smooth="yes"/>
      <point x="274" y="1380" type="line"/>
      <point x="358" y="1380" type="line"/>
      <point x="358" y="358" type="line" smooth="yes"/>
      <point x="358" y="288"/>
      <point x="361" y="202"/>
      <point x="380" y="164" type="qcurve" smooth="yes"/>
      <point x="416" y="92"/>
      <point x="572" y="59"/>
      <point x="698" y="80" type="qcurve"/>
    </contour>
    <contour>
      <point x="20" y="996" type="line"/>
      <point x="20" y="1080" type="line"/>
      <point x="698" y="1080" type="line"/>
      <point x="698" y="996" type="line"/>
    </contour>
  </outline>
</glyph>
<glyph name="Tcaron" format="2">
  <advance width="1180"/>
  <unicode hex="0164"/>
  <outline>
    <contour>
      <point x="344" y="1860" type="line"/>
      <point x="444" y="1860" type="line"/>
      <point x="590" y="1690" type="line"/>
      <point x="736" y="1860" type="line"/>
      <point x="836" y="1860" type="line"/>
      <point x="636" y="1620" type="line"/>
      <point x="544" y="1620" type="line"/>
    </contour>
    <contour>
      <point x="548" y="0" type="line"/>
      <point x="548" y="1356" type="line"/>
      <point x="20" y="1356" type="line"/>
      <point x="20" y="1440" type="line"/>
      <point x="1160" y="1440" type="line"/>
      <point x="1160" y="1356" type="line"/>
      <point x="632" y="1356" type="line"/>
      <point x="632" y="0" type="line"/>
    </contour>
  </outline>
</glyph>
<glyph name="ubreve" format="2">
  <advance width="1146"/>
  <unicode hex="016D"/>
  <outline>
    <contour>
      <point x="563" y="1212" type="qcurve" smooth="yes"/>
      <point x="500" y="1212"/>
      <point x="396" y="1274"/>
      <point x="335" y="1377"/>
      <point x="335" y="1440" type="qcurve"/>
      <point x="413" y="1440" type="line"/>
      <point x="413" y="1379"/>
      <point x="502" y="1290"/>
      <point x="563" y="1290" type="qcurve" smooth="yes"/>
      <point x="626" y="1290"/>
      <point x="713" y="1379"/>
      <point x="713" y="1440" type="qcurve"/>
      <point x="791" y="1440" type="line"/>
      <point x="791" y="1377"/>
      <point x="730" y="1274"/>
      <point x="626" y="1212"/>
    </contour>
    <contour>
      <point x="558" y="-24" type="qcurve" smooth="yes"/>
      <point x="476" y="-24"/>
      <point x="339" y="22"/>
      <point x="232" y="109"/>
      <point x="158" y="235"/>
      <point x="120" y="396"/>
      <point x="120" y="492" type="qcurve" smooth="yes"/>
      <point x="120" y="1080" type="line"/>
      <point x="204" y="1080" type="line"/>
      <point x="204" y="508" type="line" smooth="yes"/>
      <point x="204" y="393"/>
      <point x="251" y="223"/>
      <point x="343" y="112"/>
      <point x="474" y="58"/>
      <point x="558" y="58" type="qcurve" smooth="yes"/>
      <point x="657" y="58"/>
      <point x="796" y="127"/>
      <point x="882" y="247"/>
      <point x="922" y="403"/>
      <point x="922" y="490" type="qcurve"/>
      <point x="1000" y="492" type="line"/>
      <point x="1000" y="307"/>
      <point x="878" y="80"/>
      <point x="677" y="-24"/>
    </contour>
    <contour>
      <point x="928" y="0" type="line"/>
      <point x="928" y="220" type="line"/>
      <point x="922" y="220" type="line"/>
      <point x="922" y="1080" type="line"/>
      <point x="1006" y="1080" type="line"/>
      <point x="1006" y="0" type="line"/>
    </contour>
  </outline>
</glyph>
<glyph name="Uring" format="2">
  <advance width="1380"/>
  <unicode hex="016E"/>
  <outline>
    <contour>
      <point x="690" y="1560" type="qcurve" smooth="yes"/>
      <point x="637" y="1560"/>
      <point x="549" y="1612"/>
      <point x="496" y="1700"/>
      <point x="496" y="1754" type="qcurve" smooth="yes"/>
      <point x="496" y="1807"/>
      <point x="549" y="1895"/>
      <point x="637" y="1948"/>
      <point x="690" y="1948" type="qcurve" smooth="yes"/>
      <point x="744" y="1948"/>
      <point x="832" y="1895"/>
      <point x="884" y="1807"/>
      <point x="884" y="1754" type="qcurve" smooth="yes"/>
      <point x="884" y="1700"/>
      <point x="832" y="1612"/>
      <point x="744" y="1560"/>
    </contour>
    <contour>
      <point x="690" y="1644" type="qcurve" smooth="yes"/>
      <point x="737" y="1644"/>
      <point x="800" y="1709"/>
      <point x="800" y="1754" type="qcurve" smooth="yes"/>
      <point x="800" y="1800"/>
      <point x="737" y="1864"/>
      <point x="690" y="1864" type="qcurve" smooth="yes"/>
      <point x="645" y="1864"/>
      <point x="580" y="1800"/>
      <point x="580" y="1754" type="qcurve" smooth="yes"/>
      <point x="580" y="1709"/>
      <point x="645" y="1644"/>
    </contour>
    <contour>
      <point x="690" y="-30" type="qcurve" smooth="yes"/>
      <point x="530" y="-30"/>
      <point x="282" y="104"/>
      <point x="140" y="347"/>
      <point x="140" y="510" type="qcurve" smooth="yes"/>
      <point x="140" y="1440" type="line"/>
      <point x="224" y="1440" type="line"/>
      <point x="224" y="538" type="line" smooth="yes"/>
      <point x="224" y="405"/>
      <point x="314" y="218"/>
      <point x="456" y="103"/>
      <point x="618" y="50"/>
      <point x="690" y="50" type="qcurve" smooth="yes"/>
      <point x="762" y="50"/>
      <point x="924" y="103"/>
      <point x="1066" y="218"/>
      <point x="1156" y="405"/>
      <point x="1156" y="538" type="qcurve" smooth="yes"/>
      <point x="1156" y="1440" type="line"/>
      <point x="1240" y="1440" type="line"/>
      <point x="1240" y="510" type="line" smooth="yes"/>
      <point x="1240" y="348"/>
      <point x="1098" y="105"/>
      <point x="850" y="-30"/>
    </contour>
  </outline>
</glyph>
<glyph name="Uhungarumlaut" format="2">
  <advance width="1380"/>
  <unicode hex="0170"/>
  <outline>
    <contour>
      <point x="896" y="1890" type="line"/>
      <point x="830" y="1620" type="line"/>
      <point x="896" y="1620" type="line"/>
      <point x="992" y="1890" type="line"/>
    </contour>
    <contour>
      <point x="546" y="1890" type="line"/>
      <point x="480" y="1620" type="line"/>
      <point x="546" y="1620" type="line"/>
      <point x="642" y="1890" type="line"/>
    </contour>
    <contour>
      <point x="690" y="-30" type="qcurve" smooth="yes"/>
      <point x="530" y="-30"/>
      <point x="282" y="104"/>
      <point x="140" y="347"/>
      <point x="140" y="510" type="qcurve" smooth="yes"/>
      <point x="140" y="1440" type="line"/>
      <point x="224" y="1440" type="line"/>
      <point x="224" y="538" type="line" smooth="yes"/>
      <point x="224" y="405"/>
      <point x="314" y="218"/>
      <point x="456" y="103"/>
      <point x="618" y="50"/>
      <point x="690" y="50" type="qcurve" smooth="yes"/>
      <point x="762" y="50"/>
      <point x="924" y="103"/>
      <point x="1066" y="218"/>
      <point x="1156" y="405"/>
      <point x="1156" y="538" type="qcurve" smooth="yes"/>
      <point x="1156" y="1440" type="line"/>
      <point x="1240" y="1440" type="line"/>
      <point x="1240" y="510" type="line" smooth="yes"/>
      <point x="1240" y="348"/>
      <point x="1098" y="105"/>
      <point x="850" y="-30"/>
    </contour>
  </outline>
</glyph>
<glyph name="uogonek" format="2">
  <advance width="1146"/>
  <unicode hex="0173"/>
  <outline>
    <contour>
      <point x="864" y="-484" type="qcurve" smooth="yes"/>
      <point x="817" y="-484"/>
      <point x="737" y="-434"/>
      <point x="688" y="-352"/>
      <point x="688" y="-304" type="qcurve" smooth="yes"/>
      <point x="688" y="-244"/>
      <point x="758" y="-115"/>
      <point x="874" y="11"/>
      <point x="944" y="66" type="qcurve"/>
      <point x="1006" y="0" type="line"/>
      <point x="945" y="-40"/>
      <point x="840" y="-144"/>
      <point x="776" y="-255"/>
      <point x="776" y="-304" type="qcurve" smooth="yes"/>
      <point x="776" y="-349"/>
      <point x="830" y="-404"/>
      <point x="864" y="-404" type="qcurve" smooth="yes"/>
      <point x="891" y="-404"/>
      <point x="946" y="-371"/>
      <point x="968" y="-346" type="qcurve"/>
      <point x="1018" y="-402" type="line"/>
      <point x="985" y="-444"/>
      <point x="905" y="-484"/>
    </contour>
    <contour>
      <point x="558" y="-24" type="qcurve" smooth="yes"/>
      <point x="476" y="-24"/>
      <point x="339" y="22"/>
      <point x="232" y="109"/>
      <point x="158" y="235"/>
      <point x="120" y="396"/>
      <point x="120" y="492" type="qcurve" smooth="yes"/>
      <point x="120" y="1080" type="line"/>
      <point x="204" y="1080" type="line"/>
      <point x="204" y="508" type="line" smooth="yes"/>
      <point x="204" y="393"/>
      <point x="251" y="223"/>
      <point x="343" y="112"/>
      <point x="474" y="58"/>
      <point x="558" y="58" type="qcurve" smooth="yes"/>
      <point x="657" y="58"/>
      <point x="796" y="127"/>
      <point x="882" y="247"/>
      <point x="922" y="403"/>
      <point x="922" y="490" type="qcurve"/>
      <point x="1000" y="492" type="line"/>
      <point x="1000" y="307"/>
      <point x="878" y="80"/>
      <point x="677" y="-24"/>
    </contour>
    <contour>
      <point x="928" y="0" type="line"/>
      <point x="928" y="220" type="line"/>
      <point x="922" y="220" type="line"/>
      <point x="922" y="1080" type="line"/>
      <point x="1006" y="1080" type="line"/>
      <point x="1006" y="0" type="line"/>
    </contour>
  </outline>
</glyph>
<glyph name="Wcircumflex" format="2">
  <advance width="1818"/>
  <unicode hex="0174"/>
  <outline>
    <contour>
      <point x="664" y="1620" type="line"/>
      <point x="864" y="1860" type="line"/>
      <point x="956" y="1860" type="line"/>
      <point x="1156" y="1620" type="line"/>
      <point x="1056" y="1620" type="line"/>
      <point x="910" y="1790" type="line"/>
      <point x="764" y="1620" type="line"/>
    </contour>
    <contour>
      <point x="452" y="0" type="line"/>
      <point x="40" y="1440" type="line"/>
      <point x="126" y="1440" type="line"/>
      <point x="496" y="152" type="line"/>
      <point x="864" y="1440" type="line"/>
      <point x="952" y="1440" type="line"/>
      <point x="1322" y="152" type="line"/>
      <point x="1690" y="1440" type="line"/>
      <point x="1778" y="1440" type="line"/>
      <point x="1366" y="0" type="line"/>
      <point x="1278" y="0" type="line"/>
      <point x="908" y="1286" type="line"/>
      <point x="540" y="0" type="line"/>
    </contour>
  </outline>
</glyph>
<glyph name="wcircumflex" format="2">
  <advance width="1488"/>
  <unicode hex="0175"/>
  <outline>
    <contour>
      <point x="498" y="1260" type="line"/>
      <point x="698" y="1500" type="line"/>
      <point x="790" y="1500" type="line"/>
      <point x="990" y="1260" type="line"/>
      <point x="890" y="1260" type="line"/>
      <point x="744" y="1430" type="line"/>
      <point x="598" y="1260" type="line"/>
    </contour>
    <contour>
      <point x="370" y="0" type="line"/>
      <point x="40" y="1080" type="line"/>
      <point x="128" y="1080" type="line"/>
      <point x="414" y="144" type="line"/>
      <point x="700" y="1080" type="line"/>
      <point x="788" y="1080" type="line"/>
      <point x="1074" y="144" type="line"/>
      <point x="1362" y="1080" type="line"/>
      <point x="1448" y="1080" type="line"/>
      <point x="1118" y="0" type="line"/>
      <point x="1030" y="0" type="line"/>
      <point x="744" y="938" type="line"/>
      <point x="458" y="0" type="line"/>
    </contour>
  </outline>
</glyph>
<glyph name="Ycircumflex" format="2">
  <advance width="1038"/>
  <unicode hex="0176"/>
  <outline>
    <contour>
      <point x="274" y="1620" type="line"/>
      <point x="474" y="1860" type="line"/>
      <point x="566" y="1860" type="line"/>
      <point x="766" y="1620" type="line"/>
      <point x="666" y="1620" type="line"/>
      <point x="520" y="1790" type="line"/>
      <point x="374" y="1620" type="line"/>
    </contour>
    <contour>
      <point x="478" y="0" type="line"/>
      <point x="478" y="612" type="line"/>
      <point x="0" y="1440" type="line"/>
      <point x="96" y="1440" type="line"/>
      <point x="520" y="708" type="line"/>
      <point x="942" y="1440" type="line"/>
      <point x="1038" y="1440" type="line"/>
      <point x="562" y="612" type="line"/>
      <point x="562" y="0" type="line"/>
    </contour>
  </outline>
</glyph>
<glyph name="Ydieresis" format="2">
  <advance width="1038"/>
  <unicode hex="0178"/>
  <outline>
    <contour>
      <point x="340" y="1667" type="qcurve" smooth="yes"/>
      <point x="309" y="1667"/>
      <point x="266" y="1709"/>
      <point x="266" y="1740" type="qcurve" smooth="yes"/>
      <point x="266" y="1772"/>
      <point x="309" y="1814"/>
      <point x="340" y="1814" type="qcurve" smooth="yes"/>
      <point x="371" y="1814"/>
      <point x="414" y="1772"/>
      <point x="414" y="1740" type="qcurve" smooth="yes"/>
      <point x="414" y="1709"/>
      <point x="371" y="1667"/>
    </contour>
    <contour>
      <point x="700" y="1667" type="qcurve" smooth="yes"/>
      <point x="669" y="1667"/>
      <point x="626" y="1709"/>
      <point x="626" y="1740" type="qcurve" smooth="yes"/>
      <point x="626" y="1772"/>
      <point x="669" y="1814"/>
      <point x="700" y="1814" type="qcurve" smooth="yes"/>
      <point x="731" y="1814"/>
      <point x="774" y="1772"/>
      <point x="774" y="1740" type="qcurve" smooth="yes"/>
      <point x="774" y="1709"/>
      <point x="731" y="1667"/>
    </contour>
    <contour>
      <point x="478" y="0" type="line"/>
      <point x="478" y="612" type="line"/>
      <point x="0" y="1440" type="line"/>
      <point x="96" y="1440" type="line"/>
      <point x="520" y="708" type="line"/>
      <point x="942" y="1440" type="line"/>
      <point x="1038" y="1440" type="line"/>
      <point x="562" y="612" type="line"/>
      <point x="562" y="0" type="line"/>
    </contour>
  </outline>
</glyph>
<glyph name="zdotaccent" format="2">
  <advance width="1054"/>
  <unicode hex="017C"/>
  <outline>
    <contour>
      <point x="532" y="1307" type="qcurve" smooth="yes"/>
      <point x="501" y="1307"/>
      <point x="458" y="1349"/>
      <point x="458" y="1380" type="qcurve" smooth="yes"/>
      <point x="458" y="1412"/>
      <point x="501" y="1454"/>
      <point x="532" y="1454" type="qcurve" smooth="yes"/>
      <point x="563" y="1454"/>
      <point x="606" y="1412"/>
      <point x="606" y="1380" type="qcurve" smooth="yes"/>
      <point x="606" y="1349"/>
      <point x="563" y="1307"/>
    </contour>
    <contour>
      <point x="40" y="0" type="line"/>
      <point x="40" y="30" type="line"/>
      <point x="820" y="992" type="line"/>
      <point x="88" y="992" type="line"/>
      <point x="88" y="1080" type="line"/>
      <point x="974" y="1080" type="line"/>
      <point x="974" y="1046" type="line"/>
      <point x="194" y="88" type="line"/>
      <point x="926" y="88" type="line"/>
      <point x="926" y="0" type="line"/>
    </contour>
  </outline>
</glyph>
<glyph name="Zcaron" format="2">
  <advance width="1162"/>
  <unicode hex="017D"/>
  <outline>
    <contour>
      <point x="386" y="1860" type="line"/>
      <point x="486" y="1860" type="line"/>
      <point x="632" y="1690" type="line"/>
      <point x="778" y="1860" type="line"/>
      <point x="878" y="1860" type="line"/>
      <point x="678" y="1620" type="line"/>
      <point x="586" y="1620" type="line"/>
    </contour>
    <contour>
      <point x="100" y="0" type="line"/>
      <point x="100" y="30" type="line"/>
      <point x="938" y="1356" type="line"/>
      <point x="100" y="1356" type="line"/>
      <point x="100" y="1440" type="line"/>
      <point x="1062" y="1440" type="line"/>
      <point x="1062" y="1406" type="line"/>
      <point x="228" y="82" type="line"/>
      <point x="1062" y="82" type="line"/>
      <point x="1062" y="0" type="line"/>
    </contour>
  </outline>
</glyph>
<glyph name="zcaron" format="2">
  <advance width="1054"/>
  <unicode hex="017E"/>
  <outline>
    <contour>
      <point x="306" y="1500" type="line"/>
      <point x="406" y="1500" type="line"/>
      <point x="552" y="1330" type="line"/>
      <point x="698" y="1500" type="line"/>
      <point x="798" y="1500" type="line"/>
      <point x="598" y="1260" type="line"/>
      <point x="506" y="1260" type="line"/>
    </contour>
    <contour>
      <point x="40" y="0" type="line"/>
      <point x="40" y="30" type="line"/>
      <point x="820" y="992" type="line"/>
      <point x="88" y="992" type="line"/>
      <point x="88" y="1080" type="line"/>
      <point x="974" y="1080" type="line"/>
      <point x="974" y="1046" type="line"/>
      <point x="194" y="88" type="line"/>
      <point x="926" y="88" type="line"/>
      <point x="926" y="0" type="line"/>
    </contour>
  </outline>
</glyph>
<glyph name="Tcommaaccent" format="2">
  <advance width="1180"/>
  <unicode hex="021A"/>
  <outline>
    <contour>
      <point x="576" y="-240" type="line"/>
      <point x="510" y="-510" type="line"/>
      <point x="576" y="-510" type="line"/>
      <point x="672" y="-240" type="line"/>
    </contour>
    <contour>
      <point x="548" y="0" type="line"/>
      <point x="548" y="1356" type="line"/>
      <point x="20" y="1356" type="line"/>
      <point x="20" y="1440" type="line"/>
      <point x="1160" y="1440" type="line"/>
      <point x="1160" y="1356" type="line"/>
      <point x="632" y="1356" type="line"/>
      <point x="632" y="0" type="line"/>
    </contour>
  </outline>
</glyph>
<glyph name="breve" format="2">
  <advance width="936"/>
  <unicode hex="02D8"/>
  <outline>
    <contour>
      <point x="468" y="1572" type="qcurve" smooth="yes"/>
      <point x="405" y="1572"/>
      <point x="301" y="1634"/>
      <point x="240" y="1737"/>
      <point x="240" y="1800" type="qcurve"/>
      <point x="318" y="1800" type="line"/>
      <point x="318" y="1739"/>
      <point x="407" y="1650"/>
      <point x="468" y="1650" type="qcurve" smooth="yes"/>
      <point x="531" y="1650"/>
      <point x="618" y="1739"/>
      <point x="618" y="1800" type="qcurve"/>
      <point x="696" y="1800" type="line"/>
      <point x="696" y="1737"/>
      <point x="635" y="1634"/>
      <point x="531" y="1572"/>
    </contour>
  </outline>
</glyph>
<glyph name="dotaccent" format="2">
  <advance width="600"/>
  <unicode hex="02D9"/>
  <outline>
    <contour>
      <point x="300" y="1814" type="qcurve" smooth="yes"/>
      <point x="269" y="1814"/>
      <point x="226" y="1772"/>
      <point x="226" y="1740" type="qcurve" smooth="yes"/>
      <point x="226" y="1709"/>
      <point x="269" y="1667"/>
      <point x="300" y="1667" type="qcurve" smooth="yes"/>
      <point x="331" y="1667"/>
      <point x="374" y="1709"/>
      <point x="374" y="1740" type="qcurve" smooth="yes"/>
      <point x="374" y="1772"/>
      <point x="331" y="1814"/>
    </contour>
  </outline>
</glyph>
<glyph name="dieresistonos" format="2">
  <advance width="1200"/>
  <unicode hex="0385"/>
  <outline>
    <contour>
      <point x="602" y="1530" type="line"/>
      <point x="536" y="1260" type="line"/>
      <point x="602" y="1260" type="line"/>
      <point x="698" y="1530" type="line"/>
    </contour>
    <contour>
      <point x="820" y="1303" type="qcurve" smooth="yes"/>
      <point x="789" y="1303"/>
      <point x="746" y="1345"/>
      <point x="746" y="1376" type="qcurve" smooth="yes"/>
      <point x="746" y="1408"/>
      <point x="789" y="1450"/>
      <point x="820" y="1450" type="qcurve" smooth="yes"/>
      <point x="851" y="1450"/>
      <point x="894" y="1408"/>
      <point x="894" y="1376" type="qcurve" smooth="yes"/>
      <point x="894" y="1345"/>
      <point x="851" y="1303"/>
    </contour>
    <contour>
      <point x="382" y="1303" type="qcurve" smooth="yes"/>
      <point x="351" y="1303"/>
      <point x="308" y="1345"/>
      <point x="308" y="1376" type="qcurve" smooth="yes"/>
      <point x="308" y="1408"/>
      <point x="351" y="1450"/>
      <point x="382" y="1450" type="qcurve" smooth="yes"/>
      <point x="413" y="1450"/>
      <point x="456" y="1408"/>
      <point x="456" y="1376" type="qcurve" smooth="yes"/>
      <point x="456" y="1345"/>
      <point x="413" y="1303"/>
    </contour>
  </outline>
</glyph>
<glyph name="Delta" format="2">
  <advance width="1218"/>
  <unicode hex="0394"/>
  <outline>
    <contour>
      <point x="110" y="0" type="line"/>
      <point x="110" y="84" type="line"/>
      <point x="1108" y="84" type="line"/>
      <point x="1108" y="0" type="line"/>
    </contour>
    <contour>
      <point x="564" y="1440" type="line"/>
      <point x="654" y="1440" type="line"/>
      <point x="1178" y="0" type="line"/>
      <point x="1088" y="0" type="line"/>
      <point x="608" y="1318" type="line"/>
      <point x="130" y="0" type="line"/>
      <point x="40" y="0" type="line"/>
    </contour>
  </outline>
</glyph>
<glyph name="Xi" format="2">
  <advance width="1340"/>
  <unicode hex="039E"/>
  <outline>
    <contour>
      <point x="140" y="1356" type="line"/>
      <point x="140" y="1440" type="line"/>
      <point x="1200" y="1440" type="line"/>
      <point x="1200" y="1356" type="line"/>
    </contour>
    <contour>
      <point x="140" y="0" type="line"/>
      <point x="140" y="84" type="line"/>
      <point x="1200" y="84" type="line"/>
      <point x="1200" y="0" type="line"/>
    </contour>
    <contour>
      <point x="240" y="678" type="line"/>
      <point x="240" y="762" type="line"/>
      <point x="1100" y="762" type="line"/>
      <point x="1100" y="678" type="line"/>
    </contour>
  </outline>
</glyph>
<glyph name="Sigma" format="2">
  <advance width="1320"/>
  <unicode hex="03A3"/>
  <outline>
    <contour>
      <point x="140" y="0" type="line"/>
      <point x="140" y="80" type="line"/>
      <point x="770" y="720" type="line"/>
      <point x="140" y="1356" type="line"/>
      <point x="140" y="1440" type="line"/>
      <point x="1180" y="1440" type="line"/>
      <point x="1180" y="1356" type="line"/>
      <point x="282" y="1356" type="line"/>
      <point x="896" y="736" type="line"/>
      <point x="896" y="704" type="line"/>
      <point x="282" y="84" type="line"/>
      <point x="1142" y="84" type="line"/>
      <point x="1142" y="0" type="line"/>
    </contour>
  </outline>
</glyph>
<glyph name="Psi" format="2">
  <advance width="1380"/>
  <unicode hex="03A8"/>
  <outline>
    <contour>
      <point x="648" y="0" type="line"/>
      <point x="648" y="374" type="line"/>
      <point x="527" y="377"/>
      <point x="342" y="463"/>
      <point x="214" y="608"/>
      <point x="178" y="698" type="qcurve" smooth="yes"/>
      <point x="150" y="770"/>
      <point x="140" y="880"/>
      <point x="140" y="910" type="qcurve" smooth="yes"/>
      <point x="140" y="1440" type="line"/>
      <point x="224" y="1440" type="line"/>
      <point x="224" y="1014" type="line" smooth="yes"/>
      <point x="224" y="977"/>
      <point x="229" y="853"/>
      <point x="244" y="790" type="qcurve" smooth="yes"/>
      <point x="279" y="646"/>
      <point x="489" y="456"/>
      <point x="648" y="454" type="qcurve"/>
      <point x="648" y="1440" type="line"/>
      <point x="732" y="1440" type="line"/>
      <point x="732" y="454" type="line"/>
      <point x="891" y="454"/>
      <point x="1102" y="646"/>
      <point x="1136" y="790" type="qcurve" smooth="yes"/>
      <point x="1151" y="853"/>
      <point x="1156" y="977"/>
      <point x="1156" y="1014" type="qcurve" smooth="yes"/>
      <point x="1156" y="1440" type="line"/>
      <point x="1240" y="1440" type="line"/>
      <point x="1240" y="910" type="line" smooth="yes"/>
      <point x="1240" y="880"/>
      <point x="1231" y="770"/>
      <point x="1202" y="698" type="qcurve" smooth="yes"/>
      <point x="1166" y="607"/>
      <point x="1036" y="462"/>
      <point x="851" y="376"/>
      <point x="732" y="374" type="qcurve"/>
      <point x="732" y="0" type="line"/>
    </contour>
  </outline>
</glyph>
<glyph name="alpha" format="2">
  <advance width="1192"/>
  <unicode hex="03B1"/>
  <outline>
    <contour>
      <point x="550" y="-30" type="qcurve" smooth="yes"/>
      <point x="397" y="-30"/>
      <point x="188" y="121"/>
      <point x="80" y="379"/>
      <point x="80" y="540" type="qcurve" smooth="yes"/>
      <point x="80" y="700"/>
      <point x="187" y="958"/>
      <point x="397" y="1110"/>
      <point x="552" y="1110" type="qcurve" smooth="yes"/>
      <point x="734" y="1110"/>
      <point x="969" y="896"/>
      <point x="994" y="710" type="qcurve"/>
      <point x="974" y="656" type="line"/>
      <point x="974" y="1080" type="line"/>
      <point x="1052" y="1080" type="line"/>
      <point x="1052" y="0" type="line"/>
      <point x="974" y="0" type="line"/>
      <point x="974" y="428" type="line"/>
      <point x="994" y="374" type="line"/>
      <point x="969" y="185"/>
      <point x="730" y="-30"/>
    </contour>
    <contour>
      <point x="550" y="54" type="qcurve" smooth="yes"/>
      <point x="677" y="54"/>
      <point x="848" y="182"/>
      <point x="934" y="403"/>
      <point x="934" y="542" type="qcurve" smooth="yes"/>
      <point x="934" y="683"/>
      <point x="847" y="902"/>
      <point x="676" y="1026"/>
      <point x="550" y="1026" type="qcurve" smooth="yes"/>
      <point x="421" y="1026"/>
      <point x="252" y="899"/>
      <point x="170" y="680"/>
      <point x="170" y="542" type="qcurve" smooth="yes"/>
      <point x="170" y="403"/>
      <point x="256" y="182"/>
      <point x="425" y="54"/>
    </contour>
  </outline>
</glyph>
<glyph name="beta" format="2">
  <advance width="1086"/>
  <unicode hex="03B2"/>
  <outline>
    <contour>
      <point x="140" y="-480" type="line"/>
      <point x="140" y="1080" type="line" smooth="yes"/>
      <point x="140" y="1131"/>
      <point x="155" y="1222"/>
      <point x="168" y="1256" type="qcurve" smooth="yes"/>
      <point x="192" y="1319"/>
      <point x="285" y="1416"/>
      <point x="424" y="1470"/>
      <point x="518" y="1470" type="qcurve" smooth="yes"/>
      <point x="632" y="1470"/>
      <point x="802" y="1385"/>
      <point x="896" y="1222"/>
      <point x="896" y="1104" type="qcurve" smooth="yes"/>
      <point x="896" y="984"/>
      <point x="792" y="810"/>
      <point x="688" y="784" type="qcurve"/>
      <point x="740" y="780"/>
      <point x="858" y="729"/>
      <point x="962" y="633"/>
      <point x="1028" y="487"/>
      <point x="1028" y="386" type="qcurve" smooth="yes"/>
      <point x="1028" y="269"/>
      <point x="926" y="81"/>
      <point x="727" y="-30"/>
      <point x="582" y="-30" type="qcurve" smooth="yes"/>
      <point x="459" y="-30"/>
      <point x="278" y="51"/>
      <point x="222" y="118" type="qcurve"/>
      <point x="222" y="-480" type="line"/>
    </contour>
    <contour>
      <point x="586" y="56" type="qcurve" smooth="yes"/>
      <point x="689" y="56"/>
      <point x="848" y="141"/>
      <point x="938" y="291"/>
      <point x="938" y="390" type="qcurve" smooth="yes"/>
      <point x="938" y="546"/>
      <point x="713" y="722"/>
      <point x="518" y="728" type="qcurve"/>
      <point x="518" y="812" type="line"/>
      <point x="594" y="822"/>
      <point x="725" y="887"/>
      <point x="806" y="1010"/>
      <point x="806" y="1106" type="qcurve" smooth="yes"/>
      <point x="806" y="1235"/>
      <point x="654" y="1386"/>
      <point x="520" y="1386" type="qcurve" smooth="yes"/>
      <point x="427" y="1386"/>
      <point x="279" y="1302"/>
      <point x="250" y="1212" type="qcurve" smooth="yes"/>
      <point x="238" y="1173"/>
      <point x="230" y="1086"/>
      <point x="230" y="1042" type="qcurve" smooth="yes"/>
      <point x="230" y="408" type="line" smooth="yes"/>
      <point x="230" y="365"/>
      <point x="239" y="291"/>
      <point x="246" y="264" type="qcurve"/>
      <point x="273" y="171"/>
      <point x="465" y="56"/>
    </contour>
  </outline>
</glyph>
<glyph name="theta" format="2">
  <advance width="1276"/>
  <unicode hex="03B8"/>
  <outline>
    <contour>
      <point x="128" y="678" type="line"/>
      <point x="128" y="762" type="line"/>
      <point x="1146" y="762" type="line"/>
      <point x="1146" y="678" type="line"/>
    </contour>
    <contour>
      <point x="638" y="-30" type="qcurve" smooth="yes"/>
      <point x="494" y="-30"/>
      <point x="283" y="96"/>
      <point x="147" y="309"/>
      <point x="80" y="578"/>
      <point x="80" y="720" type="qcurve" smooth="yes"/>
      <point x="80" y="863"/>
      <point x="147" y="1130"/>
      <point x="283" y="1343"/>
      <point x="494" y="1468"/>
      <point x="638" y="1468" type="qcurve" smooth="yes"/>
      <point x="782" y="1468"/>
      <point x="993" y="1343"/>
      <point x="1129" y="1130"/>
      <point x="1196" y="863"/>
      <point x="1196" y="720" type="qcurve" smooth="yes"/>
      <point x="1196" y="570"/>
      <point x="1129" y="300"/>
      <point x="993" y="90"/>
      <point x="782" y="-30"/>
    </contour>
    <contour>
      <point x="638" y="54" type="qcurve" smooth="yes"/>
      <point x="754" y="54"/>
      <point x="928" y="162"/>
      <point x="1045" y="349"/>
      <point x="1105" y="589"/>
      <point x="1106" y="720" type="qcurve" smooth="yes"/>
      <point x="1108" y="851"/>
      <point x="1049" y="1090"/>
      <point x="931" y="1276"/>
      <point x="754" y="1384"/>
      <point x="638" y="1384" type="qcurve" smooth="yes"/>
      <point x="522" y="1384"/>
      <point x="348" y="1276"/>
      <point x="231" y="1090"/>
      <point x="172" y="851"/>
      <point x="170" y="720" type="qcurve" smooth="yes"/>
      <point x="169" y="589"/>
      <point x="227" y="349"/>
      <point x="345" y="162"/>
      <point x="522" y="54"/>
    </contour>
  </outline>
</glyph>
<glyph name="iota" format="2">
  <advance width="644"/>
  <unicode hex="03B9"/>
  <outline>
    <contour>
      <point x="394" y="-10" type="qcurve" smooth="yes"/>
      <point x="324" y="-1"/>
      <point x="219" y="65"/>
      <point x="190" y="126" type="qcurve" smooth="yes"/>
      <point x="166" y="179"/>
      <point x="160" y="288"/>
      <point x="160" y="358" type="qcurve" smooth="yes"/>
      <point x="160" y="1080" type="line"/>
      <point x="244" y="1080" type="line"/>
      <point x="244" y="358" type="line" smooth="yes"/>
      <point x="244" y="288"/>
      <point x="245" y="204"/>
      <point x="266" y="162" type="qcurve"/>
      <point x="289" y="119"/>
      <point x="356" y="78"/>
      <point x="404" y="72" type="qcurve"/>
      <point x="449" y="68"/>
      <point x="544" y="71"/>
      <point x="584" y="80" type="qcurve"/>
      <point x="584" y="0" type="line"/>
      <point x="552" y="-7"/>
      <point x="486" y="-14"/>
      <point x="423" y="-14"/>
    </contour>
  </outline>
</glyph>
<glyph name="lambda" format="2">
  <advance width="996"/>
  <unicode hex="03BB"/>
  <outline>
    <contour>
      <point x="80" y="0" type="line"/>
      <point x="472" y="1080" type="line"/>
      <point x="433" y="1183"/>
      <point x="379" y="1323"/>
      <point x="294" y="1394"/>
      <point x="210" y="1394" type="qcurve" smooth="yes"/>
      <point x="160" y="1394" type="line"/>
      <point x="160" y="1470" type="line"/>
      <point x="220" y="1470" type="line" smooth="yes"/>
      <point x="241" y="1470"/>
      <point x="291" y="1467"/>
      <point x="310" y="1462" type="qcurve"/>
      <point x="381" y="1447"/>
      <point x="470" y="1333"/>
      <point x="532" y="1169"/>
      <point x="564" y="1080" type="qcurve" smooth="yes"/>
      <point x="956" y="0" type="line"/>
      <point x="866" y="0" type="line"/>
      <point x="518" y="958" type="line"/>
      <point x="168" y="0" type="line"/>
    </contour>
  </outline>
</glyph>
<glyph name="tau" format="2">
  <advance width="990"/>
  <unicode hex="03C4"/>
  <outline>
    <contour>
      <point x="682" y="-10" type="qcurve" smooth="yes"/>
      <point x="612" y="-1"/>
      <point x="507" y="65"/>
      <point x="478" y="126" type="qcurve" smooth="yes"/>
      <point x="454" y="179"/>
      <point x="448" y="288"/>
      <point x="448" y="358" type="qcurve" smooth="yes"/>
      <point x="448" y="996" type="line"/>
      <point x="50" y="996" type="line"/>
      <point x="50" y="1080" type="line"/>
      <point x="930" y="1080" type="line"/>
      <point x="930" y="996" type="line"/>
      <point x="532" y="996" type="line"/>
      <point x="532" y="358" type="line" smooth="yes"/>
      <point x="532" y="288"/>
      <point x="533" y="204"/>
      <point x="554" y="162" type="qcurve"/>
      <point x="577" y="119"/>
      <point x="644" y="78"/>
      <point x="692" y="72" type="qcurve"/>
      <point x="737" y="68"/>
      <point x="832" y="71"/>
      <point x="872" y="80" type="qcurve"/>
      <point x="872" y="0" type="line"/>
      <point x="840" y="-7"/>
      <point x="775" y="-14"/>
      <point x="711" y="-14"/>
    </contour>
  </outline>
</glyph>
<glyph name="psi" format="2">
  <advance width="1340"/>
  <unicode hex="03C8"/>
  <outline>
    <contour>
      <point x="628" y="-450" type="line"/>
      <point x="628" y="-30" type="line"/>
      <point x="512" y="-27"/>
      <point x="326" y="60"/>
      <point x="194" y="205"/>
      <point x="158" y="294" type="qcurve" smooth="yes"/>
      <point x="130" y="366"/>
      <point x="120" y="478"/>
      <point x="120" y="506" type="qcurve" smooth="yes"/>
      <point x="120" y="1080" type="line"/>
      <point x="204" y="1080" type="line"/>
      <point x="204" y="610" type="line" smooth="yes"/>
      <point x="204" y="576"/>
      <point x="209" y="448"/>
      <point x="224" y="386" type="qcurve" smooth="yes"/>
      <point x="247" y="290"/>
      <point x="365" y="139"/>
      <point x="532" y="51"/>
      <point x="628" y="50" type="qcurve"/>
      <point x="628" y="1080" type="line"/>
      <point x="712" y="1080" type="line"/>
      <point x="712" y="50" type="line"/>
      <point x="808" y="51"/>
      <point x="975" y="139"/>
      <point x="1093" y="290"/>
      <point x="1116" y="386" type="qcurve" smooth="yes"/>
      <point x="1131" y="448"/>
      <point x="1136" y="576"/>
      <point x="1136" y="610" type="qcurve" smooth="yes"/>
      <point x="1136" y="1080" type="line"/>
      <point x="1220" y="1080" type="line"/>
      <point x="1220" y="506" type="line" smooth="yes"/>
      <point x="1220" y="478"/>
      <point x="1211" y="366"/>
      <point x="1182" y="294" type="qcurve" smooth="yes"/>
      <point x="1148" y="210"/>
      <point x="1019" y="65"/>
      <point x="832" y="-27"/>
      <point x="712" y="-30" type="qcurve"/>
      <point x="712" y="-450" type="line"/>
    </contour>
  </outline>
</glyph>
<glyph name="upsilontonos" format="2">
  <advance width="1116"/>
  <unicode hex="03CD"/>
  <outline>
    <contour>
      <point x="577" y="1530" type="line"/>
      <point x="511" y="1260" type="line"/>
      <point x="577" y="1260" type="line"/>
      <point x="673" y="1530" type="line"/>
    </contour>
    <contour>
      <point x="120" y="492" type="qcurve" smooth="yes"/>
      <point x="120" y="1080" type="line"/>
      <point x="204" y="1080" type="line"/>
      <point x="204" y="508" type="line" smooth="yes"/>
      <point x="204" y="393"/>
      <point x="251" y="223"/>
      <point x="343" y="112"/>
      <point x="474" y="58"/>
      <point x="558" y="58" type="qcurve" smooth="yes"/>
      <point x="642" y="58"/>
      <point x="773" y="112"/>
      <point x="865" y="223"/>
      <point x="912" y="393"/>
      <point x="912" y="508" type="qcurve" smooth="yes"/>
      <point x="912" y="1080" type="line"/>
      <point x="996" y="1080" type="line"/>
      <point x="996" y="492" type="line" smooth="yes"/>
      <point x="996" y="396"/>
      <point x="958" y="235"/>
      <point x="884" y="109"/>
      <point x="777" y="22"/>
      <point x="640" y="-24"/>
      <point x="558" y="-24" type="qcurve" smooth="yes"/>
      <point x="476" y="-24"/>
      <point x="339" y="22"/>
      <point x="232" y="109"/>
      <point x="158" y="235"/>
      <point x="120" y="396"/>
    </contour>
  </outline>
</glyph>
<glyph name="omegatonos" format="2">
  <advance width="1524"/>
  <unicode hex="03CE"/>
  <outline>
    <contour>
      <point x="795" y="1530" type="line"/>
      <point x="891" y="1530" type="line"/>
      <point x="795" y="1260" type="line"/>
      <point x="729" y="1260" type="line"/>
    </contour>
    <contour>
      <point x="470" y="-32" type="qcurve" smooth="yes"/>
      <point x="337" y="-32"/>
      <point x="164" y="95"/>
      <point x="80" y="321"/>
      <point x="80" y="470" type="qcurve" smooth="yes"/>
      <point x="80" y="694"/>
      <point x="262" y="1007"/>
      <point x="464" y="1110" type="qcurve"/>
      <point x="508" y="1032" type="line"/>
      <point x="327" y="939"/>
      <point x="170" y="670"/>
      <point x="170" y="478" type="qcurve" smooth="yes"/>
      <point x="170" y="357"/>
      <point x="235" y="164"/>
      <point x="369" y="52"/>
      <point x="472" y="52" type="qcurve" smooth="yes"/>
      <point x="576" y="52"/>
      <point x="683" y="150"/>
      <point x="720" y="310"/>
      <point x="720" y="402" type="qcurve" smooth="yes"/>
      <point x="720" y="688" type="line"/>
      <point x="804" y="688" type="line"/>
      <point x="804" y="402" type="line" smooth="yes"/>
      <point x="804" y="313"/>
      <point x="840" y="153"/>
      <point x="947" y="52"/>
      <point x="1052" y="52" type="qcurve" smooth="yes"/>
      <point x="1157" y="52"/>
      <point x="1290" y="167"/>
      <point x="1354" y="360"/>
      <point x="1354" y="478" type="qcurve" smooth="yes"/>
      <point x="1354" y="673"/>
      <point x="1195" y="941"/>
      <point x="1016" y="1032" type="qcurve"/>
      <point x="1060" y="1110" type="line"/>
      <point x="1266" y="1005"/>
      <point x="1444" y="691"/>
      <point x="1444" y="470" type="qcurve" smooth="yes"/>
      <point x="1444" y="319"/>
      <point x="1358" y="93"/>
      <point x="1186" y="-32"/>
      <point x="1056" y="-32" type="qcurve" smooth="yes"/>
      <point x="938" y="-32"/>
      <point x="766" y="95"/>
      <point x="746" y="228" type="qcurve"/>
      <point x="778" y="228" type="line"/>
      <point x="759" y="95"/>
      <point x="587" y="-32"/>
    </contour>
  </outline>
</glyph>
<glyph name="Djecyr" format="2">
  <advance width="1252"/>
  <unicode hex="0402"/>
  <outline>
    <contour>
      <point x="140" y="0" type="line"/>
      <point x="140" y="1356" type="line"/>
      <point x="0" y="1356" type="line"/>
      <point x="0" y="1440" type="line"/>
      <point x="540" y="1440" type="line"/>
      <point x="540" y="1356" type="line"/>
      <point x="218" y="1356" type="line"/>
      <point x="218" y="898" type="line"/>
      <point x="280" y="1008"/>
      <point x="510" y="1110"/>
      <point x="660" y="1110" type="qcurve" smooth="yes"/>
      <point x="905" y="1110"/>
      <point x="1172" y="843"/>
      <point x="1172" y="568" type="qcurve" smooth="yes"/>
      <point x="1172" y="400"/>
      <point x="1066" y="144"/>
      <point x="850" y="0"/>
      <point x="686" y="0" type="qcurve"/>
      <point x="686" y="84" type="line"/>
      <point x="812" y="84"/>
      <point x="992" y="200"/>
      <point x="1088" y="422"/>
      <point x="1088" y="582" type="qcurve" smooth="yes"/>
      <point x="1088" y="736"/>
      <point x="992" y="932"/>
      <point x="802" y="1026"/>
      <point x="660" y="1026" type="qcurve" smooth="yes"/>
      <point x="500" y="1026"/>
      <point x="291" y="901"/>
      <point x="250" y="760" type="qcurve" smooth="yes"/>
      <point x="231" y="691"/>
      <point x="224" y="544"/>
      <point x="224" y="476" type="qcurve" smooth="yes"/>
      <point x="224" y="0" type="line"/>
    </contour>
  </outline>
</glyph>
<glyph name="Njecyr" format="2">
  <advance width="2058"/>
  <unicode hex="040A"/>
  <outline>
    <contour>
      <point x="140" y="0" type="line"/>
      <point x="140" y="1440" type="line"/>
      <point x="224" y="1440" type="line"/>
      <point x="224" y="864" type="line"/>
      <point x="1072" y="864" type="line"/>
      <point x="1072" y="780" type="line"/>
      <point x="224" y="780" type="line"/>
      <point x="224" y="0" type="line"/>
    </contour>
    <contour>
      <point x="1016" y="0" type="line"/>
      <point x="1016" y="1440" type="line"/>
      <point x="1100" y="1440" type="line"/>
      <point x="1100" y="864" type="line"/>
      <point x="1546" y="864" type="line" smooth="yes"/>
      <point x="1567" y="864"/>
      <point x="1611" y="861"/>
      <point x="1638" y="856" type="qcurve"/>
      <point x="1742" y="840"/>
      <point x="1895" y="721"/>
      <point x="1978" y="540"/>
      <point x="1978" y="432" type="qcurve" smooth="yes"/>
      <point x="1978" y="324"/>
      <point x="1895" y="143"/>
      <point x="1742" y="24"/>
      <point x="1638" y="8" type="qcurve" smooth="yes"/>
      <point x="1611" y="4"/>
      <point x="1567" y="0"/>
      <point x="1546" y="0" type="qcurve" smooth="yes"/>
    </contour>
    <contour>
      <point x="1100" y="84" type="line"/>
      <point x="1546" y="84" type="line" smooth="yes"/>
      <point x="1563" y="84"/>
      <point x="1610" y="88"/>
      <point x="1634" y="92" type="qcurve" smooth="yes"/>
      <point x="1717" y="108"/>
      <point x="1830" y="208"/>
      <point x="1888" y="351"/>
      <point x="1888" y="432" type="qcurve" smooth="yes"/>
      <point x="1888" y="513"/>
      <point x="1830" y="656"/>
      <point x="1717" y="756"/>
      <point x="1634" y="772" type="qcurve" smooth="yes"/>
      <point x="1610" y="777"/>
      <point x="1563" y="780"/>
      <point x="1546" y="780" type="qcurve" smooth="yes"/>
      <point x="1100" y="780" type="line"/>
    </contour>
  </outline>
</glyph>
<glyph name="Tshecyr" format="2">
  <advance width="1254"/>
  <unicode hex="040B"/>
  <outline>
    <contour>
      <point x="0" y="1356" type="line"/>
      <point x="0" y="1440" type="line"/>
      <point x="540" y="1440" type="line"/>
      <point x="540" y="1356" type="line"/>
    </contour>
    <contour>
      <point x="224" y="1440" type="line"/>
      <point x="224" y="740" type="line"/>
      <point x="182" y="804" type="line"/>
      <point x="257" y="854"/>
      <point x="457" y="918"/>
      <point x="590" y="918" type="qcurve" smooth="yes"/>
      <point x="781" y="918"/>
      <point x="1011" y="782"/>
      <point x="1114" y="544"/>
      <point x="1114" y="392" type="qcurve" smooth="yes"/>
      <point x="1114" y="0" type="line"/>
      <point x="1030" y="0" type="line"/>
      <point x="1030" y="356" type="line" smooth="yes"/>
      <point x="1030" y="475"/>
      <point x="978" y="652"/>
      <point x="871" y="771"/>
      <point x="710" y="830"/>
      <point x="600" y="830" type="qcurve" smooth="yes"/>
      <point x="456" y="830"/>
      <point x="245" y="748"/>
      <point x="192" y="698" type="qcurve"/>
      <point x="224" y="814" type="line"/>
      <point x="224" y="0" type="line"/>
      <point x="140" y="0" type="line"/>
      <point x="140" y="1440" type="line"/>
    </contour>
  </outline>
</glyph>
<glyph name="Igravecyr" format="2">
  <advance width="1324"/>
  <unicode hex="040D"/>
  <outline>
    <contour>
      <point x="140" y="0" type="line"/>
      <point x="140" y="1440" type="line"/>
      <point x="224" y="1440" type="line"/>
      <point x="224" y="150" type="line"/>
      <point x="1100" y="1440" type="line"/>
      <point x="1184" y="1440" type="line"/>
      <point x="1184" y="0" type="line"/>
      <point x="1100" y="0" type="line"/>
      <point x="1100" y="1292" type="line"/>
      <point x="224" y="0" type="line"/>
    </contour>
    <contour>
      <point x="642" y="1890" type="line"/>
      <point x="708" y="1620" type="line"/>
      <point x="642" y="1620" type="line"/>
      <point x="546" y="1890" type="line"/>
    </contour>
  </outline>
</glyph>
<glyph name="uni040E" format="2">
  <advance width="1228"/>
  <unicode hex="040E"/>
  <outline>
    <contour>
      <point x="590" y="1572" type="qcurve" smooth="yes"/>
      <point x="527" y="1572"/>
      <point x="423" y="1634"/>
      <point x="362" y="1737"/>
      <point x="362" y="1800" type="qcurve"/>
      <point x="440" y="1800" type="line"/>
      <point x="440" y="1739"/>
      <point x="529" y="1650"/>
      <point x="590" y="1650" type="qcurve" smooth="yes"/>
      <point x="653" y="1650"/>
      <point x="740" y="1739"/>
      <point x="740" y="1800" type="qcurve"/>
      <point x="818" y="1800" type="line"/>
      <point x="818" y="1737"/>
      <point x="757" y="1634"/>
      <point x="653" y="1572"/>
    </contour>
    <contour>
      <point x="418" y="0" type="line"/>
      <point x="562" y="310" type="line"/>
      <point x="40" y="1440" type="line"/>
      <point x="130" y="1440" type="line"/>
      <point x="606" y="404" type="line"/>
      <point x="1088" y="1440" type="line"/>
      <point x="1178" y="1440" type="line"/>
      <point x="514" y="0" type="line"/>
    </contour>
  </outline>
</glyph>
<glyph name="uni040F" format="2">
  <advance width="1420"/>
  <unicode hex="040F"/>
  <outline>
    <contour>
      <point x="668" y="-240" type="line"/>
      <point x="668" y="0" type="line"/>
      <point x="140" y="0" type="line"/>
      <point x="140" y="1440" type="line"/>
      <point x="224" y="1440" type="line"/>
      <point x="224" y="84" type="line"/>
      <point x="1196" y="84" type="line"/>
      <point x="1196" y="1440" type="line"/>
      <point x="1280" y="1440" type="line"/>
      <point x="1280" y="0" type="line"/>
      <point x="752" y="0" type="line"/>
      <point x="752" y="-240" type="line"/>
    </contour>
  </outline>
</glyph>
<glyph name="uni0411" format="2">
  <advance width="1162"/>
  <unicode hex="0411"/>
  <outline>
    <contour>
      <point x="140" y="0" type="line"/>
      <point x="140" y="1440" type="line"/>
      <point x="980" y="1440" type="line"/>
      <point x="980" y="1356" type="line"/>
      <point x="224" y="1356" type="line"/>
      <point x="224" y="864" type="line"/>
      <point x="670" y="864" type="line" smooth="yes"/>
      <point x="691" y="864"/>
      <point x="735" y="861"/>
      <point x="762" y="856" type="qcurve"/>
      <point x="866" y="840"/>
      <point x="1019" y="721"/>
      <point x="1102" y="540"/>
      <point x="1102" y="432" type="qcurve" smooth="yes"/>
      <point x="1102" y="324"/>
      <point x="1019" y="143"/>
      <point x="866" y="24"/>
      <point x="762" y="8" type="qcurve" smooth="yes"/>
      <point x="735" y="4"/>
      <point x="691" y="0"/>
      <point x="670" y="0" type="qcurve" smooth="yes"/>
    </contour>
    <contour>
      <point x="224" y="84" type="line"/>
      <point x="670" y="84" type="line" smooth="yes"/>
      <point x="687" y="84"/>
      <point x="734" y="88"/>
      <point x="758" y="92" type="qcurve" smooth="yes"/>
      <point x="883" y="116"/>
      <point x="1012" y="311"/>
      <point x="1012" y="432" type="qcurve" smooth="yes"/>
      <point x="1012" y="554"/>
      <point x="883" y="748"/>
      <point x="758" y="772" type="qcurve" smooth="yes"/>
      <point x="734" y="777"/>
      <point x="687" y="780"/>
      <point x="670" y="780" type="qcurve" smooth="yes"/>
      <point x="224" y="780" type="line"/>
    </contour>
  </outline>
</glyph>
<glyph name="uni0417" format="2">
  <advance width="1122"/>
  <unicode hex="0417"/>
  <outline>
    <contour>
      <point x="568" y="-30" type="qcurve" smooth="yes"/>
      <point x="424" y="-30"/>
      <point x="218" y="54"/>
      <point x="89" y="195"/>
      <point x="60" y="280" type="qcurve"/>
      <point x="146" y="316" type="line"/>
      <point x="170" y="239"/>
      <point x="283" y="121"/>
      <point x="456" y="54"/>
      <point x="570" y="54" type="qcurve" smooth="yes"/>
      <point x="694" y="54"/>
      <point x="874" y="135"/>
      <point x="972" y="288"/>
      <point x="972" y="396" type="qcurve" smooth="yes"/>
      <point x="972" y="508"/>
      <point x="872" y="633"/>
      <point x="698" y="686"/>
      <point x="588" y="690" type="qcurve" smooth="yes"/>
      <point x="514" y="693"/>
      <point x="451" y="696"/>
      <point x="431" y="696"/>
      <point x="422" y="696" type="qcurve"/>
      <point x="422" y="780" type="line"/>
      <point x="427" y="780"/>
      <point x="491" y="780"/>
      <point x="566" y="781"/>
      <point x="588" y="782" type="qcurve" smooth="yes"/>
      <point x="750" y="790"/>
      <point x="926" y="954"/>
      <point x="926" y="1084" type="qcurve" smooth="yes"/>
      <point x="926" y="1228"/>
      <point x="729" y="1386"/>
      <point x="576" y="1386" type="qcurve" smooth="yes"/>
      <point x="431" y="1386"/>
      <point x="243" y="1243"/>
      <point x="178" y="1114" type="qcurve"/>
      <point x="90" y="1148" type="line"/>
      <point x="155" y="1292"/>
      <point x="401" y="1470"/>
      <point x="578" y="1470" type="qcurve" smooth="yes"/>
      <point x="667" y="1470"/>
      <point x="826" y="1420"/>
      <point x="947" y="1323"/>
      <point x="1016" y="1179"/>
      <point x="1016" y="1084" type="qcurve" smooth="yes"/>
      <point x="1016" y="955"/>
      <point x="894" y="776"/>
      <point x="804" y="738" type="qcurve"/>
      <point x="923" y="708"/>
      <point x="1062" y="535"/>
      <point x="1062" y="392" type="qcurve" smooth="yes"/>
      <point x="1062" y="265"/>
      <point x="946" y="75"/>
      <point x="725" y="-30"/>
    </contour>
  </outline>
</glyph>
<glyph name="uni0419" format="2">
  <advance width="1324"/>
  <unicode hex="0419"/>
  <outline>
    <contour>
      <point x="140" y="0" type="line"/>
      <point x="140" y="1440" type="line"/>
      <point x="224" y="1440" type="line"/>
      <point x="224" y="150" type="line"/>
      <point x="1100" y="1440" type="line"/>
      <point x="1184" y="1440" type="line"/>
      <point x="1184" y="0" type="line"/>
      <point x="1100" y="0" type="line"/>
      <point x="1100" y="1292" type="line"/>
      <point x="224" y="0" type="line"/>
    </contour>
    <contour>
      <point x="682" y="1572" type="qcurve" smooth="yes"/>
      <point x="619" y="1572"/>
      <point x="516" y="1634"/>
      <point x="454" y="1737"/>
      <point x="454" y="1800" type="qcurve"/>
      <point x="532" y="1800" type="line"/>
      <point x="532" y="1739"/>
      <point x="621" y="1650"/>
      <point x="682" y="1650" type="qcurve" smooth="yes"/>
      <point x="745" y="1650"/>
      <point x="832" y="1739"/>
      <point x="832" y="1800" type="qcurve"/>
      <point x="910" y="1800" type="line"/>
      <point x="910" y="1737"/>
      <point x="849" y="1634"/>
      <point x="745" y="1572"/>
    </contour>
  </outline>
</glyph>
<glyph name="Kacyr" format="2">
  <advance width="1116"/>
  <unicode hex="041A"/>
  <outline>
    <contour>
      <point x="140" y="0" type="line"/>
      <point x="140" y="1440" type="line"/>
      <point x="224" y="1440" type="line"/>
      <point x="224" y="752" type="line"/>
      <point x="936" y="1440" type="line"/>
      <point x="1052" y="1440" type="line"/>
      <point x="346" y="752" type="line"/>
      <point x="1116" y="0" type="line"/>
      <point x="1000" y="0" type="line"/>
      <point x="224" y="752" type="line"/>
      <point x="224" y="0" type="line"/>
    </contour>
  </outline>
</glyph>
<glyph name="Elcyr" format="2">
  <advance width="1368"/>
  <unicode hex="041B"/>
  <outline>
    <contour>
      <point x="40" y="0" type="qcurve"/>
      <point x="40" y="84" type="line"/>
      <point x="100" y="77"/>
      <point x="175" y="95"/>
      <point x="221" y="167"/>
      <point x="254" y="317"/>
      <point x="272" y="442" type="qcurve" smooth="yes"/>
      <point x="289" y="556"/>
      <point x="313" y="769"/>
      <point x="333" y="997"/>
      <point x="349" y="1268"/>
      <point x="356" y="1440" type="qcurve"/>
      <point x="1228" y="1440" type="line"/>
      <point x="1228" y="0" type="line"/>
      <point x="1144" y="0" type="line"/>
      <point x="1144" y="1356" type="line"/>
      <point x="444" y="1356" type="line"/>
      <point x="436" y="1229"/>
      <point x="422" y="995"/>
      <point x="405" y="765"/>
      <point x="381" y="524"/>
      <point x="362" y="388" type="qcurve" smooth="yes"/>
      <point x="349" y="297"/>
      <point x="314" y="134"/>
      <point x="248" y="18"/>
      <point x="133" y="-27"/>
    </contour>
  </outline>
</glyph>
<glyph name="Ucyr" format="2">
  <advance width="1228"/>
  <unicode hex="0423"/>
  <outline>
    <contour>
      <point x="418" y="0" type="line"/>
      <point x="562" y="310" type="line"/>
      <point x="40" y="1440" type="line"/>
      <point x="130" y="1440" type="line"/>
      <point x="606" y="404" type="line"/>
      <point x="1088" y="1440" type="line"/>
      <point x="1178" y="1440" type="line"/>
      <point x="514" y="0" type="line"/>
    </contour>
  </outline>
</glyph>
<glyph name="Efcyr" format="2">
  <advance width="1384"/>
  <unicode hex="0424"/>
  <outline>
    <contour>
      <point x="650" y="0" type="line"/>
      <point x="650" y="182" type="line"/>
      <point x="539" y="163"/>
      <point x="328" y="223"/>
      <point x="160" y="373"/>
      <point x="60" y="609"/>
      <point x="60" y="766" type="qcurve" smooth="yes"/>
      <point x="60" y="924"/>
      <point x="160" y="1159"/>
      <point x="328" y="1309"/>
      <point x="539" y="1369"/>
      <point x="650" y="1350" type="qcurve"/>
      <point x="650" y="1440" type="line"/>
      <point x="734" y="1440" type="line"/>
      <point x="734" y="1350" type="line"/>
      <point x="845" y="1369"/>
      <point x="1056" y="1309"/>
      <point x="1224" y="1159"/>
      <point x="1324" y="924"/>
      <point x="1324" y="766" type="qcurve" smooth="yes"/>
      <point x="1324" y="609"/>
      <point x="1224" y="373"/>
      <point x="1056" y="223"/>
      <point x="845" y="163"/>
      <point x="734" y="182" type="qcurve"/>
      <point x="734" y="0" type="line"/>
    </contour>
    <contour>
      <point x="650" y="268" type="qcurve"/>
      <point x="650" y="1266" type="line"/>
      <point x="550" y="1280"/>
      <point x="369" y="1223"/>
      <point x="230" y="1091"/>
      <point x="150" y="894"/>
      <point x="150" y="766" type="qcurve" smooth="yes"/>
      <point x="150" y="639"/>
      <point x="230" y="441"/>
      <point x="369" y="311"/>
      <point x="550" y="255"/>
    </contour>
    <contour>
      <point x="734" y="268" type="line"/>
      <point x="835" y="255"/>
      <point x="1015" y="311"/>
      <point x="1154" y="441"/>
      <point x="1234" y="639"/>
      <point x="1234" y="766" type="qcurve" smooth="yes"/>
      <point x="1234" y="894"/>
      <point x="1154" y="1091"/>
      <point x="1015" y="1223"/>
      <point x="835" y="1280"/>
      <point x="734" y="1266" type="qcurve"/>
    </contour>
  </outline>
</glyph>
<glyph name="uni0427" format="2">
  <advance width="1254"/>
  <unicode hex="0427"/>
  <outline>
    <contour>
      <point x="1030" y="0" type="line"/>
      <point x="1030" y="700" type="line"/>
      <point x="1072" y="636" type="line"/>
      <point x="997" y="587"/>
      <point x="798" y="522"/>
      <point x="664" y="522" type="qcurve" smooth="yes"/>
      <point x="473" y="522"/>
      <point x="243" y="658"/>
      <point x="140" y="896"/>
      <point x="140" y="1048" type="qcurve" smooth="yes"/>
      <point x="140" y="1440" type="line"/>
      <point x="224" y="1440" type="line"/>
      <point x="224" y="1084" type="line" smooth="yes"/>
      <point x="224" y="966"/>
      <point x="276" y="788"/>
      <point x="383" y="669"/>
      <point x="545" y="610"/>
      <point x="654" y="610" type="qcurve" smooth="yes"/>
      <point x="798" y="610"/>
      <point x="1010" y="693"/>
      <point x="1062" y="742" type="qcurve"/>
      <point x="1030" y="626" type="line"/>
      <point x="1030" y="1440" type="line"/>
      <point x="1114" y="1440" type="line"/>
      <point x="1114" y="0" type="line"/>
    </contour>
  </outline>
</glyph>
<glyph name="uni0428" format="2">
  <advance width="1760"/>
  <unicode hex="0428"/>
  <outline>
    <contour>
      <point x="140" y="0" type="line"/>
      <point x="140" y="1440" type="line"/>
      <point x="224" y="1440" type="line"/>
      <point x="224" y="84" type="line"/>
      <point x="838" y="84" type="line"/>
      <point x="838" y="1440" type="line"/>
      <point x="922" y="1440" type="line"/>
      <point x="922" y="84" type="line"/>
      <point x="1536" y="84" type="line"/>
      <point x="1536" y="1440" type="line"/>
      <point x="1620" y="1440" type="line"/>
      <point x="1620" y="0" type="line"/>
    </contour>
  </outline>
</glyph>
<glyph name="Hardcyr" format="2">
  <advance width="1182"/>
  <unicode hex="042A"/>
  <outline>
    <contour>
      <point x="160" y="0" type="line"/>
      <point x="160" y="1356" type="line"/>
      <point x="-20" y="1356" type="line"/>
      <point x="-20" y="1440" type="line"/>
      <point x="244" y="1440" type="line"/>
      <point x="244" y="864" type="line"/>
      <point x="690" y="864" type="line" smooth="yes"/>
      <point x="711" y="864"/>
      <point x="755" y="861"/>
      <point x="782" y="856" type="qcurve"/>
      <point x="886" y="840"/>
      <point x="1039" y="721"/>
      <point x="1122" y="540"/>
      <point x="1122" y="432" type="qcurve" smooth="yes"/>
      <point x="1122" y="324"/>
      <point x="1039" y="143"/>
      <point x="886" y="24"/>
      <point x="782" y="8" type="qcurve" smooth="yes"/>
      <point x="755" y="4"/>
      <point x="711" y="0"/>
      <point x="690" y="0" type="qcurve" smooth="yes"/>
    </contour>
    <contour>
      <point x="244" y="84" type="line"/>
      <point x="690" y="84" type="line" smooth="yes"/>
      <point x="707" y="84"/>
      <point x="754" y="88"/>
      <point x="778" y="92" type="qcurve" smooth="yes"/>
      <point x="861" y="108"/>
      <point x="974" y="208"/>
      <point x="1032" y="351"/>
      <point x="1032" y="432" type="qcurve" smooth="yes"/>
      <point x="1032" y="513"/>
      <point x="974" y="656"/>
      <point x="861" y="756"/>
      <point x="778" y="772" type="qcurve" smooth="yes"/>
      <point x="754" y="777"/>
      <point x="707" y="780"/>
      <point x="690" y="780" type="qcurve" smooth="yes"/>
      <point x="244" y="780" type="line"/>
    </contour>
  </outline>
</glyph>
<glyph name="uni042C" format="2">
  <advance width="1182"/>
  <unicode hex="042C"/>
  <outline>
    <contour>
      <point x="140" y="0" type="line"/>
      <point x="140" y="1440" type="line"/>
      <point x="224" y="1440" type="line"/>
      <point x="224" y="864" type="line"/>
      <point x="670" y="864" type="line" smooth="yes"/>
      <point x="691" y="864"/>
      <point x="735" y="861"/>
      <point x="762" y="856" type="qcurve"/>
      <point x="866" y="840"/>
      <point x="1019" y="721"/>
      <point x="1102" y="540"/>
      <point x="1102" y="432" type="qcurve" smooth="yes"/>
      <point x="1102" y="324"/>
      <point x="1019" y="143"/>
      <point x="866" y="24"/>
      <point x="762" y="8" type="qcurve" smooth="yes"/>
      <point x="735" y="4"/>
      <point x="691" y="0"/>
      <point x="670" y="0" type="qcurve" smooth="yes"/>
    </contour>
    <contour>
      <point x="224" y="84" type="line"/>
      <point x="670" y="84" type="line" smooth="yes"/>
      <point x="687" y="84"/>
      <point x="734" y="88"/>
      <point x="758" y="92" type="qcurve" smooth="yes"/>
      <point x="841" y="108"/>
      <point x="954" y="208"/>
      <point x="1012" y="351"/>
      <point x="1012" y="432" type="qcurve" smooth="yes"/>
      <point x="1012" y="513"/>
      <point x="954" y="656"/>
      <point x="841" y="756"/>
      <point x="758" y="772" type="qcurve" smooth="yes"/>
      <point x="734" y="777"/>
      <point x="687" y="780"/>
      <point x="670" y="780" type="qcurve" smooth="yes"/>
      <point x="224" y="780" type="line"/>
    </contour>
  </outline>
</glyph>
<glyph name="uni042D" format="2">
  <advance width="1384"/>
  <unicode hex="042D"/>
  <outline>
    <contour>
      <point x="678" y="-30" type="qcurve" smooth="yes"/>
      <point x="525" y="-30"/>
      <point x="275" y="82"/>
      <point x="104" y="289"/>
      <point x="70" y="432" type="qcurve"/>
      <point x="154" y="456" type="line"/>
      <point x="207" y="264"/>
      <point x="486" y="51"/>
      <point x="678" y="54" type="qcurve" smooth="yes"/>
      <point x="807" y="56"/>
      <point x="1027" y="148"/>
      <point x="1102" y="248" type="qcurve" smooth="yes"/>
      <point x="1179" y="350"/>
      <point x="1231" y="564"/>
      <point x="1234" y="678" type="qcurve"/>
      <point x="694" y="678" type="line"/>
      <point x="694" y="762" type="line"/>
      <point x="1234" y="762" type="line"/>
      <point x="1227" y="945"/>
      <point x="1098" y="1227"/>
      <point x="855" y="1386"/>
      <point x="678" y="1384" type="qcurve" smooth="yes"/>
      <point x="468" y="1381"/>
      <point x="190" y="1156"/>
      <point x="148" y="958" type="qcurve"/>
      <point x="60" y="972" type="line"/>
      <point x="114" y="1209"/>
      <point x="443" y="1470"/>
      <point x="678" y="1470" type="qcurve" smooth="yes"/>
      <point x="888" y="1470"/>
      <point x="1172" y="1282"/>
      <point x="1319" y="945"/>
      <point x="1324" y="720" type="qcurve" smooth="yes"/>
      <point x="1329" y="510"/>
      <point x="1184" y="170"/>
      <point x="892" y="-30"/>
    </contour>
  </outline>
</glyph>
<glyph name="becyr" format="2">
  <advance width="1146"/>
  <unicode hex="0431"/>
  <outline>
    <contour>
      <point x="562" y="-30" type="qcurve" smooth="yes"/>
      <point x="413" y="-30"/>
      <point x="197" y="97"/>
      <point x="80" y="365"/>
      <point x="80" y="576" type="qcurve" smooth="yes"/>
      <point x="80" y="661"/>
      <point x="97" y="856"/>
      <point x="124" y="1026"/>
      <point x="138" y="1074" type="qcurve" smooth="yes"/>
      <point x="161" y="1151"/>
      <point x="257" y="1286"/>
      <point x="324" y="1328" type="qcurve"/>
      <point x="383" y="1367"/>
      <point x="542" y="1412"/>
      <point x="714" y="1438"/>
      <point x="875" y="1457"/>
      <point x="936" y="1470" type="qcurve"/>
      <point x="948" y="1390" type="line"/>
      <point x="895" y="1381"/>
      <point x="742" y="1361"/>
      <point x="573" y="1331"/>
      <point x="419" y="1285"/>
      <point x="364" y="1250" type="qcurve"/>
      <point x="277" y="1198"/>
      <point x="184" y="977"/>
      <point x="172" y="824" type="qcurve"/>
      <point x="234" y="925"/>
      <point x="452" y="1038"/>
      <point x="588" y="1038" type="qcurve" smooth="yes"/>
      <point x="735" y="1038"/>
      <point x="950" y="905"/>
      <point x="1066" y="664"/>
      <point x="1066" y="502" type="qcurve" smooth="yes"/>
      <point x="1066" y="340"/>
      <point x="947" y="101"/>
      <point x="721" y="-30"/>
    </contour>
    <contour>
      <point x="572" y="54" type="qcurve" smooth="yes"/>
      <point x="770" y="54"/>
      <point x="976" y="300"/>
      <point x="976" y="504" type="qcurve" smooth="yes"/>
      <point x="976" y="713"/>
      <point x="762" y="954"/>
      <point x="570" y="954" type="qcurve" smooth="yes"/>
      <point x="378" y="954"/>
      <point x="170" y="713"/>
      <point x="170" y="504" type="qcurve" smooth="yes"/>
      <point x="170" y="297"/>
      <point x="376" y="54"/>
    </contour>
  </outline>
</glyph>
<glyph name="uni0437" format="2">
  <advance width="994"/>
  <unicode hex="0437"/>
  <outline>
    <contour>
      <point x="532" y="-30" type="qcurve" smooth="yes"/>
      <point x="363" y="-30"/>
      <point x="128" y="122"/>
      <point x="60" y="258" type="qcurve"/>
      <point x="130" y="298" type="line"/>
      <point x="190" y="178"/>
      <point x="388" y="54"/>
      <point x="520" y="54" type="qcurve" smooth="yes"/>
      <point x="658" y="54"/>
      <point x="828" y="185"/>
      <point x="828" y="300" type="qcurve" smooth="yes"/>
      <point x="828" y="371"/>
      <point x="773" y="468"/>
      <point x="644" y="518"/>
      <point x="534" y="518" type="qcurve" smooth="yes"/>
      <point x="374" y="518" type="line"/>
      <point x="374" y="600" type="line"/>
      <point x="532" y="600" type="line" smooth="yes"/>
      <point x="658" y="600"/>
      <point x="804" y="707"/>
      <point x="804" y="804" type="qcurve" smooth="yes"/>
      <point x="804" y="915"/>
      <point x="640" y="1026"/>
      <point x="524" y="1026" type="qcurve" smooth="yes"/>
      <point x="416" y="1026"/>
      <point x="233" y="938"/>
      <point x="176" y="866" type="qcurve"/>
      <point x="110" y="922" type="line"/>
      <point x="185" y="1017"/>
      <point x="398" y="1110"/>
      <point x="534" y="1110" type="qcurve" smooth="yes"/>
      <point x="638" y="1110"/>
      <point x="799" y="1036"/>
      <point x="890" y="899"/>
      <point x="890" y="806" type="qcurve" smooth="yes"/>
      <point x="890" y="703"/>
      <point x="785" y="569"/>
      <point x="698" y="536" type="qcurve"/>
      <point x="686" y="576" type="line"/>
      <point x="767" y="570"/>
      <point x="868" y="481"/>
      <point x="914" y="354"/>
      <point x="914" y="292" type="qcurve" smooth="yes"/>
      <point x="914" y="196"/>
      <point x="816" y="51"/>
      <point x="643" y="-30"/>
    </contour>
  </outline>
</glyph>
<glyph name="uni0438" format="2">
  <advance width="1086"/>
  <unicode hex="0438"/>
  <outline>
    <contour>
      <point x="946" y="1080" type="line"/>
      <point x="946" y="0" type="line"/>
      <point x="862" y="0" type="line"/>
      <point x="862" y="932" type="line"/>
      <point x="218" y="0" type="line"/>
      <point x="140" y="0" type="line"/>
      <point x="140" y="1080" type="line"/>
      <point x="224" y="1080" type="line"/>
      <point x="224" y="148" type="line"/>
      <point x="868" y="1080" type="line"/>
    </contour>
  </outline>
</glyph>
<glyph name="uni0439" format="2">
  <advance width="1086"/>
  <unicode hex="0439"/>
  <outline>
    <contour>
      <point x="554" y="1212" type="qcurve" smooth="yes"/>
      <point x="491" y="1212"/>
      <point x="387" y="1274"/>
      <point x="326" y="1377"/>
      <point x="326" y="1440" type="qcurve"/>
      <point x="404" y="1440" type="line"/>
      <point x="404" y="1379"/>
      <point x="493" y="1290"/>
      <point x="554" y="1290" type="qcurve" smooth="yes"/>
      <point x="617" y="1290"/>
      <point x="704" y="1379"/>
      <point x="704" y="1440" type="qcurve"/>
      <point x="782" y="1440" type="line"/>
      <point x="782" y="1377"/>
      <point x="721" y="1274"/>
      <point x="617" y="1212"/>
    </contour>
    <contour>
      <point x="946" y="1080" type="line"/>
      <point x="946" y="0" type="line"/>
      <point x="862" y="0" type="line"/>
      <point x="862" y="932" type="line"/>
      <point x="218" y="0" type="line"/>
      <point x="140" y="0" type="line"/>
      <point x="140" y="1080" type="line"/>
      <point x="224" y="1080" type="line"/>
      <point x="224" y="148" type="line"/>
      <point x="868" y="1080" type="line"/>
    </contour>
  </outline>
</glyph>
<glyph name="elcyr" format="2">
  <advance width="1112"/>
  <unicode hex="043B"/>
  <outline>
    <contour>
      <point x="40" y="0" type="qcurve"/>
      <point x="40" y="80" type="line"/>
      <point x="101" y="69"/>
      <point x="163" y="106"/>
      <point x="191" y="188"/>
      <point x="200" y="244" type="qcurve" smooth="yes"/>
      <point x="217" y="347"/>
      <point x="243" y="586"/>
      <point x="266" y="886"/>
      <point x="278" y="1080" type="qcurve"/>
      <point x="972" y="1080" type="line"/>
      <point x="972" y="0" type="line"/>
      <point x="888" y="0" type="line"/>
      <point x="888" y="996" type="line"/>
      <point x="364" y="996" type="line"/>
      <point x="355" y="863"/>
      <point x="335" y="620"/>
      <point x="313" y="408"/>
      <point x="289" y="235"/>
      <point x="276" y="172" type="qcurve" smooth="yes"/>
      <point x="262" y="102"/>
      <point x="220" y="15"/>
      <point x="128" y="-15"/>
    </contour>
  </outline>
</glyph>
<glyph name="uni043D" format="2">
  <advance width="1140"/>
  <unicode hex="043D"/>
  <outline>
    <contour>
      <point x="140" y="0" type="line"/>
      <point x="140" y="1080" type="line"/>
      <point x="224" y="1080" type="line"/>
      <point x="224" y="582" type="line"/>
      <point x="916" y="582" type="line"/>
      <point x="916" y="1080" type="line"/>
      <point x="1000" y="1080" type="line"/>
      <point x="1000" y="0" type="line"/>
      <point x="916" y="0" type="line"/>
      <point x="916" y="498" type="line"/>
      <point x="224" y="498" type="line"/>
      <point x="224" y="0" type="line"/>
    </contour>
  </outline>
</glyph>
<glyph name="uni043F" format="2">
  <advance width="1086"/>
  <unicode hex="043F"/>
  <outline>
    <contour>
      <point x="140" y="0" type="line"/>
      <point x="140" y="1080" type="line"/>
      <point x="946" y="1080" type="line"/>
      <point x="946" y="0" type="line"/>
      <point x="862" y="0" type="line"/>
      <point x="862" y="996" type="line"/>
      <point x="224" y="996" type="line"/>
      <point x="224" y="0" type="line"/>
    </contour>
  </outline>
</glyph>
<glyph name="tecyr" format="2">
  <advance width="980"/>
  <unicode hex="0442"/>
  <outline>
    <contour>
      <point x="448" y="0" type="line"/>
      <point x="448" y="996" type="line"/>
      <point x="50" y="996" type="line"/>
      <point x="50" y="1080" type="line"/>
      <point x="930" y="1080" type="line"/>
      <point x="930" y="996" type="line"/>
      <point x="532" y="996" type="line"/>
      <point x="532" y="0" type="line"/>
    </contour>
  </outline>
</glyph>
<glyph name="uni044E" format="2">
  <advance width="1502"/>
  <unicode hex="044E"/>
  <outline>
    <contour>
      <point x="928" y="-30" type="qcurve" smooth="yes"/>
      <point x="775" y="-30"/>
      <point x="560" y="104"/>
      <point x="443" y="342"/>
      <point x="436" y="498" type="qcurve"/>
      <point x="224" y="498" type="line"/>
      <point x="224" y="0" type="line"/>
      <point x="140" y="0" type="line"/>
      <point x="140" y="1080" type="line"/>
      <point x="224" y="1080" type="line"/>
      <point x="224" y="582" type="line"/>
      <point x="434" y="582" type="line"/>
      <point x="441" y="741"/>
      <point x="561" y="979"/>
      <point x="776" y="1110"/>
      <point x="926" y="1110" type="qcurve" smooth="yes"/>
      <point x="1088" y="1110"/>
      <point x="1309" y="965"/>
      <point x="1422" y="709"/>
      <point x="1422" y="542" type="qcurve" smooth="yes"/>
      <point x="1422" y="372"/>
      <point x="1308" y="114"/>
      <point x="1088" y="-30"/>
    </contour>
    <contour>
      <point x="924" y="54" type="qcurve" smooth="yes"/>
      <point x="1131" y="54"/>
      <point x="1332" y="322"/>
      <point x="1332" y="542" type="qcurve" smooth="yes"/>
      <point x="1332" y="764"/>
      <point x="1129" y="1026"/>
      <point x="926" y="1026" type="qcurve" smooth="yes"/>
      <point x="736" y="1026"/>
      <point x="524" y="772"/>
      <point x="524" y="542" type="qcurve" smooth="yes"/>
      <point x="524" y="322"/>
      <point x="728" y="54"/>
    </contour>
  </outline>
</glyph>
<glyph name="yacyr" format="2">
  <advance width="1064"/>
  <unicode hex="044F"/>
  <outline>
    <contour>
      <point x="838" y="0" type="line"/>
      <point x="838" y="438" type="line"/>
      <point x="546" y="438" type="line" smooth="yes"/>
      <point x="498" y="438"/>
      <point x="417" y="448"/>
      <point x="382" y="454" type="qcurve"/>
      <point x="276" y="475"/>
      <point x="120" y="621"/>
      <point x="120" y="754" type="qcurve" smooth="yes"/>
      <point x="120" y="883"/>
      <point x="263" y="1039"/>
      <point x="354" y="1064" type="qcurve" smooth="yes"/>
      <point x="399" y="1076"/>
      <point x="490" y="1080"/>
      <point x="526" y="1080" type="qcurve" smooth="yes"/>
      <point x="922" y="1080" type="line"/>
      <point x="924" y="0" type="line"/>
    </contour>
    <contour>
      <point x="80" y="0" type="line"/>
      <point x="410" y="480" type="line"/>
      <point x="514" y="480" type="line"/>
      <point x="180" y="0" type="line"/>
    </contour>
    <contour>
      <point x="550" y="522" type="qcurve" smooth="yes"/>
      <point x="838" y="522" type="line"/>
      <point x="838" y="996" type="line"/>
      <point x="550" y="996" type="line" smooth="yes"/>
      <point x="522" y="996"/>
      <point x="415" y="992"/>
      <point x="370" y="978" type="qcurve" smooth="yes"/>
      <point x="334" y="967"/>
      <point x="260" y="915"/>
      <point x="210" y="824"/>
      <point x="210" y="756" type="qcurve" smooth="yes"/>
      <point x="210" y="663"/>
      <point x="309" y="556"/>
      <point x="388" y="536" type="qcurve"/>
      <point x="432" y="526"/>
      <point x="519" y="522"/>
    </contour>
  </outline>
</glyph>
<glyph name="uni0453" format="2">
  <advance width="910"/>
  <unicode hex="0453"/>
  <outline>
    <contour>
      <point x="463" y="1530" type="line"/>
      <point x="397" y="1260" type="line"/>
      <point x="463" y="1260" type="line"/>
      <point x="559" y="1530" type="line"/>
    </contour>
    <contour>
      <point x="140" y="0" type="line"/>
      <point x="140" y="1080" type="line"/>
      <point x="860" y="1080" type="line"/>
      <point x="860" y="996" type="line"/>
      <point x="224" y="996" type="line"/>
      <point x="224" y="0" type="line"/>
    </contour>
  </outline>
</glyph>
<glyph name="uni0459" format="2">
  <advance width="1650"/>
  <unicode hex="0459"/>
  <outline>
    <contour>
      <point x="40" y="0" type="qcurve"/>
      <point x="40" y="80" type="line"/>
      <point x="101" y="69"/>
      <point x="162" y="105"/>
      <point x="190" y="187"/>
      <point x="200" y="244" type="qcurve" smooth="yes"/>
      <point x="218" y="347"/>
      <point x="244" y="586"/>
      <point x="266" y="886"/>
      <point x="278" y="1080" type="qcurve"/>
      <point x="912" y="1080" type="line"/>
      <point x="912" y="642" type="line"/>
      <point x="1144" y="642" type="line" smooth="yes"/>
      <point x="1173" y="642"/>
      <point x="1259" y="640"/>
      <point x="1302" y="632" type="qcurve" smooth="yes"/>
      <point x="1369" y="621"/>
      <point x="1492" y="555"/>
      <point x="1570" y="427"/>
      <point x="1570" y="324" type="qcurve" smooth="yes"/>
      <point x="1570" y="182"/>
      <point x="1428" y="35"/>
      <point x="1336" y="14" type="qcurve" smooth="yes"/>
      <point x="1290" y="4"/>
      <point x="1190" y="0"/>
      <point x="1164" y="0" type="qcurve" smooth="yes"/>
      <point x="828" y="0" type="line"/>
      <point x="826" y="996" type="line"/>
      <point x="364" y="996" type="line"/>
      <point x="355" y="863"/>
      <point x="335" y="620"/>
      <point x="313" y="408"/>
      <point x="289" y="235"/>
      <point x="276" y="172" type="qcurve" smooth="yes"/>
      <point x="262" y="102"/>
      <point x="220" y="15"/>
      <point x="128" y="-15"/>
    </contour>
    <contour>
      <point x="912" y="84" type="line"/>
      <point x="1140" y="84" type="line" smooth="yes"/>
      <point x="1187" y="84"/>
      <point x="1282" y="88"/>
      <point x="1322" y="98" type="qcurve" smooth="yes"/>
      <point x="1359" y="108"/>
      <point x="1432" y="155"/>
      <point x="1480" y="247"/>
      <point x="1480" y="326" type="qcurve" smooth="yes"/>
      <point x="1480" y="431"/>
      <point x="1387" y="530"/>
      <point x="1304" y="546" type="qcurve" smooth="yes"/>
      <point x="1259" y="555"/>
      <point x="1163" y="558"/>
      <point x="1140" y="558" type="qcurve" smooth="yes"/>
      <point x="912" y="558" type="line"/>
    </contour>
  </outline>
</glyph>
<glyph name="uni045A" format="2">
  <advance width="1568"/>
  <unicode hex="045A"/>
  <outline>
    <contour>
      <point x="140" y="0" type="line"/>
      <point x="140" y="1080" type="line"/>
      <point x="224" y="1080" type="line"/>
      <point x="224" y="642" type="line"/>
      <point x="744" y="642" type="line"/>
      <point x="744" y="1080" type="line"/>
      <point x="830" y="1080" type="line"/>
      <point x="830" y="642" type="line"/>
      <point x="1062" y="642" type="line" smooth="yes"/>
      <point x="1091" y="642"/>
      <point x="1177" y="640"/>
      <point x="1220" y="632" type="qcurve" smooth="yes"/>
      <point x="1287" y="621"/>
      <point x="1410" y="555"/>
      <point x="1488" y="427"/>
      <point x="1488" y="324" type="qcurve" smooth="yes"/>
      <point x="1488" y="182"/>
      <point x="1346" y="35"/>
      <point x="1254" y="14" type="qcurve" smooth="yes"/>
      <point x="1208" y="4"/>
      <point x="1108" y="0"/>
      <point x="1082" y="0" type="qcurve" smooth="yes"/>
      <point x="746" y="0" type="line"/>
      <point x="744" y="558" type="line"/>
      <point x="224" y="558" type="line"/>
      <point x="224" y="0" type="line"/>
    </contour>
    <contour>
      <point x="830" y="84" type="line"/>
      <point x="1058" y="84" type="line" smooth="yes"/>
      <point x="1105" y="84"/>
      <point x="1200" y="88"/>
      <point x="1240" y="98" type="qcurve" smooth="yes"/>
      <point x="1277" y="108"/>
      <point x="1350" y="155"/>
      <point x="1398" y="247"/>
      <point x="1398" y="326" type="qcurve" smooth="yes"/>
      <point x="1398" y="431"/>
      <point x="1305" y="530"/>
      <point x="1222" y="546" type="qcurve" smooth="yes"/>
      <point x="1177" y="555"/>
      <point x="1081" y="558"/>
      <point x="1058" y="558" type="qcurve" smooth="yes"/>
      <point x="830" y="558" type="line"/>
    </contour>
  </outline>
</glyph>
<glyph name="kjecyr" format="2">
  <advance width="936"/>
  <unicode hex="045C"/>
  <outline>
    <contour>
      <point x="489" y="1530" type="line"/>
      <point x="423" y="1260" type="line"/>
      <point x="489" y="1260" type="line"/>
      <point x="585" y="1530" type="line"/>
    </contour>
    <contour>
      <point x="140" y="0" type="line"/>
      <point x="140" y="1080" type="line"/>
      <point x="224" y="1080" type="line"/>
      <point x="224" y="560" type="line"/>
      <point x="764" y="1080" type="line"/>
      <point x="890" y="1080" type="line"/>
      <point x="326" y="540" type="line"/>
      <point x="976" y="0" type="line"/>
      <point x="832" y="0" type="line"/>
      <point x="224" y="520" type="line"/>
      <point x="224" y="0" type="line"/>
    </contour>
  </outline>
</glyph>
<glyph name="Geupcyr" format="2">
  <advance width="1060"/>
  <unicode hex="0490"/>
  <outline>
    <contour>
      <point x="140" y="0" type="line"/>
      <point x="140" y="1440" type="line"/>
      <point x="956" y="1440" type="line"/>
      <point x="956" y="1600" type="line"/>
      <point x="1040" y="1600" type="line"/>
      <point x="1040" y="1356" type="line"/>
      <point x="224" y="1356" type="line"/>
      <point x="224" y="0" type="line"/>
    </contour>
  </outline>
</glyph>
<glyph name="ustraightcyr" format="2">
  <advance width="956"/>
  <unicode hex="04AF"/>
  <outline>
    <contour>
      <point x="432" y="-360" type="line"/>
      <point x="432" y="0" type="line"/>
      <point x="40" y="1080" type="line"/>
      <point x="130" y="1080" type="line"/>
      <point x="478" y="122" type="line"/>
      <point x="828" y="1080" type="line"/>
      <point x="916" y="1080" type="line"/>
      <point x="524" y="0" type="line"/>
      <point x="524" y="-360" type="line"/>
    </contour>
  </outline>
</glyph>
<glyph name="uni04E8" format="2">
  <advance width="1452"/>
  <unicode hex="04E8"/>
  <outline>
    <contour>
      <point x="130" y="678" type="line"/>
      <point x="130" y="762" type="line"/>
      <point x="1310" y="762" type="line"/>
      <point x="1310" y="678" type="line"/>
    </contour>
    <contour>
      <point x="706" y="-30" type="qcurve" smooth="yes"/>
      <point x="491" y="-30"/>
      <point x="204" y="162"/>
      <point x="60" y="500"/>
      <point x="60" y="720" type="qcurve" smooth="yes"/>
      <point x="60" y="940"/>
      <point x="204" y="1278"/>
      <point x="491" y="1470"/>
      <point x="706" y="1470" type="qcurve" smooth="yes"/>
      <point x="921" y="1470"/>
      <point x="1208" y="1278"/>
      <point x="1352" y="940"/>
      <point x="1352" y="720" type="qcurve" smooth="yes"/>
      <point x="1352" y="500"/>
      <point x="1208" y="162"/>
      <point x="921" y="-30"/>
    </contour>
    <contour>
      <point x="706" y="54" type="qcurve" smooth="yes"/>
      <point x="891" y="54"/>
      <point x="1138" y="225"/>
      <point x="1262" y="525"/>
      <point x="1262" y="720" type="qcurve" smooth="yes"/>
      <point x="1262" y="915"/>
      <point x="1138" y="1216"/>
      <point x="891" y="1386"/>
      <point x="706" y="1386" type="qcurve" smooth="yes"/>
      <point x="521" y="1386"/>
      <point x="276" y="1216"/>
      <point x="152" y="915"/>
      <point x="150" y="720" type="qcurve" smooth="yes"/>
      <point x="148" y="525"/>
      <point x="272" y="225"/>
      <point x="521" y="54"/>
    </contour>
  </outline>
</glyph>
<glyph name="wgrave" format="2">
  <advance width="1488"/>
  <unicode hex="1E81"/>
  <outline>
    <contour>
      <point x="693" y="1530" type="line"/>
      <point x="759" y="1260" type="line"/>
      <point x="693" y="1260" type="line"/>
      <point x="597" y="1530" type="line"/>
    </contour>
    <contour>
      <point x="370" y="0" type="line"/>
      <point x="40" y="1080" type="line"/>
      <point x="128" y="1080" type="line"/>
      <point x="414" y="144" type="line"/>
      <point x="700" y="1080" type="line"/>
      <point x="788" y="1080" type="line"/>
      <point x="1074" y="144" type="line"/>
      <point x="1362" y="1080" type="line"/>
      <point x="1448" y="1080" type="line"/>
      <point x="1118" y="0" type="line"/>
      <point x="1030" y="0" type="line"/>
      <point x="744" y="938" type="line"/>
      <point x="458" y="0" type="line"/>
    </contour>
  </outline>
</glyph>
<glyph name="uni1EA2" format="2">
  <advance width="1218"/>
  <unicode hex="1EA2"/>
  <outline>
    <contour>
      <point x="512" y="1811" type="qcurve"/>
      <point x="474" y="1860" type="line"/>
      <point x="504" y="1896"/>
      <point x="590" y="1931"/>
      <point x="679" y="1914"/>
      <point x="714" y="1868" type="qcurve" smooth="yes"/>
      <point x="739" y="1835"/>
      <point x="748" y="1760"/>
      <point x="723" y="1687"/>
      <point x="670" y="1626"/>
      <point x="634" y="1606" type="qcurve"/>
      <point x="582" y="1654" type="line"/>
      <point x="646" y="1689"/>
      <point x="682" y="1783"/>
      <point x="658" y="1820" type="qcurve" smooth="yes"/>
      <point x="641" y="1847"/>
      <point x="590" y="1857"/>
      <point x="536" y="1835"/>
    </contour>
    <contour>
      <point x="40" y="0" type="line"/>
      <point x="564" y="1440" type="line"/>
      <point x="654" y="1440" type="line"/>
      <point x="1178" y="0" type="line"/>
      <point x="1088" y="0" type="line"/>
      <point x="578" y="1402" type="line"/>
      <point x="638" y="1402" type="line"/>
      <point x="130" y="0" type="line"/>
    </contour>
    <contour>
      <point x="240" y="374" type="line"/>
      <point x="240" y="454" type="line"/>
      <point x="976" y="454" type="line"/>
      <point x="976" y="374" type="line"/>
    </contour>
  </outline>
</glyph>
<glyph name="uni1EAA" format="2">
  <advance width="1218"/>
  <unicode hex="1EAA"/>
  <outline>
    <contour>
      <point x="360" y="1620" type="line"/>
      <point x="560" y="1860" type="line"/>
      <point x="652" y="1860" type="line"/>
      <point x="852" y="1620" type="line"/>
      <point x="752" y="1620" type="line"/>
      <point x="606" y="1790" type="line"/>
      <point x="460" y="1620" type="line"/>
    </contour>
    <contour>
      <point x="750" y="1910" type="qcurve" smooth="yes"/>
      <point x="711" y="1910"/>
      <point x="636" y="1939"/>
      <point x="564" y="1977"/>
      <point x="498" y="2006"/>
      <point x="468" y="2006" type="qcurve" smooth="yes"/>
      <point x="425" y="2006"/>
      <point x="404" y="1947"/>
      <point x="414" y="1920" type="qcurve"/>
      <point x="342" y="1920" type="line"/>
      <point x="324" y="1989"/>
      <point x="401" y="2086"/>
      <point x="470" y="2086" type="qcurve" smooth="yes"/>
      <point x="510" y="2086"/>
      <point x="586" y="2057"/>
      <point x="658" y="2019"/>
      <point x="724" y="1990"/>
      <point x="754" y="1990" type="qcurve" smooth="yes"/>
      <point x="792" y="1990"/>
      <point x="820" y="2046"/>
      <point x="808" y="2080" type="qcurve"/>
      <point x="880" y="2080" type="line"/>
      <point x="898" y="2013"/>
      <point x="822" y="1910"/>
    </contour>
    <contour>
      <point x="40" y="0" type="line"/>
      <point x="564" y="1440" type="line"/>
      <point x="654" y="1440" type="line"/>
      <point x="1178" y="0" type="line"/>
      <point x="1088" y="0" type="line"/>
      <point x="578" y="1402" type="line"/>
      <point x="638" y="1402" type="line"/>
      <point x="130" y="0" type="line"/>
    </contour>
    <contour>
      <point x="240" y="374" type="line"/>
      <point x="240" y="454" type="line"/>
      <point x="976" y="454" type="line"/>
      <point x="976" y="374" type="line"/>
    </contour>
  </outline>
</glyph>
<glyph name="uni1EAC" format="2">
  <advance width="1218"/>
  <unicode hex="1EAC"/>
  <outline>
    <contour>
      <point x="609" y="-390" type="qcurve" smooth="yes"/>
      <point x="578" y="-390"/>
      <point x="535" y="-348"/>
      <point x="535" y="-317" type="qcurve" smooth="yes"/>
      <point x="535" y="-285"/>
      <point x="578" y="-243"/>
      <point x="609" y="-243" type="qcurve" smooth="yes"/>
      <point x="640" y="-243"/>
      <point x="683" y="-285"/>
      <point x="683" y="-317" type="qcurve" smooth="yes"/>
      <point x="683" y="-348"/>
      <point x="640" y="-390"/>
    </contour>
    <contour>
      <point x="40" y="0" type="line"/>
      <point x="564" y="1440" type="line"/>
      <point x="654" y="1440" type="line"/>
      <point x="1178" y="0" type="line"/>
      <point x="1088" y="0" type="line"/>
      <point x="578" y="1402" type="line"/>
      <point x="638" y="1402" type="line"/>
      <point x="130" y="0" type="line"/>
    </contour>
    <contour>
      <point x="240" y="374" type="line"/>
      <point x="240" y="454" type="line"/>
      <point x="976" y="454" type="line"/>
      <point x="976" y="374" type="line"/>
    </contour>
    <contour>
      <point x="364" y="1620" type="line"/>
      <point x="564" y="1860" type="line"/>
      <point x="656" y="1860" type="line"/>
      <point x="856" y="1620" type="line"/>
      <point x="756" y="1620" type="line"/>
      <point x="610" y="1790" type="line"/>
      <point x="464" y="1620" type="line"/>
    </contour>
  </outline>
</glyph>
<glyph name="uni1EB2" format="2">
  <advance width="1218"/>
  <unicode hex="1EB2"/>
  <outline>
    <contour>
      <point x="609" y="1572" type="qcurve" smooth="yes"/>
      <point x="546" y="1572"/>
      <point x="442" y="1634"/>
      <point x="381" y="1737"/>
      <point x="381" y="1800" type="qcurve"/>
      <point x="459" y="1800" type="line"/>
      <point x="459" y="1739"/>
      <point x="548" y="1650"/>
      <point x="609" y="1650" type="qcurve" smooth="yes"/>
      <point x="672" y="1650"/>
      <point x="759" y="1739"/>
      <point x="759" y="1800" type="qcurve"/>
      <point x="837" y="1800" type="line"/>
      <point x="837" y="1737"/>
      <point x="776" y="1634"/>
      <point x="672" y="1572"/>
    </contour>
    <contour>
      <point x="485" y="2012" type="qcurve"/>
      <point x="447" y="2061" type="line"/>
      <point x="477" y="2097"/>
      <point x="563" y="2132"/>
      <point x="652" y="2115"/>
      <point x="687" y="2069" type="qcurve" smooth="yes"/>
      <point x="712" y="2036"/>
      <point x="721" y="1961"/>
      <point x="696" y="1888"/>
      <point x="643" y="1827"/>
      <point x="607" y="1807" type="qcurve"/>
      <point x="555" y="1855" type="line"/>
      <point x="619" y="1890"/>
      <point x="655" y="1984"/>
      <point x="631" y="2021" type="qcurve" smooth="yes"/>
      <point x="614" y="2048"/>
      <point x="563" y="2058"/>
      <point x="509" y="2036"/>
    </contour>
    <contour>
      <point x="40" y="0" type="line"/>
      <point x="564" y="1440" type="line"/>
      <point x="654" y="1440" type="line"/>
      <point x="1178" y="0" type="line"/>
      <point x="1088" y="0" type="line"/>
      <point x="578" y="1402" type="line"/>
      <point x="638" y="1402" type="line"/>
      <point x="130" y="0" type="line"/>
    </contour>
    <contour>
      <point x="240" y="374" type="line"/>
      <point x="240" y="454" type="line"/>
      <point x="976" y="454" type="line"/>
      <point x="976" y="374" type="line"/>
    </contour>
  </outline>
</glyph>
<glyph name="Abrevetilde" format="2">
  <advance width="1218"/>
  <unicode hex="1EB4"/>
  <outline>
    <contour>
      <point x="737" y="1850" type="qcurve" smooth="yes"/>
      <point x="698" y="1850"/>
      <point x="623" y="1879"/>
      <point x="551" y="1917"/>
      <point x="485" y="1946"/>
      <point x="455" y="1946" type="qcurve" smooth="yes"/>
      <point x="412" y="1946"/>
      <point x="391" y="1887"/>
      <point x="401" y="1860" type="qcurve"/>
      <point x="329" y="1860" type="line"/>
      <point x="311" y="1929"/>
      <point x="388" y="2026"/>
      <point x="457" y="2026" type="qcurve" smooth="yes"/>
      <point x="497" y="2026"/>
      <point x="573" y="1997"/>
      <point x="645" y="1959"/>
      <point x="711" y="1930"/>
      <point x="741" y="1930" type="qcurve" smooth="yes"/>
      <point x="779" y="1930"/>
      <point x="807" y="1986"/>
      <point x="795" y="2020" type="qcurve"/>
      <point x="867" y="2020" type="line"/>
      <point x="885" y="1953"/>
      <point x="809" y="1850"/>
    </contour>
    <contour>
      <point x="596" y="1572" type="qcurve" smooth="yes"/>
      <point x="533" y="1572"/>
      <point x="429" y="1634"/>
      <point x="368" y="1737"/>
      <point x="368" y="1800" type="qcurve"/>
      <point x="446" y="1800" type="line"/>
      <point x="446" y="1739"/>
      <point x="535" y="1650"/>
      <point x="596" y="1650" type="qcurve" smooth="yes"/>
      <point x="659" y="1650"/>
      <point x="746" y="1739"/>
      <point x="746" y="1800" type="qcurve"/>
      <point x="824" y="1800" type="line"/>
      <point x="824" y="1737"/>
      <point x="763" y="1634"/>
      <point x="659" y="1572"/>
    </contour>
    <contour>
      <point x="40" y="0" type="line"/>
      <point x="564" y="1440" type="line"/>
      <point x="654" y="1440" type="line"/>
      <point x="1178" y="0" type="line"/>
      <point x="1088" y="0" type="line"/>
      <point x="578" y="1402" type="line"/>
      <point x="638" y="1402" type="line"/>
      <point x="130" y="0" type="line"/>
    </contour>
    <contour>
      <point x="240" y="374" type="line"/>
      <point x="240" y="454" type="line"/>
      <point x="976" y="454" type="line"/>
      <point x="976" y="374" type="line"/>
    </contour>
  </outline>
</glyph>
<glyph name="abrevetilde" format="2">
  <advance width="1084"/>
  <unicode hex="1EB5"/>
  <outline>
    <contour>
      <point x="667" y="1490" type="qcurve" smooth="yes"/>
      <point x="628" y="1490"/>
      <point x="553" y="1519"/>
      <point x="481" y="1557"/>
      <point x="415" y="1586"/>
      <point x="385" y="1586" type="qcurve" smooth="yes"/>
      <point x="342" y="1586"/>
      <point x="321" y="1527"/>
      <point x="331" y="1500" type="qcurve"/>
      <point x="259" y="1500" type="line"/>
      <point x="241" y="1569"/>
      <point x="318" y="1666"/>
      <point x="387" y="1666" type="qcurve" smooth="yes"/>
      <point x="427" y="1666"/>
      <point x="503" y="1637"/>
      <point x="575" y="1599"/>
      <point x="641" y="1570"/>
      <point x="671" y="1570" type="qcurve" smooth="yes"/>
      <point x="709" y="1570"/>
      <point x="737" y="1626"/>
      <point x="725" y="1660" type="qcurve"/>
      <point x="797" y="1660" type="line"/>
      <point x="815" y="1593"/>
      <point x="739" y="1490"/>
    </contour>
    <contour>
      <point x="526" y="1212" type="qcurve" smooth="yes"/>
      <point x="463" y="1212"/>
      <point x="359" y="1274"/>
      <point x="298" y="1377"/>
      <point x="298" y="1440" type="qcurve"/>
      <point x="376" y="1440" type="line"/>
      <point x="376" y="1379"/>
      <point x="465" y="1290"/>
      <point x="526" y="1290" type="qcurve" smooth="yes"/>
      <point x="589" y="1290"/>
      <point x="676" y="1379"/>
      <point x="676" y="1440" type="qcurve"/>
      <point x="754" y="1440" type="line"/>
      <point x="754" y="1377"/>
      <point x="693" y="1274"/>
      <point x="589" y="1212"/>
    </contour>
    <contour>
      <point x="454" y="-30" type="qcurve" smooth="yes"/>
      <point x="328" y="-30"/>
      <point x="162" y="58"/>
      <point x="80" y="202"/>
      <point x="80" y="286" type="qcurve" smooth="yes"/>
      <point x="80" y="381"/>
      <point x="163" y="506"/>
      <point x="297" y="578"/>
      <point x="374" y="594" type="qcurve" smooth="yes"/>
      <point x="468" y="613"/>
      <point x="683" y="642"/>
      <point x="865" y="662"/>
      <point x="910" y="668" type="qcurve"/>
      <point x="880" y="648" type="line"/>
      <point x="885" y="839"/>
      <point x="736" y="1026"/>
      <point x="548" y="1026" type="qcurve" smooth="yes"/>
      <point x="412" y="1026"/>
      <point x="247" y="905"/>
      <point x="214" y="780" type="qcurve"/>
      <point x="122" y="804" type="line"/>
      <point x="158" y="954"/>
      <point x="381" y="1110"/>
      <point x="552" y="1110" type="qcurve" smooth="yes"/>
      <point x="702" y="1110"/>
      <point x="902" y="988"/>
      <point x="938" y="884" type="qcurve" smooth="yes"/>
      <point x="952" y="844"/>
      <point x="964" y="730"/>
      <point x="964" y="676" type="qcurve" smooth="yes"/>
      <point x="964" y="0" type="line"/>
      <point x="886" y="0" type="line"/>
      <point x="886" y="296" type="line"/>
      <point x="926" y="294" type="line"/>
      <point x="883" y="140"/>
      <point x="627" y="-30"/>
    </contour>
    <contour>
      <point x="450" y="54" type="qcurve" smooth="yes"/>
      <point x="567" y="54"/>
      <point x="746" y="138"/>
      <point x="857" y="297"/>
      <point x="872" y="408" type="qcurve" smooth="yes"/>
      <point x="880" y="464"/>
      <point x="880" y="592"/>
      <point x="880" y="620" type="qcurve"/>
      <point x="924" y="586" type="line"/>
      <point x="871" y="581"/>
      <point x="684" y="564"/>
      <point x="476" y="537"/>
      <point x="392" y="516" type="qcurve" smooth="yes"/>
      <point x="343" y="504"/>
      <point x="239" y="452"/>
      <point x="168" y="358"/>
      <point x="168" y="284" type="qcurve" smooth="yes"/>
      <point x="168" y="232"/>
      <point x="220" y="126"/>
      <point x="343" y="54"/>
    </contour>
  </outline>
</glyph>
